{
.appVersion = "924";
classes = (
{
automatic = 1;

glyphs = (
{
glyphname = A;
lastChange = "2016-09-30 17:05:21 +0000";
layers = (
{
anchors = (
{
name = bottom;
position = "{314, 0}";
},
{
name = ogonek;
position = "{599, 10}";
},
{
name = top;
position = "{425, 700}";
}
);
layerId = "89F00A14-383C-41A8-AF30-A12CE933D7AF";
paths = (
{
closed = 1;
nodes = (
"229 0 LINE",
"239 60 LINE",
"155 79 LINE",
"210 190 LINE",
"465 190 LINE",
"485 80 LINE",
"399 60 LINE",
"390 0 LINE",
"655 0 LINE",
"665 60 LINE",
"597 77 LINE",
"477 700 LINE",
"378 695 LINE",
"58 80 LINE",
"-27 60 LINE",
"-36 0 LINE"
);
},
{
closed = 1;
nodes = (
"400 571 LINE",
"451 270 LINE",
"249 270 LINE"
);
}
);
width = 712;
},
{
anchors = (
{
name = bottom;
position = "{313, 0}";
},
{
name = ogonek;
position = "{597, 10}";
},
{
name = top;
position = "{425, 705}";
}
);
layerId = "6959900B-8A08-4E04-B0F8-C63132552E7A";
paths = (
{
closed = 1;
nodes = (
"245 0 LINE",
"259 87 LINE",
"190 109 LINE",
"226 185 LINE",
"447 185 LINE",
"459 112 LINE",
"380 87 LINE",
"366 0 LINE",
"662 0 LINE",
"677 88 LINE",
"619 108 LINE",
"504 705 LINE",
"350 698 LINE",
"43 111 LINE",
"-24 88 LINE",
"-38 0 LINE"
);
},
{
closed = 1;
nodes = (
"393 533 LINE",
"430 292 LINE",
"276 292 LINE"
);
}
);
width = 711;
}
);
leftKerningGroup = A;
rightKerningGroup = A;
unicode = 0041;
},
{
glyphname = Amacron;
lastChange = "2016-08-18 14:48:36 +0000";
layers = (
{
components = (
{
name = A;
},
{
name = macron;
transform = "{1, 0, 0, 1, 305, 120}";
}
);
layerId = "89F00A14-383C-41A8-AF30-A12CE933D7AF";
width = 712;
},
{
background = {
paths = (
{
closed = 1;
nodes = (
"504 705 LINE",
"350 698 LINE",
"43 111 LINE",
"-24 88 LINE",
"-38 0 LINE",
"245 0 LINE",
"259 87 LINE",
"190 109 LINE",
"226 185 LINE",
"447 185 LINE",
"459 112 LINE",
"380 87 LINE",
"366 0 LINE",
"662 0 LINE",
"677 88 LINE",
"619 108 LINE"
);
},
{
closed = 1;
nodes = (
"430 292 LINE",
"276 292 LINE",
"393 533 LINE"
);
},
{
closed = 1;
nodes = (
"300 796 LINE",
"591 796 LINE",
"609 901 LINE",
"318 901 LINE"
);
}
);
};
components = (
{
name = A;
},
{
name = macron;
transform = "{1, 0, 0, 1, 300, 154}";
}
);
layerId = "6959900B-8A08-4E04-B0F8-C63132552E7A";
width = 711;
}
);
leftKerningGroup = A;
rightKerningGroup = A;
unicode = 0100;
},
{
glyphname = Aogonek;
lastChange = "2016-08-18 14:48:36 +0000";
layers = (
{
components = (
{
name = A;
}
);
layerId = "89F00A14-383C-41A8-AF30-A12CE933D7AF";
paths = (
{
closed = 1;
nodes = (
"574 -220 OFFCURVE",
"616 -200 OFFCURVE",
"616 -200 CURVE",
"614 -153 LINE",
"614 -153 OFFCURVE",
"588 -160 OFFCURVE",
"568 -160 CURVE SMOOTH",
"546 -160 OFFCURVE",
"530 -147 OFFCURVE",
"530 -124 CURVE SMOOTH",
"530 -67 OFFCURVE",
"655 0 OFFCURVE",
"655 0 CURVE",
"577 0 LINE",
"577 0 OFFCURVE",
"450 -55 OFFCURVE",
"450 -145 CURVE SMOOTH",
"450 -193 OFFCURVE",
"487 -220 OFFCURVE",
"535 -220 CURVE SMOOTH"
);
}
);
width = 712;
},
{
background = {
paths = (
{
closed = 1;
nodes = (
"504 705 LINE",
"350 698 LINE",
"43 111 LINE",
"-24 88 LINE",
"-38 0 LINE",
"245 0 LINE",
"259 87 LINE",
"190 109 LINE",
"226 185 LINE",
"447 185 LINE",
"459 112 LINE",
"380 87 LINE",
"366 0 LINE",
"515 0 LINE",
"483 -17 OFFCURVE",
"381 -66 OFFCURVE",
"381 -152 CURVE SMOOTH",
"381 -206 OFFCURVE",
"422 -235 OFFCURVE",
"474 -235 CURVE SMOOTH",
"523 -235 OFFCURVE",
"576 -211 OFFCURVE",
"576 -211 CURVE",
"571 -140 LINE",
"571 -140 OFFCURVE",
"548 -147 OFFCURVE",
"531 -147 CURVE SMOOTH",
"510 -147 OFFCURVE",
"497 -135 OFFCURVE",
"497 -117 CURVE SMOOTH",
"497 -62 OFFCURVE",
"653 -3 OFFCURVE",
"662 0 CURVE",
"677 88 LINE",
"619 108 LINE"
);
},
{
closed = 1;
nodes = (
"430 292 LINE",
"276 292 LINE",
"393 533 LINE"
);
}
);
};
components = (
{
name = A;
}
);
layerId = "6959900B-8A08-4E04-B0F8-C63132552E7A";
paths = (
{
closed = 1;
nodes = (
"523 -235 OFFCURVE",
"576 -211 OFFCURVE",
"576 -211 CURVE",
"571 -140 LINE",
"571 -140 OFFCURVE",
"548 -147 OFFCURVE",
"531 -147 CURVE SMOOTH",
"510 -147 OFFCURVE",
"497 -135 OFFCURVE",
"497 -117 CURVE SMOOTH",
"497 -62 OFFCURVE",
"653 -3 OFFCURVE",
"662 0 CURVE",
"515 0 LINE",
"483 -17 OFFCURVE",
"381 -66 OFFCURVE",
"381 -152 CURVE SMOOTH",
"381 -206 OFFCURVE",
"422 -235 OFFCURVE",
"474 -235 CURVE SMOOTH"
);
}
);
width = 711;
}
);
leftKerningGroup = A;
rightKerningGroup = A;
unicode = 0104;
},
{
glyphname = Aring;
lastChange = "2016-08-18 14:48:36 +0000";
layers = (
{
components = (
{
name = A;
},
{
name = ring;
transform = "{1, 0, 0, 1, 252, 86}";
}
);
layerId = "89F00A14-383C-41A8-AF30-A12CE933D7AF";
width = 712;
},
{
background = {
paths = (
{
closed = 1;
nodes = (
"309 745 OFFCURVE",
"324 716 OFFCURVE",
"350 698 CURVE",
"43 111 LINE",
"-24 88 LINE",
"-38 0 LINE",
"245 0 LINE",
"259 87 LINE",
"190 109 LINE",
"226 185 LINE",
"447 185 LINE",
"459 112 LINE",
"380 87 LINE",
"366 0 LINE",
"662 0 LINE",
"677 88 LINE",
"619 108 LINE",
"504 703 LINE",
"545 732 OFFCURVE",
"571 782 OFFCURVE",
"571 834 CURVE SMOOTH",
"571 900 OFFCURVE",
"520 937 OFFCURVE",
"458 937 CURVE SMOOTH",
"370 937 OFFCURVE",
"309 864 OFFCURVE",
"309 781 CURVE SMOOTH"
);
},
{
closed = 1;
nodes = (
"430 292 LINE",
"276 292 LINE",
"393 533 LINE"
);
},
{
closed = 1;
nodes = (
"476 865 OFFCURVE",
"488 850 OFFCURVE",
"488 822 CURVE SMOOTH",
"488 787 OFFCURVE",
"467 750 OFFCURVE",
"432 750 CURVE SMOOTH",
"405 750 OFFCURVE",
"392 765 OFFCURVE",
"392 793 CURVE SMOOTH",
"392 828 OFFCURVE",
"413 865 OFFCURVE",
"448 865 CURVE SMOOTH"
);
}
);
};
components = (
{
name = A;
},
{
name = ring;
transform = "{1, 0, 0, 1, 239, 80}";
}
);
layerId = "6959900B-8A08-4E04-B0F8-C63132552E7A";
width = 711;
}
);
leftKerningGroup = A;
rightKerningGroup = A;
unicode = 00C5;
},
{
glyphname = AE;
lastChange = "2016-08-18 14:48:36 +0000";
layers = (
{
layerId = "89F00A14-383C-41A8-AF30-A12CE933D7AF";
paths = (
{
closed = 1;
nodes = (
"223 0 LINE",
"233 60 LINE",
"158 77 LINE",
"241 205 LINE",
"458 205 LINE",
"438 80 LINE",
"350 60 LINE",
"340 0 LINE",
"837 0 LINE",
"868 182 LINE",
"802 182 LINE",
"765 80 LINE",
"538 80 LINE",
"577 325 LINE",
"805 325 LINE",
"817 405 LINE",
"589 405 LINE",
"624 620 LINE",
"845 620 LINE",
"855 530 LINE",
"911 530 LINE",
"938 700 LINE",
"536 700 LINE",
"345 695 LINE",
"336 640 LINE",
"415 620 LINE",
"58 80 LINE",
"-27 60 LINE",
"-37 0 LINE"
);
},
{
closed = 1;
nodes = (
"507 620 LINE",
"524 620 LINE",
"470 285 LINE",
"292 285 LINE"
);
}
);
width = 936;
},
{
layerId = "6959900B-8A08-4E04-B0F8-C63132552E7A";
paths = (
{
closed = 1;
nodes = (
"238 0 LINE",
"253 87 LINE",
"194 108 LINE",
"247 192 LINE",
"437 192 LINE",
"424 112 LINE",
"349 87 LINE",
"334 0 LINE",
"840 0 LINE",
"873 201 LINE",
"783 201 LINE",
"747 117 LINE",
"572 117 LINE",
"602 310 LINE",
"800 310 LINE",
"817 420 LINE",
"620 420 LINE",
"647 587 LINE",
"815 587 LINE",
"828 512 LINE",
"908 512 LINE",
"939 705 LINE",
"530 705 LINE",
"283 700 LINE",
"270 617 LINE",
"347 589 LINE",
"47 112 LINE",
"-24 87 LINE",
"-38 0 LINE"
);
},
{
closed = 1;
nodes = (
"483 587 LINE",
"499 587 LINE",
"452 300 LINE",
"309 300 LINE"
);
}
);
width = 934;
}
);
leftKerningGroup = A;
rightKerningGroup = E;
unicode = 00C6;
},
{
glyphname = B;
lastChange = "2016-08-18 14:48:36 +0000";
layers = (
{
layerId = "89F00A14-383C-41A8-AF30-A12CE933D7AF";
paths = (
{
closed = 1;
nodes = (
"300 0 LINE SMOOTH",
"453 0 OFFCURVE",
"570 79 OFFCURVE",
"570 228 CURVE SMOOTH",
"570 306 OFFCURVE",
"513 346 OFFCURVE",
"438 363 CURVE",
"508 379 OFFCURVE",
"594 434 OFFCURVE",
"594 547 CURVE SMOOTH",
"594 652 OFFCURVE",
"504 700 OFFCURVE",
"399 700 CURVE SMOOTH",
"295 700 LINE",
"110 695 LINE",
"101 640 LINE",
"182 620 LINE",
"97 80 LINE",
"8 60 LINE",
"-2 0 LINE"
);
},
{
closed = 1;
nodes = (
"235 325 LINE",
"310 325 LINE SMOOTH",
"409 325 OFFCURVE",
"463 300 OFFCURVE",
"463 218 CURVE SMOOTH",
"463 145 OFFCURVE",
"404 80 OFFCURVE",
"290 80 CURVE SMOOTH",
"197 80 LINE"
);
},
{
closed = 1;
nodes = (
"282 620 LINE",
"389 620 LINE",
"446 620 OFFCURVE",
"488 591 OFFCURVE",
"488 537 CURVE SMOOTH",
"488 427 OFFCURVE",
"384 400 OFFCURVE",
"320 400 CURVE SMOOTH",
"247 400 LINE"
);
}
);
width = 629;
},
{
layerId = "6959900B-8A08-4E04-B0F8-C63132552E7A";
paths = (
{
closed = 1;
nodes = (
"313 0 LINE SMOOTH",
"472 0 OFFCURVE",
"599 78 OFFCURVE",
"599 235 CURVE SMOOTH",
"599 306 OFFCURVE",
"550 347 OFFCURVE",
"477 368 CURVE",
"555 391 OFFCURVE",
"625 451 OFFCURVE",
"625 553 CURVE SMOOTH",
"625 655 OFFCURVE",
"533 705 OFFCURVE",
"429 705 CURVE SMOOTH",
"333 705 LINE",
"108 700 LINE",
"95 617 LINE",
"164 588 LINE",
"89 111 LINE",
"11 87 LINE",
"-3 0 LINE"
);
},
{
closed = 1;
nodes = (
"270 312 LINE",
"328 312 LINE SMOOTH",
"405 312 OFFCURVE",
"442 288 OFFCURVE",
"442 227 CURVE SMOOTH",
"442 166 OFFCURVE",
"397 117 OFFCURVE",
"310 117 CURVE SMOOTH",
"239 117 LINE"
);
},
{
closed = 1;
nodes = (
"314 587 LINE",
"392 587 LINE SMOOTH",
"436 587 OFFCURVE",
"469 567 OFFCURVE",
"469 523 CURVE SMOOTH",
"469 458 OFFCURVE",
"417 417 OFFCURVE",
"342 417 CURVE SMOOTH",
"287 417 LINE"
);
}
);
width = 653;
}
);
rightKerningGroup = B;
unicode = 0042;
},
{
glyphname = C;
lastChange = "2016-08-18 14:48:36 +0000";
layers = (
{
layerId = "89F00A14-383C-41A8-AF30-A12CE933D7AF";
paths = (
{
closed = 1;
nodes = (
"443 -10 OFFCURVE",
"550 68 OFFCURVE",
"586 97 CURVE",
"550 156 LINE",
"516 131 OFFCURVE",
"431 80 OFFCURVE",
"328 80 CURVE SMOOTH",
"233 80 OFFCURVE",
"170 153 OFFCURVE",
"170 263 CURVE SMOOTH",
"170 448 OFFCURVE",
"272 625 OFFCURVE",
"432 625 CURVE SMOOTH",
"497 625 OFFCURVE",
"549 607 OFFCURVE",
"566 600 CURVE",
"578 490 LINE",
"636 490 LINE",
"663 660 LINE",
"663 660 OFFCURVE",
"562 710 OFFCURVE",
"452 710 CURVE SMOOTH",
"227 710 OFFCURVE",
"60 518 OFFCURVE",
"60 244 CURVE SMOOTH",
"60 89 OFFCURVE",
"153 -10 OFFCURVE",
"308 -10 CURVE SMOOTH"
);
}
);
width = 638;
},
{
layerId = "6959900B-8A08-4E04-B0F8-C63132552E7A";
paths = (
{
closed = 1;
nodes = (
"451 -13 OFFCURVE",
"558 68 OFFCURVE",
"598 102 CURVE",
"545 186 LINE",
"508 160 OFFCURVE",
"438 116 OFFCURVE",
"349 116 CURVE SMOOTH",
"272 116 OFFCURVE",
"217 177 OFFCURVE",
"217 277 CURVE SMOOTH",
"217 431 OFFCURVE",
"290 592 OFFCURVE",
"431 592 CURVE SMOOTH",
"482 592 OFFCURVE",
"521 580 OFFCURVE",
"539 574 CURVE",
"552 480 LINE",
"635 480 LINE",
"665 670 LINE",
"665 670 OFFCURVE",
"566 717 OFFCURVE",
"448 717 CURVE SMOOTH",
"218 717 OFFCURVE",
"55 524 OFFCURVE",
"55 249 CURVE SMOOTH",
"55 89 OFFCURVE",
"158 -13 OFFCURVE",
"316 -13 CURVE SMOOTH"
);
}
);
width = 645;
}
);
leftKerningGroup = O;
rightKerningGroup = C;
unicode = 0043;
},
{
glyphname = Ccedilla;
lastChange = "2016-08-18 14:48:36 +0000";
layers = (
{
components = (
{
name = C;
},
{
name = cedilla;
transform = "{1, 0, 0, 1, 85, 0}";
}
);
layerId = "89F00A14-383C-41A8-AF30-A12CE933D7AF";
width = 638;
},
{
background = {
paths = (
{
closed = 1;
nodes = (
"273 -168 OFFCURVE",
"241 -149 OFFCURVE",
"241 -149 CURVE",
"203 -204 LINE",
"203 -204 OFFCURVE",
"250 -234 OFFCURVE",
"318 -234 CURVE SMOOTH",
"387 -234 OFFCURVE",
"451 -190 OFFCURVE",
"451 -120 CURVE SMOOTH",
"451 -79 OFFCURVE",
"422 -53 OFFCURVE",
"380 -44 CURVE",
"386 -6 LINE",
"487 14 OFFCURVE",
"565 74 OFFCURVE",
"598 102 CURVE",
"545 186 LINE",
"508 160 OFFCURVE",
"438 116 OFFCURVE",
"349 116 CURVE SMOOTH",
"272 116 OFFCURVE",
"217 177 OFFCURVE",
"217 277 CURVE SMOOTH",
"217 431 OFFCURVE",
"290 592 OFFCURVE",
"431 592 CURVE SMOOTH",
"482 592 OFFCURVE",
"521 580 OFFCURVE",
"539 574 CURVE",
"552 480 LINE",
"635 480 LINE",
"665 670 LINE",
"665 670 OFFCURVE",
"566 717 OFFCURVE",
"448 717 CURVE SMOOTH",
"218 717 OFFCURVE",
"55 524 OFFCURVE",
"55 249 CURVE SMOOTH",
"55 94 OFFCURVE",
"152 -7 OFFCURVE",
"302 -13 CURVE",
"290 -87 LINE",
"335 -87 OFFCURVE",
"365 -100 OFFCURVE",
"365 -126 CURVE SMOOTH",
"365 -154 OFFCURVE",
"340 -168 OFFCURVE",
"310 -168 CURVE SMOOTH"
);
}
);
};
components = (
{
name = C;
},
{
name = cedilla;
transform = "{1, 0, 0, 1, 95, 0}";
}
);
layerId = "6959900B-8A08-4E04-B0F8-C63132552E7A";
width = 645;
}
);
leftKerningGroup = O;
rightKerningGroup = C;
unicode = 00C7;
},
{
glyphname = Ccircumflex;
lastChange = "2016-08-25 08:49:19 +0000";
layers = (
{
components = (
{
name = C;
},
{
name = circumflexcomb.case;
transform = "{1, 0, 0, 1, 290, 0}";
}
);
layerId = "89F00A14-383C-41A8-AF30-A12CE933D7AF";
width = 638;
},
{
background = {
paths = (
{
closed = 1;
nodes = (
"665 670 LINE",
"665 670 OFFCURVE",
"566 717 OFFCURVE",
"448 717 CURVE SMOOTH",
"218 717 OFFCURVE",
"55 524 OFFCURVE",
"55 249 CURVE SMOOTH",
"55 89 OFFCURVE",
"158 -13 OFFCURVE",
"316 -13 CURVE SMOOTH",
"451 -13 OFFCURVE",
"558 68 OFFCURVE",
"598 102 CURVE",
"545 186 LINE",
"508 160 OFFCURVE",
"438 116 OFFCURVE",
"349 116 CURVE SMOOTH",
"272 116 OFFCURVE",
"217 177 OFFCURVE",
"217 277 CURVE SMOOTH",
"217 431 OFFCURVE",
"290 592 OFFCURVE",
"431 592 CURVE SMOOTH",
"482 592 OFFCURVE",
"521 580 OFFCURVE",
"539 574 CURVE",
"552 480 LINE",
"635 480 LINE"
);
},
{
closed = 1;
nodes = (
"464 842 LINE",
"591 742 LINE",
"647 807 LINE",
"517 951 LINE",
"430 944 LINE",
"258 807 LINE",
"300 742 LINE"
);
}
);
};
components = (
{
name = C;
},
{
name = circumflex;
transform = "{1, 0, 0, 1, 258, 120}";
}
);
layerId = "6959900B-8A08-4E04-B0F8-C63132552E7A";
width = 645;
}
);
leftKerningGroup = O;
rightKerningGroup = C;
unicode = 0108;
},
{
glyphname = D;
lastChange = "2016-08-18 14:48:36 +0000";
layers = (
{
layerId = "89F00A14-383C-41A8-AF30-A12CE933D7AF";
paths = (
{
closed = 1;
nodes = (
"268 0 LINE SMOOTH",
"517 0 OFFCURVE",
"676 165 OFFCURVE",
"676 465 CURVE SMOOTH",
"676 612 OFFCURVE",
"575 700 OFFCURVE",
"428 700 CURVE SMOOTH",
"299 700 LINE",
"114 695 LINE",
"105 640 LINE",
"186 620 LINE",
"99 79 LINE",
"13 60 LINE",
"3 0 LINE"
);
},
{
closed = 1;
nodes = (
"287 620 LINE",
"413 620 LINE SMOOTH",
"518 620 OFFCURVE",
"571 557 OFFCURVE",
"571 452 CURVE SMOOTH",
"571 232 OFFCURVE",
"468 80 OFFCURVE",
"283 80 CURVE SMOOTH",
"201 80 LINE"
);
}
);
width = 704;
},
{
layerId = "6959900B-8A08-4E04-B0F8-C63132552E7A";
paths = (
{
closed = 1;
nodes = (
"284 0 LINE SMOOTH",
"524 0 OFFCURVE",
"686 162 OFFCURVE",
"686 455 CURVE SMOOTH",
"686 619 OFFCURVE",
"585 705 OFFCURVE",
"429 705 CURVE SMOOTH",
"336 705 LINE",
"113 700 LINE",
"100 617 LINE",
"169 588 LINE",
"94 111 LINE",
"16 87 LINE",
"2 0 LINE"
);
},
{
closed = 1;
nodes = (
"317 587 LINE",
"409 587 LINE SMOOTH",
"491 587 OFFCURVE",
"529 525 OFFCURVE",
"529 449 CURVE SMOOTH",
"529 277 OFFCURVE",
"457 117 OFFCURVE",
"307 117 CURVE SMOOTH",
"242 117 LINE"
);
}
);
width = 711;
}
);
leftKerningGroup = H;
rightKerningGroup = O;
unicode = 0044;
},
{
glyphname = Eth;
lastChange = "2016-08-18 14:48:36 +0000";
layers = (
{
layerId = "89F00A14-383C-41A8-AF30-A12CE933D7AF";
paths = (
{
closed = 1;
nodes = (
"268 0 LINE SMOOTH",
"517 0 OFFCURVE",
"678 165 OFFCURVE",
"678 465 CURVE SMOOTH",
"678 612 OFFCURVE",
"575 700 OFFCURVE",
"428 700 CURVE SMOOTH",
"299 700 LINE",
"114 695 LINE",
"105 640 LINE",
"186 620 LINE",
"151 405 LINE",
"68 405 LINE",
"55 325 LINE",
"139 325 LINE",
"99 79 LINE",
"13 60 LINE",
"3 0 LINE"
);
},
{
closed = 1;
nodes = (
"240 325 LINE",
"393 325 LINE",
"404 405 LINE",
"252 405 LINE",
"287 620 LINE",
"413 620 LINE SMOOTH",
"518 620 OFFCURVE",
"573 557 OFFCURVE",
"573 452 CURVE SMOOTH",
"573 232 OFFCURVE",
"468 80 OFFCURVE",
"283 80 CURVE SMOOTH",
"201 80 LINE"
);
}
);
width = 711;
},
{
layerId = "6959900B-8A08-4E04-B0F8-C63132552E7A";
paths = (
{
closed = 1;
nodes = (
"287 0 LINE SMOOTH",
"526 0 OFFCURVE",
"690 162 OFFCURVE",
"690 455 CURVE SMOOTH",
"690 619 OFFCURVE",
"587 705 OFFCURVE",
"431 705 CURVE SMOOTH",
"335 705 LINE",
"113 700 LINE",
"100 617 LINE",
"168 588 LINE",
"141 420 LINE",
"69 420 LINE",
"51 310 LINE",
"124 310 LINE",
"92 112 LINE",
"16 87 LINE",
"2 0 LINE"
);
},
{
closed = 1;
nodes = (
"272 310 LINE",
"392 310 LINE",
"407 420 LINE",
"289 420 LINE",
"316 587 LINE",
"412 587 LINE SMOOTH",
"497 587 OFFCURVE",
"533 537 OFFCURVE",
"533 449 CURVE SMOOTH",
"533 277 OFFCURVE",
"459 117 OFFCURVE",
"309 117 CURVE SMOOTH",
"241 117 LINE"
);
}
);
width = 720;
}
);
leftKerningGroup = H;
rightKerningGroup = O;
unicode = 00D0;
},
{
glyphname = E;
lastChange = "2016-09-30 17:05:21 +0000";
layers = (
{
anchors = (
{
name = bottom;
position = "{260, 0}";
},
{
name = ogonek;
position = "{502, 10}";
},
{
name = top;
position = "{371, 700}";
},
{
name = topleft;
position = "{89, 700}";
}
);
layerId = "89F00A14-383C-41A8-AF30-A12CE933D7AF";
paths = (
{
closed = 1;
nodes = (
"505 0 LINE",
"536 182 LINE",
"470 182 LINE",
"433 80 LINE",
"206 80 LINE",
"245 325 LINE",
"473 325 LINE",
"485 405 LINE",
"257 405 LINE",
"292 620 LINE",
"513 620 LINE",
"523 530 LINE",
"579 530 LINE",
"606 700 LINE",
"305 700 LINE",
"119 695 LINE",
"110 640 LINE",
"192 620 LINE",
"106 80 LINE",
"18 60 LINE",
"8 0 LINE"
);
}
);
width = 604;
},
{
anchors = (
{
name = bottom;
position = "{263, 0}";
},
{
name = ogonek;
position = "{507, 10}";
},
{
name = top;
position = "{375, 705}";
},
{
name = topleft;
position = "{89, 705}";
}
);
layerId = "6959900B-8A08-4E04-B0F8-C63132552E7A";
paths = (
{
closed = 1;
nodes = (
"517 0 LINE",
"550 201 LINE",
"460 201 LINE",
"424 120 LINE",
"249 120 LINE",
"279 310 LINE",
"477 310 LINE",
"494 420 LINE",
"297 420 LINE",
"324 585 LINE",
"492 585 LINE",
"505 512 LINE",
"585 512 LINE",
"616 705 LINE",
"343 705 LINE",
"118 700 LINE",
"105 617 LINE",
"174 588 LINE",
"99 111 LINE",
"21 87 LINE",
"7 0 LINE"
);
}
);
width = 611;
}
);
leftKerningGroup = E;
rightKerningGroup = E;
unicode = 0045;
},
{
glyphname = Ecircumflex;
lastChange = "2016-09-30 17:27:31 +0000";
layers = (
{
components = (
{
name = E;
},
{
name = circumflexcomb.case;
transform = "{1, 0, 0, 1, 220, 0}";
}
);
layerId = "89F00A14-383C-41A8-AF30-A12CE933D7AF";
width = 604;
},
{
background = {
paths = (
{
closed = 1;
nodes = (
"490 587 LINE",
"503 512 LINE",
"583 512 LINE",
"614 705 LINE",
"341 705 LINE",
"118 700 LINE",
"105 617 LINE",
"174 588 LINE",
"99 111 LINE",
"21 87 LINE",
"7 0 LINE",
"515 0 LINE",
"548 201 LINE",
"458 201 LINE",
"422 117 LINE",
"247 117 LINE",
"277 310 LINE",
"475 310 LINE",
"492 420 LINE",
"295 420 LINE",
"322 587 LINE"
);
},
{
closed = 1;
nodes = (
"417 845 LINE",
"544 745 LINE",
"600 810 LINE",
"470 954 LINE",
"383 947 LINE",
"211 810 LINE",
"253 745 LINE"
);
}
);
};
components = (
{
name = E;
},
{
name = circumflex;
transform = "{1, 0, 0, 1, 211, 123}";
}
);
layerId = "6959900B-8A08-4E04-B0F8-C63132552E7A";
width = 611;
}
);
leftKerningGroup = E;
rightKerningGroup = E;
unicode = 00CA;
},
{
glyphname = Emacron;
lastChange = "2016-08-18 14:48:36 +0000";
layers = (
{
components = (
{
name = E;
},
{
name = macron;
transform = "{1, 0, 0, 1, 265, 120}";
}
);
layerId = "89F00A14-383C-41A8-AF30-A12CE933D7AF";
width = 604;
},
{
background = {
paths = (
{
closed = 1;
nodes = (
"490 587 LINE",
"503 512 LINE",
"583 512 LINE",
"614 705 LINE",
"341 705 LINE",
"118 700 LINE",
"105 617 LINE",
"174 588 LINE",
"99 111 LINE",
"21 87 LINE",
"7 0 LINE",
"515 0 LINE",
"548 201 LINE",
"458 201 LINE",
"422 117 LINE",
"247 117 LINE",
"277 310 LINE",
"475 310 LINE",
"492 420 LINE",
"295 420 LINE",
"322 587 LINE"
);
},
{
closed = 1;
nodes = (
"252 796 LINE",
"543 796 LINE",
"561 901 LINE",
"270 901 LINE"
);
}
);
};
components = (
{
name = E;
},
{
name = macron;
transform = "{1, 0, 0, 1, 252, 154}";
}
);
layerId = "6959900B-8A08-4E04-B0F8-C63132552E7A";
width = 611;
}
);
leftKerningGroup = E;
rightKerningGroup = E;
unicode = 0112;
},
{
glyphname = Eogonek;
lastChange = "2016-08-18 14:48:36 +0000";
layers = (
{
components = (
{
name = E;
}
);
layerId = "89F00A14-383C-41A8-AF30-A12CE933D7AF";
paths = (
{
closed = 1;
nodes = (
"428 2 LINE",
"428 2 OFFCURVE",
"307 -55 OFFCURVE",
"307 -145 CURVE SMOOTH",
"307 -193 OFFCURVE",
"344 -220 OFFCURVE",
"392 -220 CURVE SMOOTH",
"431 -220 OFFCURVE",
"473 -200 OFFCURVE",
"473 -200 CURVE",
"471 -153 LINE",
"471 -153 OFFCURVE",
"445 -160 OFFCURVE",
"425 -160 CURVE SMOOTH",
"403 -160 OFFCURVE",
"387 -147 OFFCURVE",
"387 -124 CURVE SMOOTH",
"387 -67 OFFCURVE",
"505 0 OFFCURVE",
"505 0 CURVE"
);
}
);
width = 604;
},
{
background = {
paths = (
{
closed = 1;
nodes = (
"490 587 LINE",
"503 512 LINE",
"583 512 LINE",
"614 705 LINE",
"341 705 LINE",
"118 700 LINE",
"105 617 LINE",
"174 588 LINE",
"99 111 LINE",
"21 87 LINE",
"7 0 LINE",
"403 0 LINE",
"372 -16 OFFCURVE",
"278 -70 OFFCURVE",
"278 -152 CURVE SMOOTH",
"278 -206 OFFCURVE",
"319 -235 OFFCURVE",
"371 -235 CURVE SMOOTH",
"420 -235 OFFCURVE",
"473 -211 OFFCURVE",
"473 -211 CURVE",
"468 -140 LINE",
"468 -140 OFFCURVE",
"445 -147 OFFCURVE",
"428 -147 CURVE SMOOTH",
"407 -147 OFFCURVE",
"394 -135 OFFCURVE",
"394 -117 CURVE SMOOTH",
"394 -67 OFFCURVE",
"514 0 OFFCURVE",
"515 0 CURVE",
"548 201 LINE",
"458 201 LINE",
"422 117 LINE",
"247 117 LINE",
"277 310 LINE",
"475 310 LINE",
"492 420 LINE",
"295 420 LINE",
"322 587 LINE"
);
}
);
};
components = (
{
name = E;
}
);
layerId = "6959900B-8A08-4E04-B0F8-C63132552E7A";
paths = (
{
closed = 1;
nodes = (
"407 2 LINE",
"376 -14 OFFCURVE",
"278 -70 OFFCURVE",
"278 -152 CURVE SMOOTH",
"278 -206 OFFCURVE",
"319 -235 OFFCURVE",
"371 -235 CURVE SMOOTH",
"420 -235 OFFCURVE",
"473 -211 OFFCURVE",
"473 -211 CURVE",
"468 -140 LINE",
"468 -140 OFFCURVE",
"445 -147 OFFCURVE",
"428 -147 CURVE SMOOTH",
"407 -147 OFFCURVE",
"394 -135 OFFCURVE",
"394 -117 CURVE SMOOTH",
"394 -67 OFFCURVE",
"517 0 OFFCURVE",
"517 0 CURVE"
);
}
);
width = 611;
}
);
leftKerningGroup = E;
rightKerningGroup = E;
unicode = 0118;
},
{
glyphname = F;
lastChange = "2016-08-18 14:48:36 +0000";
layers = (
{
layerId = "89F00A14-383C-41A8-AF30-A12CE933D7AF";
paths = (
{
closed = 1;
nodes = (
"289 0 LINE",
"299 60 LINE",
"201 80 LINE",
"239 315 LINE",
"467 315 LINE",
"479 395 LINE",
"250 395 LINE",
"287 620 LINE",
"508 620 LINE",
"518 530 LINE",
"574 530 LINE",
"601 700 LINE",
"300 700 LINE",
"114 695 LINE",
"105 640 LINE",
"188 620 LINE",
"101 80 LINE",
"13 60 LINE",
"3 0 LINE"
);
}
);
width = 547;
},
{
layerId = "6959900B-8A08-4E04-B0F8-C63132552E7A";
paths = (
{
closed = 1;
nodes = (
"309 0 LINE",
"323 87 LINE",
"246 111 LINE",
"276 300 LINE",
"477 300 LINE",
"495 410 LINE",
"293 410 LINE",
"322 587 LINE",
"489 587 LINE",
"502 512 LINE",
"582 512 LINE",
"613 705 LINE",
"340 705 LINE",
"118 700 LINE",
"105 617 LINE",
"174 588 LINE",
"99 111 LINE",
"21 87 LINE",
"7 0 LINE"
);
}
);
width = 554;
}
);
leftKerningGroup = H;
rightKerningGroup = F;
unicode = 0046;
},
{
glyphname = G;
lastChange = "2016-08-18 14:48:36 +0000";
layers = (
{
layerId = "89F00A14-383C-41A8-AF30-A12CE933D7AF";
paths = (
{
closed = 1;
nodes = (
"450 -10 OFFCURVE",
"536 24 OFFCURVE",
"592 50 CURVE",
"627 270 LINE",
"704 285 LINE",
"714 345 LINE",
"454 340 LINE",
"445 285 LINE",
"530 270 LINE",
"503 103 LINE",
"463 88 OFFCURVE",
"415 76 OFFCURVE",
"348 76 CURVE SMOOTH",
"226 76 OFFCURVE",
"170 149 OFFCURVE",
"170 263 CURVE SMOOTH",
"170 448 OFFCURVE",
"275 625 OFFCURVE",
"435 625 CURVE SMOOTH",
"508 625 OFFCURVE",
"551 609 OFFCURVE",
"566 603 CURVE",
"578 499 LINE",
"636 499 LINE",
"663 660 LINE",
"663 660 OFFCURVE",
"562 710 OFFCURVE",
"452 710 CURVE SMOOTH",
"227 710 OFFCURVE",
"60 519 OFFCURVE",
"60 244 CURVE SMOOTH",
"60 92 OFFCURVE",
"158 -10 OFFCURVE",
"323 -10 CURVE SMOOTH"
);
}
);
width = 726;
},
{
layerId = "6959900B-8A08-4E04-B0F8-C63132552E7A";
paths = (
{
closed = 1;
nodes = (
"440 -12 OFFCURVE",
"535 25 OFFCURVE",
"596 59 CURVE",
"627 262 LINE",
"698 285 LINE",
"711 370 LINE",
"430 365 LINE",
"417 285 LINE",
"492 262 LINE",
"470 131 LINE",
"440 120 OFFCURVE",
"404 112 OFFCURVE",
"359 112 CURVE SMOOTH",
"272 112 OFFCURVE",
"215 170 OFFCURVE",
"215 277 CURVE SMOOTH",
"215 436 OFFCURVE",
"295 592 OFFCURVE",
"432 592 CURVE SMOOTH",
"489 592 OFFCURVE",
"544 575 OFFCURVE",
"544 575 CURVE",
"557 492 LINE",
"640 492 LINE",
"671 670 LINE",
"671 670 OFFCURVE",
"569 717 OFFCURVE",
"451 717 CURVE SMOOTH",
"221 717 OFFCURVE",
"55 525 OFFCURVE",
"55 249 CURVE SMOOTH",
"55 85 OFFCURVE",
"159 -12 OFFCURVE",
"319 -12 CURVE SMOOTH"
);
}
);
width = 716;
}
);
leftKerningGroup = O;
rightKerningGroup = G;
unicode = 0047;
},
{
glyphname = Gcircumflex;
lastChange = "2016-08-25 08:49:19 +0000";
layers = (
{
components = (
{
name = G;
},
{
name = circumflexcomb.case;
transform = "{1, 0, 0, 1, 308, 0}";
}
);
layerId = "89F00A14-383C-41A8-AF30-A12CE933D7AF";
width = 726;
},
{
background = {
paths = (
{
closed = 1;
nodes = (
"627 262 LINE",
"698 285 LINE",
"711 370 LINE",
"430 365 LINE",
"417 285 LINE",
"492 262 LINE",
"470 131 LINE",
"440 120 OFFCURVE",
"404 112 OFFCURVE",
"359 112 CURVE SMOOTH",
"272 112 OFFCURVE",
"215 170 OFFCURVE",
"215 277 CURVE SMOOTH",
"215 436 OFFCURVE",
"295 592 OFFCURVE",
"432 592 CURVE SMOOTH",
"489 592 OFFCURVE",
"544 575 OFFCURVE",
"544 575 CURVE",
"557 492 LINE",
"640 492 LINE",
"671 670 LINE",
"671 670 OFFCURVE",
"569 717 OFFCURVE",
"451 717 CURVE SMOOTH",
"221 717 OFFCURVE",
"55 525 OFFCURVE",
"55 249 CURVE SMOOTH",
"55 85 OFFCURVE",
"159 -12 OFFCURVE",
"319 -12 CURVE SMOOTH",
"440 -12 OFFCURVE",
"535 25 OFFCURVE",
"596 59 CURVE"
);
},
{
closed = 1;
nodes = (
"464 842 LINE",
"591 742 LINE",
"647 807 LINE",
"517 951 LINE",
"430 944 LINE",
"258 807 LINE",
"300 742 LINE"
);
}
);
};
components = (
{
name = G;
},
{
name = circumflex;
transform = "{1, 0, 0, 1, 258, 120}";
}
);
layerId = "6959900B-8A08-4E04-B0F8-C63132552E7A";
width = 716;
}
);
leftKerningGroup = O;
rightKerningGroup = G;
unicode = 011C;
},
{
glyphname = Gcommaaccent;
lastChange = "2016-08-18 14:50:22 +0000";
layers = (
{
background = {
paths = (
{
closed = 1;
nodes = (
"312 -230 OFFCURVE",
"380 -175 OFFCURVE",
"380 -105 CURVE SMOOTH",
"380 -71 OFFCURVE",
"359 -50 OFFCURVE",
"326 -50 CURVE SMOOTH",
"291 -50 OFFCURVE",
"260 -80 OFFCURVE",
"260 -120 CURVE SMOOTH",
"260 -145 OFFCURVE",
"270 -155 OFFCURVE",
"270 -173 CURVE SMOOTH",
"270 -193 OFFCURVE",
"217 -240 OFFCURVE",
"217 -240 CURVE",
"252 -280 LINE"
);
}
);
};
components = (
{
name = G;
},
{
name = commaaccentcomb;
transform = "{1, 0, 0, 1, 185, 0}";
}
);
layerId = "89F00A14-383C-41A8-AF30-A12CE933D7AF";
width = 726;
},
{
background = {
paths = (
{
closed = 1;
nodes = (
"262 -329 LINE",
"310 -286 OFFCURVE",
"400 -201 OFFCURVE",
"400 -115 CURVE SMOOTH",
"400 -75 OFFCURVE",
"380 -50 OFFCURVE",
"340 -50 CURVE SMOOTH",
"300 -50 OFFCURVE",
"261 -80 OFFCURVE",
"261 -130 CURVE SMOOTH",
"261 -158 OFFCURVE",
"273 -170 OFFCURVE",
"273 -189 CURVE SMOOTH",
"273 -223 OFFCURVE",
"242 -248 OFFCURVE",
"212 -276 CURVE"
);
}
);
};
components = (
{
name = G;
},
{
name = commaaccentcomb;
transform = "{1, 0, 0, 1, 199, 0}";
}
);
layerId = "6959900B-8A08-4E04-B0F8-C63132552E7A";
width = 716;
}
);
leftKerningGroup = O;
rightKerningGroup = G;
unicode = 0122;
},
{
glyphname = H;
lastChange = "2016-08-18 14:48:36 +0000";
layers = (
{
layerId = "89F00A14-383C-41A8-AF30-A12CE933D7AF";
paths = (
{
closed = 1;
nodes = (
"271 0 LINE",
"281 60 LINE",
"194 80 LINE",
"232 320 LINE",
"558 320 LINE",
"519 79 LINE",
"425 60 LINE",
"415 0 LINE",
"693 0 LINE",
"703 60 LINE",
"619 80 LINE",
"706 620 LINE",
"793 640 LINE",
"803 700 LINE",
"524 695 LINE",
"515 640 LINE",
"606 620 LINE",
"571 400 LINE",
"245 400 LINE",
"281 620 LINE",
"373 640 LINE",
"383 700 LINE",
"108 695 LINE",
"99 640 LINE",
"181 620 LINE",
"94 79 LINE",
"8 60 LINE",
"-2 0 LINE"
);
}
);
width = 775;
},
{
layerId = "6959900B-8A08-4E04-B0F8-C63132552E7A";
paths = (
{
closed = 1;
nodes = (
"294 0 LINE",
"308 87 LINE",
"238 111 LINE",
"269 305 LINE",
"524 305 LINE",
"493 111 LINE",
"415 87 LINE",
"401 0 LINE",
"700 0 LINE",
"714 87 LINE",
"643 111 LINE",
"719 587 LINE",
"797 617 LINE",
"811 705 LINE",
"511 700 LINE",
"498 617 LINE",
"569 588 LINE",
"542 422 LINE",
"287 422 LINE",
"314 587 LINE",
"392 617 LINE",
"406 705 LINE",
"108 700 LINE",
"95 617 LINE",
"164 588 LINE",
"88 111 LINE",
"11 87 LINE",
"-3 0 LINE"
);
}
);
width = 783;
}
);
unicode = 0048;
},
{
glyphname = Hbar;
lastChange = "2016-08-18 14:48:36 +0000";
layers = (
{
layerId = "89F00A14-383C-41A8-AF30-A12CE933D7AF";
paths = (
{
closed = 1;
nodes = (
"86 485 LINE",
"169 485 LINE",
"104 80 LINE",
"18 60 LINE",
"8 0 LINE",
"281 0 LINE",
"291 60 LINE",
"204 80 LINE",
"243 320 LINE",
"568 320 LINE",
"530 80 LINE",
"436 60 LINE",
"425 0 LINE",
"704 0 LINE",
"713 60 LINE",
"630 80 LINE",
"694 485 LINE",
"778 485 LINE",
"790 560 LINE",
"706 560 LINE",
"716 620 LINE",
"802 640 LINE",
"811 700 LINE",
"534 695 LINE",
"526 640 LINE",
"616 620 LINE",
"606 560 LINE",
"281 560 LINE",
"291 620 LINE",
"385 640 LINE",
"394 700 LINE",
"119 695 LINE",
"110 640 LINE",
"190 620 LINE",
"181 560 LINE",
"97 560 LINE"
);
},
{
closed = 1;
nodes = (
"256 400 LINE",
"268 485 LINE",
"595 485 LINE",
"581 400 LINE"
);
}
);
width = 796;
},
{
layerId = "6959900B-8A08-4E04-B0F8-C63132552E7A";
paths = (
{
closed = 1;
nodes = (
"77 474 LINE",
"151 474 LINE",
"93 111 LINE",
"16 87 LINE",
"2 0 LINE",
"296 0 LINE",
"310 87 LINE",
"240 111 LINE",
"271 305 LINE",
"526 305 LINE",
"495 111 LINE",
"417 87 LINE",
"403 0 LINE",
"699 0 LINE",
"713 87 LINE",
"642 111 LINE",
"700 474 LINE",
"775 474 LINE",
"789 564 LINE",
"714 564 LINE",
"718 587 LINE",
"796 617 LINE",
"810 705 LINE",
"513 700 LINE",
"500 617 LINE",
"571 588 LINE",
"567 564 LINE",
"312 564 LINE",
"316 587 LINE",
"394 617 LINE",
"408 705 LINE",
"113 700 LINE",
"100 617 LINE",
"169 588 LINE",
"165 564 LINE",
"91 564 LINE"
);
},
{
closed = 1;
nodes = (
"289 422 LINE",
"297 474 LINE",
"552 474 LINE",
"544 422 LINE"
);
}
);
width = 788;
}
);
leftKerningGroup = H;
rightKerningGroup = H;
unicode = 0126;
},
{
glyphname = Hcircumflex;
lastChange = "2016-08-25 08:49:19 +0000";
layers = (
{
components = (
{
name = H;
},
{
name = circumflexcomb.case;
transform = "{1, 0, 0, 1, 310, 0}";
}
);
layerId = "89F00A14-383C-41A8-AF30-A12CE933D7AF";
width = 775;
},
{
background = {
paths = (
{
closed = 1;
nodes = (
"637 111 LINE",
"713 587 LINE",
"791 617 LINE",
"805 705 LINE",
"508 700 LINE",
"495 617 LINE",
"566 588 LINE",
"539 422 LINE",
"284 422 LINE",
"311 587 LINE",
"389 617 LINE",
"403 705 LINE",
"108 700 LINE",
"95 617 LINE",
"164 588 LINE",
"88 111 LINE",
"11 87 LINE",
"-3 0 LINE",
"291 0 LINE",
"305 87 LINE",
"235 111 LINE",
"266 305 LINE",
"521 305 LINE",
"490 111 LINE",
"412 87 LINE",
"398 0 LINE",
"694 0 LINE",
"708 87 LINE"
);
},
{
closed = 1;
nodes = (
"476 842 LINE",
"603 742 LINE",
"659 807 LINE",
"529 951 LINE",
"442 944 LINE",
"270 807 LINE",
"312 742 LINE"
);
}
);
};
components = (
{
name = H;
},
{
name = circumflex;
transform = "{1, 0, 0, 1, 275, 120}";
}
);
layerId = "6959900B-8A08-4E04-B0F8-C63132552E7A";
width = 783;
}
);
leftKerningGroup = H;
rightKerningGroup = H;
unicode = 0124;
},
{
glyphname = I;
lastChange = "2016-09-30 17:05:21 +0000";
layers = (
{
anchors = (
{
name = bottom;
position = "{140, 0}";
},
{
name = ogonek;
position = "{285, 10}";
},
{
name = top;
position = "{251, 700}";
},
{
name = topleft;
position = "{89, 700}";
}
);
layerId = "89F00A14-383C-41A8-AF30-A12CE933D7AF";
paths = (
{
closed = 1;
nodes = (
"276 0 LINE",
"286 60 LINE",
"202 80 LINE",
"289 620 LINE",
"377 640 LINE",
"387 700 LINE",
"114 695 LINE",
"105 640 LINE",
"189 620 LINE",
"103 80 LINE",
"13 60 LINE",
"3 0 LINE"
);
}
);
width = 363;
},
{
anchors = (
{
name = bottom;
position = "{146, 0}";
},
{
name = ogonek;
position = "{297, 10}";
},
{
name = top;
position = "{258, 705}";
},
{
name = topleft;
position = "{89, 705}";
}
);
layerId = "6959900B-8A08-4E04-B0F8-C63132552E7A";
paths = (
{
closed = 1;
nodes = (
"295 0 LINE",
"309 87 LINE",
"239 111 LINE",
"315 587 LINE",
"393 617 LINE",
"407 705 LINE",
"109 700 LINE",
"96 617 LINE",
"165 588 LINE",
"89 111 LINE",
"11 87 LINE",
"-3 0 LINE"
);
}
);
width = 378;
}
);
leftKerningGroup = I;
rightKerningGroup = I;
unicode = 0049;
},
{
glyphname = IJ;
lastChange = "2016-08-18 14:48:36 +0000";
layers = (
{
layerId = "89F00A14-383C-41A8-AF30-A12CE933D7AF";
paths = (
{
closed = 1;
nodes = (
"412 -150 OFFCURVE",
"491 -75 OFFCURVE",
"510 45 CURVE SMOOTH",
"602 620 LINE",
"689 640 LINE",
"699 700 LINE",
"114 695 LINE",
"105 640 LINE",
"189 620 LINE",
"103 80 LINE",
"13 60 LINE",
"3 0 LINE",
"276 0 LINE",
"286 60 LINE",
"202 80 LINE",
"289 620 LINE",
"397 640 LINE",
"502 620 LINE",
"407 25 LINE",
"398 -35 OFFCURVE",
"366 -70 OFFCURVE",
"303 -70 CURVE SMOOTH",
"254 -70 LINE",
"233 -145 LINE",
"233 -145 OFFCURVE",
"271 -150 OFFCURVE",
"295 -150 CURVE SMOOTH"
);
}
);
width = 665;
},
{
layerId = "6959900B-8A08-4E04-B0F8-C63132552E7A";
paths = (
{
closed = 1;
nodes = (
"497 -157 OFFCURVE",
"560 -70 OFFCURVE",
"588 102 CURVE SMOOTH",
"666 587 LINE",
"744 617 LINE",
"758 705 LINE",
"109 700 LINE",
"96 617 LINE",
"165 588 LINE",
"89 111 LINE",
"11 87 LINE",
"-3 0 LINE",
"290 0 LINE",
"304 87 LINE",
"239 111 LINE",
"315 587 LINE",
"413 617 LINE",
"518 588 LINE",
"432 46 LINE SMOOTH",
"422 -16 OFFCURVE",
"386 -50 OFFCURVE",
"332 -50 CURVE SMOOTH",
"285 -50 LINE",
"256 -150 LINE",
"256 -150 OFFCURVE",
"298 -157 OFFCURVE",
"329 -157 CURVE SMOOTH"
);
}
);
width = 709;
}
);
rightKerningGroup = J;
unicode = 0132;
},
{
glyphname = Icircumflex;
lastChange = "2016-08-18 14:48:36 +0000";
layers = (
{
components = (
{
name = I;
}
);
layerId = "89F00A14-383C-41A8-AF30-A12CE933D7AF";
paths = (
{
closed = 1;
nodes = (
"280 833 LINE",
"390 750 LINE",
"437 795 LINE",
"319 910 LINE",
"260 905 LINE",
"104 795 LINE",
"136 750 LINE"
);
}
);
width = 363;
},
{
components = (
{
name = I;
}
);
layerId = "6959900B-8A08-4E04-B0F8-C63132552E7A";
paths = (
{
closed = 1;
nodes = (
"284 842 LINE",
"399 742 LINE",
"455 807 LINE",
"337 951 LINE",
"250 944 LINE",
"90 807 LINE",
"132 742 LINE"
);
}
);
width = 380;
}
);
leftKerningGroup = I;
rightKerningGroup = I;
unicode = 00CE;
},
{
glyphname = Idieresis;
lastChange = "2016-08-18 14:48:36 +0000";
layers = (
{
components = (
{
name = I;
}
);
layerId = "89F00A14-383C-41A8-AF30-A12CE933D7AF";
paths = (
{
closed = 1;
nodes = (
"317 782 OFFCURVE",
"334 765 OFFCURVE",
"362 765 CURVE SMOOTH",
"399 765 OFFCURVE",
"427 799 OFFCURVE",
"427 839 CURVE SMOOTH",
"427 868 OFFCURVE",
"410 885 OFFCURVE",
"381 885 CURVE SMOOTH",
"342 885 OFFCURVE",
"317 850 OFFCURVE",
"317 810 CURVE SMOOTH"
);
},
{
closed = 1;
nodes = (
"125 782 OFFCURVE",
"142 765 OFFCURVE",
"170 765 CURVE SMOOTH",
"207 765 OFFCURVE",
"235 799 OFFCURVE",
"235 839 CURVE SMOOTH",
"235 868 OFFCURVE",
"218 885 OFFCURVE",
"189 885 CURVE SMOOTH",
"150 885 OFFCURVE",
"125 850 OFFCURVE",
"125 810 CURVE SMOOTH"
);
}
);
width = 363;
},
{
components = (
{
name = I;
transform = "{1, 0, 0, 1, 1, 0}";
}
);
layerId = "6959900B-8A08-4E04-B0F8-C63132552E7A";
paths = (
{
closed = 1;
nodes = (
"323 793 OFFCURVE",
"346 770 OFFCURVE",
"383 770 CURVE SMOOTH",
"436 770 OFFCURVE",
"467 814 OFFCURVE",
"467 865 CURVE SMOOTH",
"467 903 OFFCURVE",
"443 926 OFFCURVE",
"405 926 CURVE SMOOTH",
"352 926 OFFCURVE",
"323 881 OFFCURVE",
"323 830 CURVE SMOOTH"
);
},
{
closed = 1;
nodes = (
"110 793 OFFCURVE",
"133 770 OFFCURVE",
"170 770 CURVE SMOOTH",
"223 770 OFFCURVE",
"255 814 OFFCURVE",
"255 865 CURVE SMOOTH",
"255 903 OFFCURVE",
"231 926 OFFCURVE",
"193 926 CURVE SMOOTH",
"139 926 OFFCURVE",
"110 881 OFFCURVE",
"110 830 CURVE SMOOTH"
);
}
);
width = 379;
}
);
leftKerningGroup = I;
rightKerningGroup = I;
unicode = 00CF;
},
{
glyphname = Imacron;
lastChange = "2016-08-18 14:48:36 +0000";
layers = (
{
components = (
{
name = I;
},
{
name = macron;
transform = "{1, 0, 0, 1, 134, 120}";
}
);
layerId = "89F00A14-383C-41A8-AF30-A12CE933D7AF";
width = 363;
},
{
background = {
paths = (
{
closed = 1;
nodes = (
"129 796 LINE",
"420 796 LINE",
"438 901 LINE",
"147 901 LINE"
);
}
);
};
components = (
{
name = I;
},
{
name = macron;
transform = "{1, 0, 0, 1, 129, 154}";
}
);
layerId = "6959900B-8A08-4E04-B0F8-C63132552E7A";
width = 378;
}
);
leftKerningGroup = I;
rightKerningGroup = I;
unicode = 012A;
},
{
glyphname = Iogonek;
lastChange = "2016-08-18 14:48:36 +0000";
layers = (
{
components = (
{
name = I;
}
);
layerId = "89F00A14-383C-41A8-AF30-A12CE933D7AF";
paths = (
{
closed = 1;
nodes = (
"155 0 LINE",
"125 -14 OFFCURVE",
"24 -55 OFFCURVE",
"24 -145 CURVE SMOOTH",
"24 -193 OFFCURVE",
"61 -220 OFFCURVE",
"109 -220 CURVE SMOOTH",
"148 -220 OFFCURVE",
"190 -200 OFFCURVE",
"190 -200 CURVE",
"188 -153 LINE",
"188 -153 OFFCURVE",
"162 -160 OFFCURVE",
"142 -160 CURVE SMOOTH",
"120 -160 OFFCURVE",
"104 -147 OFFCURVE",
"104 -124 CURVE SMOOTH",
"104 -57 OFFCURVE",
"235 -13 OFFCURVE",
"276 0 CURVE"
);
}
);
width = 363;
},
{
background = {
paths = (
{
closed = 1;
nodes = (
"239 111 LINE",
"315 587 LINE",
"393 617 LINE",
"407 705 LINE",
"109 700 LINE",
"96 617 LINE",
"165 588 LINE",
"89 111 LINE",
"11 87 LINE",
"-3 0 LINE",
"159 0 LINE",
"125 -17 OFFCURVE",
"25 -68 OFFCURVE",
"25 -152 CURVE SMOOTH",
"25 -206 OFFCURVE",
"66 -235 OFFCURVE",
"118 -235 CURVE SMOOTH",
"167 -235 OFFCURVE",
"220 -211 OFFCURVE",
"220 -211 CURVE",
"215 -140 LINE",
"215 -140 OFFCURVE",
"192 -147 OFFCURVE",
"175 -147 CURVE SMOOTH",
"154 -147 OFFCURVE",
"141 -135 OFFCURVE",
"141 -117 CURVE SMOOTH",
"141 -68 OFFCURVE",
"287 -3 OFFCURVE",
"295 0 CURVE",
"309 87 LINE"
);
}
);
};
components = (
{
name = I;
}
);
guideLines = (
{
position = "{94, 87}";
}
);
layerId = "6959900B-8A08-4E04-B0F8-C63132552E7A";
paths = (
{
closed = 1;
nodes = (
"160 2 LINE",
"129 -14 OFFCURVE",
"25 -70 OFFCURVE",
"25 -152 CURVE SMOOTH",
"25 -206 OFFCURVE",
"66 -235 OFFCURVE",
"118 -235 CURVE SMOOTH",
"167 -235 OFFCURVE",
"220 -211 OFFCURVE",
"220 -211 CURVE",
"215 -140 LINE",
"215 -140 OFFCURVE",
"192 -147 OFFCURVE",
"175 -147 CURVE SMOOTH",
"154 -147 OFFCURVE",
"141 -135 OFFCURVE",
"141 -117 CURVE SMOOTH",
"141 -65 OFFCURVE",
"253 -18 OFFCURVE",
"295 0 CURVE"
);
}
);
width = 378;
}
);
leftKerningGroup = I;
rightKerningGroup = I;
unicode = 012E;
},
{
glyphname = Itilde;
lastChange = "2016-09-30 17:27:38 +0000";
layers = (
{
components = (
{
name = I;
}
);
layerId = "89F00A14-383C-41A8-AF30-A12CE933D7AF";
paths = (
{
closed = 1;
nodes = (
"104 766 OFFCURVE",
"144 810 OFFCURVE",
"178 810 CURVE SMOOTH",
"237 810 OFFCURVE",
"266 766 OFFCURVE",
"334 766 CURVE SMOOTH",
"403 766 OFFCURVE",
"450 856 OFFCURVE",
"450 856 CURVE",
"420 886 LINE",
"420 886 OFFCURVE",
"392 844 OFFCURVE",
"352 844 CURVE SMOOTH",
"294 844 OFFCURVE",
"264 890 OFFCURVE",
"196 890 CURVE SMOOTH",
"132 890 OFFCURVE",
"75 796 OFFCURVE",
"75 796 CURVE",
"104 766 LINE"
);
}
);
width = 363;
},
{
components = (
{
name = I;
}
);
layerId = "6959900B-8A08-4E04-B0F8-C63132552E7A";
paths = (
{
closed = 1;
nodes = (
"105 780 OFFCURVE",
"142 821 OFFCURVE",
"183 821 CURVE SMOOTH",
"241 821 OFFCURVE",
"280 777 OFFCURVE",
"348 777 CURVE SMOOTH",
"427 777 OFFCURVE",
"486 886 OFFCURVE",
"486 886 CURVE",
"441 925 LINE",
"441 925 OFFCURVE",
"406 883 OFFCURVE",
"368 883 CURVE SMOOTH",
"310 883 OFFCURVE",
"276 928 OFFCURVE",
"208 928 CURVE SMOOTH",
"128 928 OFFCURVE",
"67 821 OFFCURVE",
"67 821 CURVE",
"105 780 LINE"
);
}
);
width = 379;
}
);
leftKerningGroup = I;
rightKerningGroup = I;
unicode = 0128;
},
{
glyphname = J;
lastChange = "2016-08-18 14:48:36 +0000";
layers = (
{
layerId = "89F00A14-383C-41A8-AF30-A12CE933D7AF";
paths = (
{
closed = 1;
nodes = (
"94 -150 OFFCURVE",
"173 -75 OFFCURVE",
"192 45 CURVE SMOOTH",
"284 620 LINE",
"371 640 LINE",
"381 700 LINE",
"108 695 LINE",
"99 640 LINE",
"184 620 LINE",
"89 25 LINE",
"79 -35 OFFCURVE",
"48 -70 OFFCURVE",
"-15 -70 CURVE SMOOTH",
"-64 -70 LINE",
"-85 -145 LINE",
"-85 -145 OFFCURVE",
"-47 -150 OFFCURVE",
"-23 -150 CURVE SMOOTH"
);
}
);
width = 347;
},
{
layerId = "6959900B-8A08-4E04-B0F8-C63132552E7A";
paths = (
{
closed = 1;
nodes = (
"154 -157 OFFCURVE",
"219 -70 OFFCURVE",
"247 102 CURVE SMOOTH",
"325 587 LINE",
"403 617 LINE",
"417 705 LINE",
"119 700 LINE",
"106 617 LINE",
"175 588 LINE",
"89 46 LINE SMOOTH",
"79 -16 OFFCURVE",
"43 -50 OFFCURVE",
"-11 -50 CURVE SMOOTH",
"-58 -50 LINE",
"-87 -150 LINE",
"-87 -150 OFFCURVE",
"-45 -157 OFFCURVE",
"-14 -157 CURVE SMOOTH"
);
}
);
width = 368;
}
);
leftKerningGroup = J;
rightKerningGroup = J;
unicode = 004A;
},
{
glyphname = Jcircumflex;
lastChange = "2016-08-18 14:48:36 +0000";
layers = (
{
components = (
{
name = J;
}
);
layerId = "89F00A14-383C-41A8-AF30-A12CE933D7AF";
paths = (
{
closed = 1;
nodes = (
"265 833 LINE",
"375 750 LINE",
"422 795 LINE",
"304 910 LINE",
"245 905 LINE",
"89 795 LINE",
"121 750 LINE"
);
}
);
width = 347;
},
{
components = (
{
name = J;
}
);
layerId = "6959900B-8A08-4E04-B0F8-C63132552E7A";
paths = (
{
closed = 1;
nodes = (
"293 842 LINE",
"408 742 LINE",
"464 807 LINE",
"346 951 LINE",
"259 944 LINE",
"99 807 LINE",
"141 742 LINE"
);
}
);
width = 369;
}
);
leftKerningGroup = J;
rightKerningGroup = J;
unicode = 0134;
},
{
glyphname = K;
lastChange = "2016-08-25 14:28:26 +0000";
layers = (
{
layerId = "89F00A14-383C-41A8-AF30-A12CE933D7AF";
paths = (
{
closed = 1;
nodes = (
"276 0 LINE",
"286 60 LINE",
"201 80 LINE",
"239 320 LINE",
"341 320 LINE",
"471 79 LINE",
"392 60 LINE",
"382 0 LINE",
"642 0 LINE",
"652 60 LINE",
"581 80 LINE",
"424 367 LINE",
"613 620 LINE",
"698 640 LINE",
"708 700 LINE",
"560 695 LINE",
"344 400 LINE",
"252 400 LINE",
"288 620 LINE",
"377 640 LINE",
"387 700 LINE",
"113 695 LINE",
"104 640 LINE",
"188 620 LINE",
"101 80 LINE",
"13 60 LINE",
"3 0 LINE"
);
}
);
width = 684;
},
{
layerId = "6959900B-8A08-4E04-B0F8-C63132552E7A";
paths = (
{
closed = 1;
nodes = (
"295 0 LINE",
"309 87 LINE",
"241 111 LINE",
"272 305 LINE",
"344 305 LINE",
"447 108 LINE",
"390 87 LINE",
"376 0 LINE",
"662 0 LINE",
"676 87 LINE",
"610 110 LINE",
"468 367 LINE",
"637 587 LINE",
"713 617 LINE",
"727 705 LINE",
"562 700 LINE",
"354 415 LINE",
"289 415 LINE",
"316 588 LINE",
"393 617 LINE",
"407 705 LINE",
"113 700 LINE",
"100 617 LINE",
"169 588 LINE",
"94 111 LINE",
"16 87 LINE",
"2 0 LINE"
);
}
);
width = 705;
}
);
rightKerningGroup = K;
unicode = 004B;
},
{
glyphname = Kcommaaccent;
lastChange = "2016-08-18 14:50:22 +0000";
layers = (
{
components = (
{
name = K;
},
{
name = commaaccentcomb;
transform = "{1, 0, 0, 1, 178, 0}";
}
);
layerId = "89F00A14-383C-41A8-AF30-A12CE933D7AF";
width = 649;
},
{
background = {
paths = (
{
closed = 1;
nodes = (
"605 110 LINE",
"463 367 LINE",
"632 587 LINE",
"708 617 LINE",
"722 705 LINE",
"557 700 LINE",
"349 415 LINE",
"284 415 LINE",
"311 588 LINE",
"388 617 LINE",
"402 705 LINE",
"108 700 LINE",
"95 617 LINE",
"164 588 LINE",
"89 111 LINE",
"11 87 LINE",
"-3 0 LINE",
"290 0 LINE",
"304 87 LINE",
"236 111 LINE",
"267 305 LINE",
"339 305 LINE",
"442 108 LINE",
"385 87 LINE",
"371 0 LINE",
"657 0 LINE",
"671 87 LINE"
);
},
{
closed = 1;
nodes = (
"230 -329 LINE",
"278 -286 OFFCURVE",
"368 -201 OFFCURVE",
"368 -115 CURVE SMOOTH",
"368 -75 OFFCURVE",
"348 -50 OFFCURVE",
"308 -50 CURVE SMOOTH",
"268 -50 OFFCURVE",
"229 -80 OFFCURVE",
"229 -130 CURVE SMOOTH",
"229 -158 OFFCURVE",
"241 -170 OFFCURVE",
"241 -189 CURVE SMOOTH",
"241 -223 OFFCURVE",
"210 -248 OFFCURVE",
"180 -276 CURVE"
);
}
);
};
components = (
{
name = K;
},
{
name = commaaccentcomb;
transform = "{1, 0, 0, 1, 167, 0}";
}
);
layerId = "6959900B-8A08-4E04-B0F8-C63132552E7A";
width = 670;
}
);
leftKerningGroup = K;
rightKerningGroup = K;
unicode = 0136;
},
{
glyphname = L;
lastChange = "2016-08-18 14:48:36 +0000";
layers = (
{
layerId = "89F00A14-383C-41A8-AF30-A12CE933D7AF";
paths = (
{
closed = 1;
nodes = (
"472 0 LINE",
"505 195 LINE",
"437 195 LINE",
"398 80 LINE",
"192 80 LINE",
"278 620 LINE",
"372 640 LINE",
"382 700 LINE",
"103 695 LINE",
"95 640 LINE",
"178 620 LINE",
"92 80 LINE",
"3 60 LINE",
"-7 0 LINE"
);
}
);
width = 521;
},
{
layerId = "6959900B-8A08-4E04-B0F8-C63132552E7A";
paths = (
{
closed = 1;
nodes = (
"480 0 LINE",
"518 230 LINE",
"426 230 LINE",
"386 120 LINE",
"234 120 LINE",
"309 588 LINE",
"390 617 LINE",
"404 705 LINE",
"103 700 LINE",
"90 617 LINE",
"159 588 LINE",
"84 111 LINE",
"6 87 LINE",
"-8 0 LINE"
);
}
);
width = 529;
}
);
leftKerningGroup = H;
rightKerningGroup = L;
unicode = 004C;
},
{
glyphname = Lcaron;
lastChange = "2016-08-25 08:49:27 +0000";
layers = (
{
background = {
paths = (
{
closed = 1;
nodes = (
"493 695 LINE",
"486 635 OFFCURVE",
"463 574 OFFCURVE",
"418 485 CURVE",
"471 465 LINE",
"534 561 OFFCURVE",
"579 640 OFFCURVE",
"589 700 CURVE"
);
}
);
};
components = (
{
name = L;
},
{
name = caroncomb;
transform = "{1, 0, 0, 1, 377, -80}";
}
);
layerId = "89F00A14-383C-41A8-AF30-A12CE933D7AF";
width = 521;
},
{
components = (
{
name = L;
},
{
name = caroncomb;
transform = "{1, 0, 0, 1, 372, -75}";
}
);
layerId = "6959900B-8A08-4E04-B0F8-C63132552E7A";
paths = (
{
closed = 0;
nodes = (
"231 589 LINE"
);
}
);
width = 554;
}
);
leftKerningGroup = H;
unicode = 013D;
},
{
glyphname = Lcommaaccent;
lastChange = "2016-08-18 14:50:22 +0000";
layers = (
{
components = (
{
name = L;
},
{
name = commaaccentcomb;
transform = "{1, 0, 0, 1, 110, 0}";
}
);
layerId = "89F00A14-383C-41A8-AF30-A12CE933D7AF";
width = 521;
},
{
background = {
paths = (
{
closed = 1;
nodes = (
"307 588 LINE",
"388 617 LINE",
"402 705 LINE",
"103 700 LINE",
"90 617 LINE",
"159 588 LINE",
"84 111 LINE",
"6 87 LINE",
"-8 0 LINE",
"478 0 LINE",
"516 230 LINE",
"424 230 LINE",
"384 117 LINE",
"232 117 LINE"
);
},
{
closed = 1;
nodes = (
"156 -329 LINE",
"204 -286 OFFCURVE",
"294 -201 OFFCURVE",
"294 -115 CURVE SMOOTH",
"294 -75 OFFCURVE",
"274 -50 OFFCURVE",
"234 -50 CURVE SMOOTH",
"194 -50 OFFCURVE",
"155 -80 OFFCURVE",
"155 -130 CURVE SMOOTH",
"155 -158 OFFCURVE",
"167 -170 OFFCURVE",
"167 -189 CURVE SMOOTH",
"167 -223 OFFCURVE",
"136 -248 OFFCURVE",
"106 -276 CURVE"
);
}
);
};
components = (
{
name = L;
},
{
name = commaaccentcomb;
transform = "{1, 0, 0, 1, 91, 0}";
}
);
layerId = "6959900B-8A08-4E04-B0F8-C63132552E7A";
width = 529;
}
);
leftKerningGroup = H;
rightKerningGroup = L;
unicode = 013B;
},
{
glyphname = Ldot;
lastChange = "2016-08-18 14:48:36 +0000";
layers = (
{
components = (
{
name = L;
},
{
name = periodcentered;
transform = "{1, 0, 0, 1, 250, 55}";
}
);
layerId = "89F00A14-383C-41A8-AF30-A12CE933D7AF";
width = 521;
},
{
background = {
paths = (
{
closed = 1;
nodes = (
"307 588 LINE",
"388 617 LINE",
"402 705 LINE",
"103 700 LINE",
"90 617 LINE",
"159 588 LINE",
"84 111 LINE",
"6 87 LINE",
"-8 0 LINE",
"478 0 LINE",
"516 230 LINE",
"424 230 LINE",
"384 117 LINE",
"232 117 LINE"
);
}
);
};
components = (
{
name = L;
},
{
name = periodcentered;
transform = "{0.864, 0, 0, 0.864, 294, 136}";
}
);
layerId = "6959900B-8A08-4E04-B0F8-C63132552E7A";
width = 529;
}
);
leftKerningGroup = H;
rightKerningGroup = L;
unicode = 013F;
},
{
glyphname = Lslash;
lastChange = "2016-08-18 14:48:36 +0000";
layers = (
{
components = (
{
name = L;
transform = "{1, 0, 0, 1, 9, 0}";
}
);
layerId = "89F00A14-383C-41A8-AF30-A12CE933D7AF";
paths = (
{
closed = 1;
nodes = (
"455 397 LINE",
"446 472 LINE",
"32 308 LINE",
"41 233 LINE"
);
}
);
width = 535;
},
{
background = {
paths = (
{
closed = 1;
nodes = (
"331 588 LINE",
"412 617 LINE",
"426 705 LINE",
"127 700 LINE",
"114 617 LINE",
"183 588 LINE",
"147 360 LINE",
"26 312 LINE",
"37 217 LINE",
"130 254 LINE",
"108 111 LINE",
"30 87 LINE",
"16 0 LINE",
"502 0 LINE",
"540 230 LINE",
"448 230 LINE",
"408 117 LINE",
"256 117 LINE",
"288 316 LINE",
"464 387 LINE",
"453 482 LINE",
"305 423 LINE"
);
}
);
};
components = (
{
name = L;
}
);
layerId = "6959900B-8A08-4E04-B0F8-C63132552E7A";
paths = (
{
closed = 1;
nodes = (
"464 387 LINE",
"453 482 LINE",
"26 312 LINE",
"37 217 LINE"
);
}
);
width = 529;
}
);
leftKerningGroup = H;
rightKerningGroup = L;
unicode = 0141;
},
{
glyphname = M;
lastChange = "2016-08-18 14:48:36 +0000";
layers = (
{
layerId = "89F00A14-383C-41A8-AF30-A12CE933D7AF";
paths = (
{
closed = 1;
nodes = (
"267 0 LINE",
"277 60 LINE",
"189 80 LINE",
"266 560 LINE",
"379 175 LINE",
"461 180 LINE",
"695 556 LINE",
"619 80 LINE",
"535 60 LINE",
"525 0 LINE",
"788 0 LINE",
"798 60 LINE",
"718 80 LINE",
"803 620 LINE",
"888 640 LINE",
"898 700 LINE",
"689 695 LINE",
"445 299 LINE",
"326 700 LINE",
"109 695 LINE",
"100 640 LINE",
"183 620 LINE",
"96 80 LINE",
"8 60 LINE",
"-2 0 LINE"
);
}
);
width = 870;
},
{
layerId = "6959900B-8A08-4E04-B0F8-C63132552E7A";
paths = (
{
closed = 1;
nodes = (
"270 0 LINE",
"284 87 LINE",
"214 111 LINE",
"270 464 LINE",
"353 176 LINE",
"461 183 LINE",
"636 468 LINE",
"580 112 LINE",
"506 87 LINE",
"492 0 LINE",
"775 0 LINE",
"789 87 LINE",
"720 112 LINE",
"795 587 LINE",
"872 617 LINE",
"887 705 LINE",
"650 700 LINE",
"447 367 LINE",
"351 705 LINE",
"103 700 LINE",
"90 617 LINE",
"159 588 LINE",
"83 111 LINE",
"6 87 LINE",
"-8 0 LINE"
);
}
);
width = 853;
}
);
leftKerningGroup = H;
rightKerningGroup = H;
unicode = 004D;
},
{
glyphname = N;
lastChange = "2016-08-18 14:48:36 +0000";
layers = (
{
layerId = "89F00A14-383C-41A8-AF30-A12CE933D7AF";
paths = (
{
closed = 1;
nodes = (
"258 0 LINE",
"269 60 LINE",
"187 80 LINE",
"264 563 LINE",
"508 0 LINE",
"621 0 LINE",
"719 620 LINE",
"804 640 LINE",
"814 700 LINE",
"559 695 LINE",
"550 640 LINE",
"630 620 LINE",
"554 141 LINE",
"320 700 LINE",
"110 695 LINE",
"101 640 LINE",
"184 620 LINE",
"98 80 LINE",
"9 60 LINE",
"-2 0 LINE"
);
}
);
width = 780;
},
{
layerId = "6959900B-8A08-4E04-B0F8-C63132552E7A";
paths = (
{
closed = 1;
nodes = (
"270 0 LINE",
"284 87 LINE",
"217 111 LINE",
"274 464 LINE",
"467 0 LINE",
"622 0 LINE",
"715 588 LINE",
"792 617 LINE",
"806 705 LINE",
"529 700 LINE",
"516 617 LINE",
"581 588 LINE",
"526 239 LINE",
"335 705 LINE",
"103 700 LINE",
"90 617 LINE",
"159 588 LINE",
"84 111 LINE",
"6 87 LINE",
"-8 0 LINE"
);
}
);
width = 767;
}
);
leftKerningGroup = H;
rightKerningGroup = H;
unicode = 004E;
},
{
glyphname = Ncommaaccent;
lastChange = "2016-08-18 14:50:22 +0000";
layers = (
{
components = (
{
name = N;
},
{
name = commaaccentcomb;
transform = "{1, 0, 0, 1, 212, 0}";
}
);
layerId = "89F00A14-383C-41A8-AF30-A12CE933D7AF";
width = 780;
},
{
background = {
paths = (
{
closed = 1;
nodes = (
"284 87 LINE",
"217 111 LINE",
"274 464 LINE",
"467 0 LINE",
"622 0 LINE",
"715 588 LINE",
"792 617 LINE",
"806 705 LINE",
"529 700 LINE",
"516 617 LINE",
"581 588 LINE",
"526 239 LINE",
"335 705 LINE",
"103 700 LINE",
"90 617 LINE",
"159 588 LINE",
"84 111 LINE",
"6 87 LINE",
"-8 0 LINE",
"270 0 LINE"
);
},
{
closed = 1;
nodes = (
"258 -329 LINE",
"306 -286 OFFCURVE",
"396 -201 OFFCURVE",
"396 -115 CURVE SMOOTH",
"396 -75 OFFCURVE",
"376 -50 OFFCURVE",
"336 -50 CURVE SMOOTH",
"296 -50 OFFCURVE",
"257 -80 OFFCURVE",
"257 -130 CURVE SMOOTH",
"257 -158 OFFCURVE",
"269 -170 OFFCURVE",
"269 -189 CURVE SMOOTH",
"269 -223 OFFCURVE",
"238 -248 OFFCURVE",
"208 -276 CURVE"
);
}
);
};
components = (
{
name = N;
},
{
name = commaaccentcomb;
transform = "{1, 0, 0, 1, 195, 0}";
}
);
layerId = "6959900B-8A08-4E04-B0F8-C63132552E7A";
width = 767;
}
);
leftKerningGroup = H;
rightKerningGroup = H;
unicode = 0145;
},
{
glyphname = Eng;
lastChange = "2016-08-18 14:48:36 +0000";
layers = (
{
layerId = "89F00A14-383C-41A8-AF30-A12CE933D7AF";
paths = (
{
closed = 1;
nodes = (
"526 -150 OFFCURVE",
"607 -75 OFFCURVE",
"624 34 CURVE",
"718 620 LINE",
"804 640 LINE",
"813 700 LINE",
"558 695 LINE",
"549 640 LINE",
"629 620 LINE",
"553 141 LINE",
"318 700 LINE",
"109 695 LINE",
"100 640 LINE",
"183 620 LINE",
"97 80 LINE",
"8 60 LINE",
"-2 0 LINE",
"258 0 LINE",
"268 60 LINE",
"185 80 LINE",
"263 561 LINE",
"511 -10 LINE",
"497 -50 OFFCURVE",
"468 -70 OFFCURVE",
"417 -70 CURVE SMOOTH",
"368 -70 LINE",
"348 -145 LINE",
"348 -145 OFFCURVE",
"386 -150 OFFCURVE",
"410 -150 CURVE SMOOTH"
);
}
);
width = 780;
},
{
layerId = "6959900B-8A08-4E04-B0F8-C63132552E7A";
paths = (
{
closed = 1;
nodes = (
"547 -157 OFFCURVE",
"609 -70 OFFCURVE",
"637 102 CURVE SMOOTH",
"715 588 LINE",
"792 617 LINE",
"806 705 LINE",
"529 700 LINE",
"516 617 LINE",
"581 588 LINE",
"526 239 LINE",
"335 705 LINE",
"103 700 LINE",
"90 617 LINE",
"159 588 LINE",
"84 111 LINE",
"6 87 LINE",
"-8 0 LINE",
"270 0 LINE",
"284 87 LINE",
"217 111 LINE",
"274 464 LINE",
"478 0 LINE",
"461 -32 OFFCURVE",
"431 -50 OFFCURVE",
"390 -50 CURVE SMOOTH",
"339 -50 LINE",
"310 -150 LINE",
"310 -150 OFFCURVE",
"348 -157 OFFCURVE",
"379 -157 CURVE SMOOTH"
);
}
);
width = 767;
}
);
leftKerningGroup = H;
rightKerningGroup = J;
unicode = 014A;
},
{
glyphname = Ntilde;
lastChange = "2016-09-30 16:56:36 +0000";
layers = (
{
components = (
{
name = N;
},
{
name = tildecomb.case;
transform = "{1, 0, 0, 1, 267, 0}";
}
);
layerId = "89F00A14-383C-41A8-AF30-A12CE933D7AF";
width = 780;
},
{
background = {
paths = (
{
closed = 1;
nodes = (
"284 87 LINE",
"217 111 LINE",
"274 464 LINE",
"467 0 LINE",
"622 0 LINE",
"715 588 LINE",
"792 617 LINE",
"806 705 LINE",
"529 700 LINE",
"516 617 LINE",
"581 588 LINE",
"526 239 LINE",
"335 705 LINE",
"103 700 LINE",
"90 617 LINE",
"159 588 LINE",
"84 111 LINE",
"6 87 LINE",
"-8 0 LINE",
"270 0 LINE"
);
},
{
closed = 1;
nodes = (
"301 780 LINE",
"301 780 OFFCURVE",
"338 821 OFFCURVE",
"379 821 CURVE SMOOTH",
"437 821 OFFCURVE",
"476 777 OFFCURVE",
"544 777 CURVE SMOOTH",
"623 777 OFFCURVE",
"682 886 OFFCURVE",
"682 886 CURVE",
"637 925 LINE",
"637 925 OFFCURVE",
"602 883 OFFCURVE",
"564 883 CURVE SMOOTH",
"506 883 OFFCURVE",
"472 928 OFFCURVE",
"404 928 CURVE SMOOTH",
"324 928 OFFCURVE",
"263 821 OFFCURVE",
"263 821 CURVE"
);
}
);
};
components = (
{
name = N;
},
{
name = tildecomb;
transform = "{1, 0, 0, 1, 265, 142}";
}
);
layerId = "6959900B-8A08-4E04-B0F8-C63132552E7A";
width = 767;
}
);
leftKerningGroup = N;
rightKerningGroup = N;
unicode = 00D1;
},
{
glyphname = O;
lastChange = "2016-09-30 17:14:28 +0000";
layers = (
{
anchors = (
{
name = bottom;
position = "{326, 0}";
},
{
name = center;
position = "{381, 350}";
},
{
name = ogonek;
position = "{619, 10}";
},
{
name = top;
position = "{437, 700}";
},
{
name = topleft;
position = "{89, 700}";
},
{
name = topright;
position = "{612, 700}";
}
);
layerId = "89F00A14-383C-41A8-AF30-A12CE933D7AF";
paths = (
{
closed = 1;
nodes = (
"528 -10 OFFCURVE",
"703 173 OFFCURVE",
"703 465 CURVE SMOOTH",
"703 609 OFFCURVE",
"612 710 OFFCURVE",
"450 710 CURVE SMOOTH",
"227 710 OFFCURVE",
"58 516 OFFCURVE",
"58 234 CURVE SMOOTH",
"58 83 OFFCURVE",
"150 -10 OFFCURVE",
"299 -10 CURVE SMOOTH"
);
},
{
closed = 1;
nodes = (
"227 75 OFFCURVE",
"168 132 OFFCURVE",
"168 244 CURVE SMOOTH",
"168 448 OFFCURVE",
"272 625 OFFCURVE",
"433 625 CURVE SMOOTH",
"528 625 OFFCURVE",
"593 574 OFFCURVE",
"593 452 CURVE SMOOTH",
"593 238 OFFCURVE",
"481 75 OFFCURVE",
"321 75 CURVE SMOOTH"
);
}
);
width = 735;
},
{
anchors = (
{
name = bottom;
position = "{323, 0}";
},
{
name = center;
position = "{379, 353}";
},
{
name = ogonek;
position = "{616, 10}";
},
{
name = top;
position = "{445, 705}";
},
{
name = topleft;
position = "{89, 705}";
},
{
name = topright;
position = "{622, 705}";
}
);
layerId = "6959900B-8A08-4E04-B0F8-C63132552E7A";
paths = (
{
closed = 1;
nodes = (
"546 -13 OFFCURVE",
"704 198 OFFCURVE",
"704 455 CURVE SMOOTH",
"704 618 OFFCURVE",
"608 717 OFFCURVE",
"444 717 CURVE SMOOTH",
"202 717 OFFCURVE",
"54 501 OFFCURVE",
"54 246 CURVE SMOOTH",
"54 79 OFFCURVE",
"146 -13 OFFCURVE",
"306 -13 CURVE SMOOTH"
);
},
{
closed = 1;
nodes = (
"253 112 OFFCURVE",
"214 165 OFFCURVE",
"214 258 CURVE SMOOTH",
"214 395 OFFCURVE",
"281 592 OFFCURVE",
"424 592 CURVE SMOOTH",
"503 592 OFFCURVE",
"544 544 OFFCURVE",
"544 449 CURVE SMOOTH",
"544 305 OFFCURVE",
"471 112 OFFCURVE",
"331 112 CURVE SMOOTH"
);
}
);
width = 732;
}
);
leftKerningGroup = O;
rightKerningGroup = O;
unicode = 004F;
},
{
glyphname = Ocircumflex;
lastChange = "2016-09-30 17:07:59 +0000";
layers = (
{
components = (
{
name = O;
},
{
name = circumflexcomb.case;
transform = "{1, 0, 0, 1, 286, 0}";
}
);
layerId = "89F00A14-383C-41A8-AF30-A12CE933D7AF";
width = 735;
},
{
background = {
paths = (
{
closed = 1;
nodes = (
"546 -13 OFFCURVE",
"704 198 OFFCURVE",
"704 455 CURVE SMOOTH",
"704 618 OFFCURVE",
"608 717 OFFCURVE",
"444 717 CURVE SMOOTH",
"202 717 OFFCURVE",
"54 501 OFFCURVE",
"54 246 CURVE SMOOTH",
"54 79 OFFCURVE",
"146 -13 OFFCURVE",
"306 -13 CURVE SMOOTH"
);
},
{
closed = 1;
nodes = (
"544 305 OFFCURVE",
"471 112 OFFCURVE",
"331 112 CURVE SMOOTH",
"253 112 OFFCURVE",
"214 165 OFFCURVE",
"214 258 CURVE SMOOTH",
"214 395 OFFCURVE",
"281 592 OFFCURVE",
"424 592 CURVE SMOOTH",
"503 592 OFFCURVE",
"544 544 OFFCURVE",
"544 449 CURVE SMOOTH"
);
},
{
closed = 1;
nodes = (
"473 842 LINE",
"600 742 LINE",
"656 807 LINE",
"526 951 LINE",
"439 944 LINE",
"267 807 LINE",
"309 742 LINE"
);
}
);
};
components = (
{
name = O;
},
{
name = circumflex;
transform = "{1, 0, 0, 1, 267, 120}";
}
);
layerId = "6959900B-8A08-4E04-B0F8-C63132552E7A";
width = 732;
}
);
leftKerningGroup = O;
rightKerningGroup = O;
unicode = 00D4;
},
{
glyphname = Odieresis;
lastChange = "2016-08-18 14:48:36 +0000";
layers = (
{
components = (
{
name = O;
},
{
name = dieresis;
transform = "{1, 0, 0, 1, 205, 125}";
}
);
layerId = "89F00A14-383C-41A8-AF30-A12CE933D7AF";
width = 735;
},
{
background = {
paths = (
{
closed = 1;
nodes = (
"546 -13 OFFCURVE",
"704 198 OFFCURVE",
"704 455 CURVE SMOOTH",
"704 618 OFFCURVE",
"608 717 OFFCURVE",
"444 717 CURVE SMOOTH",
"202 717 OFFCURVE",
"54 501 OFFCURVE",
"54 246 CURVE SMOOTH",
"54 79 OFFCURVE",
"146 -13 OFFCURVE",
"306 -13 CURVE SMOOTH"
);
},
{
closed = 1;
nodes = (
"544 305 OFFCURVE",
"471 112 OFFCURVE",
"331 112 CURVE SMOOTH",
"253 112 OFFCURVE",
"214 165 OFFCURVE",
"214 258 CURVE SMOOTH",
"214 395 OFFCURVE",
"281 592 OFFCURVE",
"424 592 CURVE SMOOTH",
"503 592 OFFCURVE",
"544 544 OFFCURVE",
"544 449 CURVE SMOOTH"
);
},
{
closed = 1;
nodes = (
"519 793 OFFCURVE",
"542 770 OFFCURVE",
"579 770 CURVE SMOOTH",
"632 770 OFFCURVE",
"663 814 OFFCURVE",
"663 865 CURVE SMOOTH",
"663 903 OFFCURVE",
"639 926 OFFCURVE",
"601 926 CURVE SMOOTH",
"548 926 OFFCURVE",
"519 881 OFFCURVE",
"519 830 CURVE SMOOTH"
);
},
{
closed = 1;
nodes = (
"306 793 OFFCURVE",
"329 770 OFFCURVE",
"366 770 CURVE SMOOTH",
"419 770 OFFCURVE",
"451 814 OFFCURVE",
"451 865 CURVE SMOOTH",
"451 903 OFFCURVE",
"427 926 OFFCURVE",
"389 926 CURVE SMOOTH",
"335 926 OFFCURVE",
"306 881 OFFCURVE",
"306 830 CURVE SMOOTH"
);
}
);
};
components = (
{
name = O;
},
{
name = dieresis;
transform = "{1, 0, 0, 1, 204, 136}";
}
);
layerId = "6959900B-8A08-4E04-B0F8-C63132552E7A";
width = 732;
}
);
leftKerningGroup = O;
rightKerningGroup = O;
unicode = 00D6;
},
{
glyphname = Omacron;
lastChange = "2016-08-18 14:48:36 +0000";
layers = (
{
components = (
{
name = O;
},
{
name = macron;
transform = "{1, 0, 0, 1, 330, 120}";
}
);
layerId = "89F00A14-383C-41A8-AF30-A12CE933D7AF";
width = 735;
},
{
background = {
paths = (
{
closed = 1;
nodes = (
"546 -13 OFFCURVE",
"704 198 OFFCURVE",
"704 455 CURVE SMOOTH",
"704 618 OFFCURVE",
"608 717 OFFCURVE",
"444 717 CURVE SMOOTH",
"202 717 OFFCURVE",
"54 501 OFFCURVE",
"54 246 CURVE SMOOTH",
"54 79 OFFCURVE",
"146 -13 OFFCURVE",
"306 -13 CURVE SMOOTH"
);
},
{
closed = 1;
nodes = (
"544 305 OFFCURVE",
"471 112 OFFCURVE",
"331 112 CURVE SMOOTH",
"253 112 OFFCURVE",
"214 165 OFFCURVE",
"214 258 CURVE SMOOTH",
"214 395 OFFCURVE",
"281 592 OFFCURVE",
"424 592 CURVE SMOOTH",
"503 592 OFFCURVE",
"544 544 OFFCURVE",
"544 449 CURVE SMOOTH"
);
},
{
closed = 1;
nodes = (
"316 796 LINE",
"607 796 LINE",
"625 901 LINE",
"334 901 LINE"
);
}
);
};
components = (
{
name = O;
},
{
name = macron;
transform = "{1, 0, 0, 1, 316, 154}";
}
);
layerId = "6959900B-8A08-4E04-B0F8-C63132552E7A";
width = 732;
}
);
leftKerningGroup = O;
rightKerningGroup = O;
unicode = 014C;
},
{
glyphname = Oslash;
lastChange = "2016-08-18 14:48:36 +0000";
layers = (
{
layerId = "89F00A14-383C-41A8-AF30-A12CE933D7AF";
paths = (
{
closed = 1;
nodes = (
"175 19 LINE",
"210 0 OFFCURVE",
"252 -10 OFFCURVE",
"300 -10 CURVE SMOOTH",
"529 -10 OFFCURVE",
"699 173 OFFCURVE",
"699 475 CURVE SMOOTH",
"699 541 OFFCURVE",
"678 598 OFFCURVE",
"638 639 CURVE",
"721 750 LINE",
"664 785 LINE",
"585 679 LINE",
"548 699 OFFCURVE",
"503 710 OFFCURVE",
"451 710 CURVE SMOOTH",
"228 710 OFFCURVE",
"64 516 OFFCURVE",
"64 234 CURVE SMOOTH",
"64 162 OFFCURVE",
"85 103 OFFCURVE",
"122 61 CURVE",
"24 -70 LINE",
"82 -105 LINE"
);
},
{
closed = 1;
nodes = (
"287 75 OFFCURVE",
"257 82 OFFCURVE",
"233 98 CURVE",
"575 554 LINE",
"587 530 OFFCURVE",
"594 500 OFFCURVE",
"594 462 CURVE SMOOTH",
"594 238 OFFCURVE",
"482 75 OFFCURVE",
"322 75 CURVE SMOOTH"
);
},
{
closed = 1;
nodes = (
"176 174 OFFCURVE",
"169 206 OFFCURVE",
"169 244 CURVE SMOOTH",
"169 448 OFFCURVE",
"273 625 OFFCURVE",
"434 625 CURVE SMOOTH",
"470 625 OFFCURVE",
"503 619 OFFCURVE",
"528 604 CURVE",
"188 149 LINE"
);
}
);
width = 735;
},
{
layerId = "6959900B-8A08-4E04-B0F8-C63132552E7A";
paths = (
{
closed = 1;
nodes = (
"185 12 LINE",
"220 -4 OFFCURVE",
"261 -12 OFFCURVE",
"309 -12 CURVE SMOOTH",
"549 -12 OFFCURVE",
"705 198 OFFCURVE",
"705 460 CURVE SMOOTH",
"705 530 OFFCURVE",
"685 589 OFFCURVE",
"649 632 CURVE",
"732 742 LINE",
"654 793 LINE",
"577 690 LINE",
"540 708 OFFCURVE",
"497 717 OFFCURVE",
"447 717 CURVE SMOOTH",
"205 717 OFFCURVE",
"59 501 OFFCURVE",
"59 246 CURVE SMOOTH",
"59 172 OFFCURVE",
"78 112 OFFCURVE",
"112 69 CURVE",
"15 -59 LINE",
"93 -110 LINE"
);
},
{
closed = 1;
nodes = (
"309 112 OFFCURVE",
"288 117 OFFCURVE",
"271 127 CURVE",
"537 482 LINE",
"541 465 OFFCURVE",
"543 446 OFFCURVE",
"543 424 CURVE SMOOTH",
"543 260 OFFCURVE",
"458 112 OFFCURVE",
"334 112 CURVE SMOOTH"
);
},
{
closed = 1;
nodes = (
"222 238 OFFCURVE",
"219 256 OFFCURVE",
"219 277 CURVE SMOOTH",
"219 430 OFFCURVE",
"296 592 OFFCURVE",
"427 592 CURVE SMOOTH",
"452 592 OFFCURVE",
"475 588 OFFCURVE",
"493 578 CURVE",
"227 222 LINE"
);
}
);
width = 738;
}
);
leftKerningGroup = O;
rightKerningGroup = O;
unicode = 00D8;
},
{
glyphname = Otilde;
lastChange = "2016-09-30 17:14:30 +0000";
layers = (
{
components = (
{
name = O;
},
{
name = tildecomb.case;
transform = "{1, 0, 0, 1, 264, 0}";
}
);
layerId = "89F00A14-383C-41A8-AF30-A12CE933D7AF";
width = 735;
},
{
background = {
paths = (
{
closed = 1;
nodes = (
"546 -13 OFFCURVE",
"704 198 OFFCURVE",
"704 455 CURVE SMOOTH",
"704 618 OFFCURVE",
"608 717 OFFCURVE",
"444 717 CURVE SMOOTH",
"202 717 OFFCURVE",
"54 501 OFFCURVE",
"54 246 CURVE SMOOTH",
"54 79 OFFCURVE",
"146 -13 OFFCURVE",
"306 -13 CURVE SMOOTH"
);
},
{
closed = 1;
nodes = (
"544 305 OFFCURVE",
"471 112 OFFCURVE",
"331 112 CURVE SMOOTH",
"253 112 OFFCURVE",
"214 165 OFFCURVE",
"214 258 CURVE SMOOTH",
"214 395 OFFCURVE",
"281 592 OFFCURVE",
"424 592 CURVE SMOOTH",
"503 592 OFFCURVE",
"544 544 OFFCURVE",
"544 449 CURVE SMOOTH"
);
},
{
closed = 1;
nodes = (
"299 780 LINE",
"299 780 OFFCURVE",
"336 821 OFFCURVE",
"377 821 CURVE SMOOTH",
"435 821 OFFCURVE",
"474 777 OFFCURVE",
"542 777 CURVE SMOOTH",
"621 777 OFFCURVE",
"680 886 OFFCURVE",
"680 886 CURVE",
"635 925 LINE",
"635 925 OFFCURVE",
"600 883 OFFCURVE",
"562 883 CURVE SMOOTH",
"504 883 OFFCURVE",
"470 928 OFFCURVE",
"402 928 CURVE SMOOTH",
"322 928 OFFCURVE",
"261 821 OFFCURVE",
"261 821 CURVE"
);
}
);
};
components = (
{
name = O;
},
{
name = tildecomb;
transform = "{1, 0, 0, 1, 266, 165}";
}
);
layerId = "6959900B-8A08-4E04-B0F8-C63132552E7A";
width = 732;
}
);
leftKerningGroup = O;
rightKerningGroup = O;
unicode = 00D5;
},
{
glyphname = OE;
lastChange = "2016-08-18 14:48:36 +0000";
layers = (
{
layerId = "89F00A14-383C-41A8-AF30-A12CE933D7AF";
paths = (
{
closed = 1;
nodes = (
"347 -10 OFFCURVE",
"418 0 OFFCURVE",
"456 0 CURVE SMOOTH",
"812 0 LINE",
"843 182 LINE",
"777 182 LINE",
"740 80 LINE",
"513 80 LINE",
"552 325 LINE",
"780 325 LINE",
"792 405 LINE",
"564 405 LINE",
"599 620 LINE",
"820 620 LINE",
"830 530 LINE",
"886 530 LINE",
"913 700 LINE",
"580 700 LINE SMOOTH",
"545 700 OFFCURVE",
"500 710 OFFCURVE",
"447 710 CURVE SMOOTH",
"229 710 OFFCURVE",
"60 526 OFFCURVE",
"60 244 CURVE SMOOTH",
"60 93 OFFCURVE",
"152 -10 OFFCURVE",
"296 -10 CURVE SMOOTH"
);
},
{
closed = 1;
nodes = (
"224 75 OFFCURVE",
"165 132 OFFCURVE",
"165 244 CURVE SMOOTH",
"165 448 OFFCURVE",
"269 625 OFFCURVE",
"430 625 CURVE SMOOTH",
"470 625 OFFCURVE",
"499 620 OFFCURVE",
"499 620 CURVE",
"413 80 LINE",
"413 80 OFFCURVE",
"357 75 OFFCURVE",
"318 75 CURVE SMOOTH"
);
}
);
width = 891;
},
{
layerId = "6959900B-8A08-4E04-B0F8-C63132552E7A";
paths = (
{
closed = 1;
nodes = (
"389 -12 OFFCURVE",
"466 0 OFFCURVE",
"525 0 CURVE SMOOTH",
"836 0 LINE",
"869 201 LINE",
"779 201 LINE",
"743 117 LINE",
"568 117 LINE",
"598 310 LINE",
"796 310 LINE",
"813 420 LINE",
"616 420 LINE",
"643 587 LINE",
"811 587 LINE",
"824 512 LINE",
"904 512 LINE",
"935 705 LINE",
"605 705 LINE SMOOTH",
"557 705 OFFCURVE",
"498 716 OFFCURVE",
"437 716 CURVE SMOOTH",
"221 716 OFFCURVE",
"55 532 OFFCURVE",
"55 249 CURVE SMOOTH",
"55 85 OFFCURVE",
"155 -12 OFFCURVE",
"310 -12 CURVE SMOOTH"
);
},
{
closed = 1;
nodes = (
"263 112 OFFCURVE",
"213 156 OFFCURVE",
"213 252 CURVE SMOOTH",
"213 477 OFFCURVE",
"313 592 OFFCURVE",
"430 592 CURVE SMOOTH",
"465 592 OFFCURVE",
"494 587 OFFCURVE",
"494 587 CURVE",
"420 117 LINE",
"420 117 OFFCURVE",
"377 112 OFFCURVE",
"342 112 CURVE SMOOTH"
);
}
);
width = 930;
}
);
leftKerningGroup = O;
rightKerningGroup = E;
unicode = 0152;
},
{
glyphname = P;
lastChange = "2016-08-18 14:48:36 +0000";
layers = (
{
layerId = "89F00A14-383C-41A8-AF30-A12CE933D7AF";
paths = (
{
closed = 1;
nodes = (
"271 0 LINE",
"281 60 LINE",
"195 79 LINE",
"224 260 LINE",
"290 260 LINE SMOOTH",
"427 260 OFFCURVE",
"595 320 OFFCURVE",
"595 540 CURVE SMOOTH",
"595 665 OFFCURVE",
"489 700 OFFCURVE",
"399 700 CURVE SMOOTH",
"294 700 LINE",
"109 695 LINE",
"100 640 LINE",
"181 620 LINE",
"95 80 LINE",
"8 60 LINE",
"-2 0 LINE"
);
},
{
closed = 1;
nodes = (
"281 620 LINE",
"381 620 LINE SMOOTH",
"420 620 OFFCURVE",
"490 603 OFFCURVE",
"490 519 CURVE SMOOTH",
"490 428 OFFCURVE",
"447 340 OFFCURVE",
"303 340 CURVE SMOOTH",
"236 340 LINE"
);
}
);
width = 571;
},
{
layerId = "6959900B-8A08-4E04-B0F8-C63132552E7A";
paths = (
{
closed = 1;
nodes = (
"297 0 LINE",
"311 87 LINE",
"239 111 LINE",
"260 245 LINE",
"313 245 LINE SMOOTH",
"484 245 OFFCURVE",
"632 330 OFFCURVE",
"632 534 CURVE SMOOTH",
"632 655 OFFCURVE",
"537 705 OFFCURVE",
"427 705 CURVE SMOOTH",
"333 705 LINE",
"108 700 LINE",
"95 617 LINE",
"164 588 LINE",
"89 111 LINE",
"11 87 LINE",
"-3 0 LINE"
);
},
{
closed = 1;
nodes = (
"314 587 LINE",
"391 587 LINE SMOOTH",
"436 587 OFFCURVE",
"478 565 OFFCURVE",
"478 503 CURVE SMOOTH",
"478 425 OFFCURVE",
"436 362 OFFCURVE",
"331 362 CURVE SMOOTH",
"278 362 LINE"
);
}
);
width = 605;
}
);
leftKerningGroup = H;
rightKerningGroup = P;
unicode = 0050;
},
{
glyphname = Thorn;
lastChange = "2016-08-18 14:48:36 +0000";
layers = (
{
layerId = "89F00A14-383C-41A8-AF30-A12CE933D7AF";
paths = (
{
closed = 1;
nodes = (
"269 0 LINE",
"279 60 LINE",
"197 80 LINE",
"209 155 LINE",
"279 155 LINE SMOOTH",
"454 155 OFFCURVE",
"574 254 OFFCURVE",
"574 415 CURVE SMOOTH",
"574 510 OFFCURVE",
"504 565 OFFCURVE",
"379 565 CURVE SMOOTH",
"275 565 LINE",
"284 620 LINE",
"371 640 LINE",
"381 700 LINE",
"109 695 LINE",
"101 640 LINE",
"182 620 LINE",
"96 80 LINE",
"8 60 LINE",
"-1 0 LINE"
);
},
{
closed = 1;
nodes = (
"262 485 LINE",
"361 485 LINE",
"444 485 OFFCURVE",
"474 447 OFFCURVE",
"474 391 CURVE SMOOTH",
"474 291 OFFCURVE",
"406 235 OFFCURVE",
"294 235 CURVE SMOOTH",
"222 235 LINE"
);
}
);
width = 584;
},
{
layerId = "6959900B-8A08-4E04-B0F8-C63132552E7A";
paths = (
{
closed = 1;
nodes = (
"292 0 LINE",
"306 87 LINE",
"237 112 LINE",
"244 160 LINE",
"313 160 LINE SMOOTH",
"480 160 OFFCURVE",
"604 244 OFFCURVE",
"604 402 CURVE SMOOTH",
"604 505 OFFCURVE",
"528 555 OFFCURVE",
"405 555 CURVE SMOOTH",
"307 555 LINE",
"313 587 LINE",
"391 617 LINE",
"405 705 LINE",
"109 700 LINE",
"96 617 LINE",
"164 588 LINE",
"89 112 LINE",
"11 87 LINE",
"-2 0 LINE"
);
},
{
closed = 1;
nodes = (
"290 445 LINE",
"365 445 LINE SMOOTH",
"427 445 OFFCURVE",
"455 423 OFFCURVE",
"455 378 CURVE SMOOTH",
"455 308 OFFCURVE",
"405 267 OFFCURVE",
"324 267 CURVE SMOOTH",
"262 267 LINE"
);
}
);
width = 612;
}
);
leftKerningGroup = P;
unicode = 00DE;
},
{
glyphname = Q;
lastChange = "2016-08-18 14:48:36 +0000";
layers = (
{
background = {
paths = (
{
closed = 1;
nodes = (
"622 -182 OFFCURVE",
"729 -125 OFFCURVE",
"729 -125 CURVE",
"700 -65 LINE",
"700 -65 OFFCURVE",
"635 -100 OFFCURVE",
"601 -100 CURVE SMOOTH",
"568 -100 OFFCURVE",
"533 -82 OFFCURVE",
"507 -62 CURVE",
"417 7 LINE",
"585 60 OFFCURVE",
"703 228 OFFCURVE",
"703 475 CURVE SMOOTH",
"703 612 OFFCURVE",
"612 710 OFFCURVE",
"450 710 CURVE SMOOTH",
"227 710 OFFCURVE",
"58 516 OFFCURVE",
"58 234 CURVE SMOOTH",
"58 92 OFFCURVE",
"139 1 OFFCURVE",
"272 -9 CURVE",
"448 -129 LINE SMOOTH",
"483 -153 OFFCURVE",
"529 -182 OFFCURVE",
"568 -182 CURVE SMOOTH"
);
},
{
closed = 1;
nodes = (
"227 75 OFFCURVE",
"168 132 OFFCURVE",
"168 244 CURVE SMOOTH",
"168 448 OFFCURVE",
"272 625 OFFCURVE",
"433 625 CURVE SMOOTH",
"528 625 OFFCURVE",
"593 581 OFFCURVE",
"593 462 CURVE SMOOTH",
"593 238 OFFCURVE",
"481 75 OFFCURVE",
"321 75 CURVE SMOOTH"
);
}
);
};
layerId = "89F00A14-383C-41A8-AF30-A12CE933D7AF";
paths = (
{
closed = 1;
nodes = (
"622 -182 OFFCURVE",
"729 -125 OFFCURVE",
"729 -125 CURVE",
"700 -65 LINE",
"700 -65 OFFCURVE",
"635 -100 OFFCURVE",
"601 -100 CURVE SMOOTH",
"553 -100 OFFCURVE",
"525 -82 OFFCURVE",
"409 7 CURVE",
"591 59 OFFCURVE",
"703 228 OFFCURVE",
"703 475 CURVE SMOOTH",
"703 612 OFFCURVE",
"612 710 OFFCURVE",
"450 710 CURVE SMOOTH",
"227 710 OFFCURVE",
"58 516 OFFCURVE",
"58 234 CURVE SMOOTH",
"58 92 OFFCURVE",
"139 1 OFFCURVE",
"272 -9 CURVE",
"448 -129 LINE SMOOTH",
"483 -153 OFFCURVE",
"529 -182 OFFCURVE",
"568 -182 CURVE SMOOTH"
);
},
{
closed = 1;
nodes = (
"227 75 OFFCURVE",
"168 132 OFFCURVE",
"168 244 CURVE SMOOTH",
"168 448 OFFCURVE",
"272 625 OFFCURVE",
"433 625 CURVE SMOOTH",
"528 625 OFFCURVE",
"593 581 OFFCURVE",
"593 462 CURVE SMOOTH",
"593 238 OFFCURVE",
"481 75 OFFCURVE",
"321 75 CURVE SMOOTH"
);
}
);
width = 741;
},
{
background = {
paths = (
{
closed = 1;
nodes = (
"637 -198 OFFCURVE",
"743 -130 OFFCURVE",
"743 -130 CURVE",
"705 -50 LINE",
"705 -50 OFFCURVE",
"636 -85 OFFCURVE",
"601 -85 CURVE SMOOTH",
"568 -85 OFFCURVE",
"552 -73 OFFCURVE",
"432 8 CURVE",
"596 67 OFFCURVE",
"705 249 OFFCURVE",
"705 460 CURVE SMOOTH",
"705 619 OFFCURVE",
"608 717 OFFCURVE",
"445 717 CURVE SMOOTH",
"202 717 OFFCURVE",
"54 501 OFFCURVE",
"54 246 CURVE SMOOTH",
"54 93 OFFCURVE",
"137 -1 OFFCURVE",
"274 -10 CURVE",
"457 -149 LINE SMOOTH",
"492 -175 OFFCURVE",
"537 -198 OFFCURVE",
"575 -198 CURVE SMOOTH"
);
},
{
closed = 1;
nodes = (
"253 112 OFFCURVE",
"214 165 OFFCURVE",
"214 258 CURVE SMOOTH",
"214 395 OFFCURVE",
"281 592 OFFCURVE",
"424 592 CURVE SMOOTH",
"503 592 OFFCURVE",
"545 548 OFFCURVE",
"545 454 CURVE SMOOTH",
"545 305 OFFCURVE",
"472 112 OFFCURVE",
"332 112 CURVE SMOOTH"
);
}
);
};
layerId = "6959900B-8A08-4E04-B0F8-C63132552E7A";
paths = (
{
closed = 1;
nodes = (
"637 -198 OFFCURVE",
"743 -130 OFFCURVE",
"743 -130 CURVE",
"705 -50 LINE",
"705 -50 OFFCURVE",
"636 -85 OFFCURVE",
"601 -85 CURVE SMOOTH",
"568 -85 OFFCURVE",
"547 -72 OFFCURVE",
"427 9 CURVE",
"593 59 OFFCURVE",
"705 249 OFFCURVE",
"705 460 CURVE SMOOTH",
"705 619 OFFCURVE",
"608 717 OFFCURVE",
"445 717 CURVE SMOOTH",
"202 717 OFFCURVE",
"54 501 OFFCURVE",
"54 246 CURVE SMOOTH",
"54 93 OFFCURVE",
"137 -1 OFFCURVE",
"274 -10 CURVE",
"457 -149 LINE SMOOTH",
"492 -175 OFFCURVE",
"537 -198 OFFCURVE",
"575 -198 CURVE SMOOTH"
);
},
{
closed = 1;
nodes = (
"253 112 OFFCURVE",
"214 165 OFFCURVE",
"214 258 CURVE SMOOTH",
"214 395 OFFCURVE",
"281 592 OFFCURVE",
"424 592 CURVE SMOOTH",
"503 592 OFFCURVE",
"545 548 OFFCURVE",
"545 454 CURVE SMOOTH",
"545 305 OFFCURVE",
"472 112 OFFCURVE",
"332 112 CURVE SMOOTH"
);
}
);
width = 747;
}
);
leftKerningGroup = O;
rightKerningGroup = O;
unicode = 0051;
},
{
glyphname = R;
lastChange = "2016-08-18 14:48:36 +0000";
layers = (
{
layerId = "89F00A14-383C-41A8-AF30-A12CE933D7AF";
paths = (
{
closed = 1;
nodes = (
"273 0 LINE",
"283 60 LINE",
"197 80 LINE",
"232 305 LINE",
"261 305 LINE SMOOTH",
"328 305 OFFCURVE",
"358 285 OFFCURVE",
"388 185 CURVE SMOOTH",
"444 0 LINE",
"588 0 LINE",
"598 60 LINE",
"526 80 LINE",
"482 210 LINE SMOOTH",
"465 261 OFFCURVE",
"441 307 OFFCURVE",
"423 322 CURVE",
"522 353 OFFCURVE",
"598 428 OFFCURVE",
"598 548 CURVE SMOOTH",
"598 653 OFFCURVE",
"503 700 OFFCURVE",
"403 700 CURVE SMOOTH",
"295 700 LINE",
"109 695 LINE",
"101 640 LINE",
"182 620 LINE",
"96 80 LINE",
"8 60 LINE",
"-2 0 LINE"
);
},
{
closed = 1;
nodes = (
"282 620 LINE",
"385 620 LINE",
"450 620 OFFCURVE",
"493 593 OFFCURVE",
"493 530 CURVE SMOOTH",
"493 432 OFFCURVE",
"418 380 OFFCURVE",
"318 380 CURVE SMOOTH",
"244 380 LINE"
);
}
);
width = 630;
},
{
layerId = "6959900B-8A08-4E04-B0F8-C63132552E7A";
paths = (
{
closed = 1;
nodes = (
"298 0 LINE",
"312 87 LINE",
"243 112 LINE",
"269 277 LINE",
"276 277 LINE SMOOTH",
"337 276 OFFCURVE",
"364 260 OFFCURVE",
"383 190 CURVE SMOOTH",
"437 0 LINE",
"612 0 LINE",
"626 87 LINE",
"558 112 LINE",
"519 230 LINE SMOOTH",
"507 265 OFFCURVE",
"492 297 OFFCURVE",
"478 311 CURVE",
"576 345 OFFCURVE",
"637 424 OFFCURVE",
"637 539 CURVE SMOOTH",
"637 651 OFFCURVE",
"544 705 OFFCURVE",
"432 705 CURVE SMOOTH",
"336 705 LINE",
"114 700 LINE",
"101 617 LINE",
"169 587 LINE",
"94 112 LINE",
"16 87 LINE",
"2 0 LINE"
);
},
{
closed = 1;
nodes = (
"318 587 LINE",
"398 587 LINE SMOOTH",
"450 587 OFFCURVE",
"483 561 OFFCURVE",
"483 510 CURVE SMOOTH",
"483 426 OFFCURVE",
"427 382 OFFCURVE",
"342 382 CURVE SMOOTH",
"285 382 LINE"
);
}
);
width = 655;
}
);
leftKerningGroup = R;
rightKerningGroup = R;
unicode = 0052;
},
{
glyphname = Rcommaaccent;
lastChange = "2016-08-18 14:50:22 +0000";
layers = (
{
components = (
{
name = R;
},
{
name = commaaccentcomb;
transform = "{1, 0, 0, 1, 162, 0}";
}
);
layerId = "89F00A14-383C-41A8-AF30-A12CE933D7AF";
width = 630;
},
{
background = {
paths = (
{
closed = 1;
nodes = (
"243 112 LINE",
"269 277 LINE",
"334 277 OFFCURVE",
"363 263 OFFCURVE",
"383 190 CURVE SMOOTH",
"437 0 LINE",
"612 0 LINE",
"626 87 LINE",
"558 112 LINE",
"519 230 LINE SMOOTH",
"507 265 OFFCURVE",
"492 297 OFFCURVE",
"478 311 CURVE",
"576 345 OFFCURVE",
"637 424 OFFCURVE",
"637 539 CURVE SMOOTH",
"637 651 OFFCURVE",
"544 705 OFFCURVE",
"432 705 CURVE SMOOTH",
"336 705 LINE",
"114 700 LINE",
"101 617 LINE",
"169 587 LINE",
"94 112 LINE",
"16 87 LINE",
"2 0 LINE",
"298 0 LINE",
"312 87 LINE"
);
},
{
closed = 1;
nodes = (
"318 587 LINE",
"398 587 LINE SMOOTH",
"450 587 OFFCURVE",
"483 561 OFFCURVE",
"483 510 CURVE SMOOTH",
"483 426 OFFCURVE",
"427 382 OFFCURVE",
"342 382 CURVE SMOOTH",
"285 382 LINE"
);
},
{
closed = 1;
nodes = (
"232 -329 LINE",
"280 -286 OFFCURVE",
"370 -201 OFFCURVE",
"370 -115 CURVE SMOOTH",
"370 -75 OFFCURVE",
"350 -50 OFFCURVE",
"310 -50 CURVE SMOOTH",
"270 -50 OFFCURVE",
"231 -80 OFFCURVE",
"231 -130 CURVE SMOOTH",
"231 -158 OFFCURVE",
"243 -170 OFFCURVE",
"243 -189 CURVE SMOOTH",
"243 -223 OFFCURVE",
"212 -248 OFFCURVE",
"182 -276 CURVE"
);
}
);
};
components = (
{
name = R;
},
{
name = commaaccentcomb;
transform = "{1, 0, 0, 1, 167, 0}";
}
);
layerId = "6959900B-8A08-4E04-B0F8-C63132552E7A";
width = 655;
}
);
leftKerningGroup = R;
rightKerningGroup = R;
unicode = 0156;
},
{
glyphname = S;
lastChange = "2016-08-18 14:48:36 +0000";
layers = (
{
layerId = "89F00A14-383C-41A8-AF30-A12CE933D7AF";
paths = (
{
closed = 1;
nodes = (
"360 -10 OFFCURVE",
"500 73 OFFCURVE",
"500 239 CURVE SMOOTH",
"500 427 OFFCURVE",
"218 389 OFFCURVE",
"218 520 CURVE SMOOTH",
"218 577 OFFCURVE",
"270 625 OFFCURVE",
"355 625 CURVE SMOOTH",
"402 625 OFFCURVE",
"453 607 OFFCURVE",
"453 607 CURVE",
"467 500 LINE",
"523 500 LINE",
"555 670 LINE",
"555 670 OFFCURVE",
"457 710 OFFCURVE",
"371 710 CURVE SMOOTH",
"243 710 OFFCURVE",
"111 642 OFFCURVE",
"111 485 CURVE SMOOTH",
"111 284 OFFCURVE",
"393 329 OFFCURVE",
"393 196 CURVE SMOOTH",
"393 117 OFFCURVE",
"307 75 OFFCURVE",
"235 75 CURVE SMOOTH",
"176 75 OFFCURVE",
"130 96 OFFCURVE",
"130 96 CURVE",
"127 205 LINE",
"61 205 LINE",
"33 30 LINE",
"33 30 OFFCURVE",
"121 -10 OFFCURVE",
"220 -10 CURVE SMOOTH"
);
}
);
width = 578;
},
{
layerId = "6959900B-8A08-4E04-B0F8-C63132552E7A";
paths = (
{
closed = 1;
nodes = (
"389 -13 OFFCURVE",
"525 79 OFFCURVE",
"525 247 CURVE SMOOTH",
"525 431 OFFCURVE",
"255 414 OFFCURVE",
"255 517 CURVE SMOOTH",
"255 566 OFFCURVE",
"298 595 OFFCURVE",
"360 595 CURVE SMOOTH",
"404 595 OFFCURVE",
"447 580 OFFCURVE",
"447 580 CURVE",
"459 495 LINE",
"541 495 LINE",
"575 677 LINE",
"575 677 OFFCURVE",
"479 717 OFFCURVE",
"371 717 CURVE SMOOTH",
"222 717 OFFCURVE",
"96 637 OFFCURVE",
"96 478 CURVE SMOOTH",
"96 285 OFFCURVE",
"367 305 OFFCURVE",
"367 201 CURVE SMOOTH",
"367 142 OFFCURVE",
"303 112 OFFCURVE",
"246 112 CURVE SMOOTH",
"187 112 OFFCURVE",
"149 131 OFFCURVE",
"149 131 CURVE",
"147 217 LINE",
"55 217 LINE",
"24 25 LINE",
"24 25 OFFCURVE",
"128 -13 OFFCURVE",
"235 -13 CURVE SMOOTH"
);
}
);
width = 592;
}
);
leftKerningGroup = S;
rightKerningGroup = S;
unicode = 0053;
},
{
glyphname = Scircumflex;
lastChange = "2016-08-25 08:49:19 +0000";
layers = (
{
components = (
{
name = S;
},
{
name = circumflexcomb.case;
transform = "{1, 0, 0, 1, 205, 0}";
}
);
layerId = "89F00A14-383C-41A8-AF30-A12CE933D7AF";
width = 578;
},
{
background = {
paths = (
{
closed = 1;
nodes = (
"147 217 LINE",
"55 217 LINE",
"24 25 LINE",
"24 25 OFFCURVE",
"128 -13 OFFCURVE",
"235 -13 CURVE SMOOTH",
"389 -13 OFFCURVE",
"525 79 OFFCURVE",
"525 247 CURVE SMOOTH",
"525 431 OFFCURVE",
"255 414 OFFCURVE",
"255 517 CURVE SMOOTH",
"255 566 OFFCURVE",
"298 595 OFFCURVE",
"360 595 CURVE SMOOTH",
"404 595 OFFCURVE",
"447 580 OFFCURVE",
"447 580 CURVE",
"459 495 LINE",
"541 495 LINE",
"575 677 LINE",
"575 677 OFFCURVE",
"479 717 OFFCURVE",
"371 717 CURVE SMOOTH",
"222 717 OFFCURVE",
"96 637 OFFCURVE",
"96 478 CURVE SMOOTH",
"96 285 OFFCURVE",
"367 305 OFFCURVE",
"367 201 CURVE SMOOTH",
"367 142 OFFCURVE",
"303 112 OFFCURVE",
"246 112 CURVE SMOOTH",
"187 112 OFFCURVE",
"149 131 OFFCURVE",
"149 131 CURVE"
);
},
{
closed = 1;
nodes = (
"416 842 LINE",
"543 742 LINE",
"599 807 LINE",
"469 951 LINE",
"382 944 LINE",
"210 807 LINE",
"252 742 LINE"
);
}
);
};
components = (
{
name = S;
},
{
name = circumflex;
transform = "{1, 0, 0, 1, 190, 120}";
}
);
layerId = "6959900B-8A08-4E04-B0F8-C63132552E7A";
width = 592;
}
);
leftKerningGroup = S;
rightKerningGroup = S;
unicode = 015C;
},
{
glyphname = T;
lastChange = "2016-08-18 14:48:36 +0000";
layers = (
{
layerId = "89F00A14-383C-41A8-AF30-A12CE933D7AF";
paths = (
{
closed = 1;
nodes = (
"381 0 LINE",
"391 60 LINE",
"295 80 LINE",
"381 620 LINE",
"510 620 LINE",
"520 520 LINE",
"584 520 LINE",
"613 700 LINE",
"75 700 LINE",
"45 520 LINE",
"110 520 LINE",
"151 620 LINE",
"281 620 LINE",
"195 80 LINE",
"92 60 LINE",
"82 0 LINE"
);
}
);
width = 549;
},
{
layerId = "6959900B-8A08-4E04-B0F8-C63132552E7A";
paths = (
{
closed = 1;
nodes = (
"401 0 LINE",
"415 87 LINE",
"338 111 LINE",
"413 587 LINE",
"507 587 LINE",
"517 490 LINE",
"607 490 LINE",
"641 705 LINE",
"76 705 LINE",
"40 490 LINE",
"130 490 LINE",
"170 587 LINE",
"263 587 LINE",
"188 111 LINE",
"104 87 LINE",
"90 0 LINE"
);
}
);
width = 577;
}
);
leftKerningGroup = T;
rightKerningGroup = T;
unicode = 0054;
},
{
glyphname = Tbar;
lastChange = "2016-08-18 14:48:36 +0000";
layers = (
{
components = (
{
name = T;
}
);
layerId = "89F00A14-383C-41A8-AF30-A12CE933D7AF";
paths = (
{
closed = 1;
nodes = (
"92 316 LINE",
"476 316 LINE",
"490 395 LINE",
"106 395 LINE"
);
}
);
width = 549;
},
{
components = (
{
name = T;
}
);
layerId = "6959900B-8A08-4E04-B0F8-C63132552E7A";
paths = (
{
closed = 1;
nodes = (
"107 298 LINE",
"479 298 LINE",
"497 408 LINE",
"125 408 LINE"
);
}
);
width = 564;
}
);
leftKerningGroup = T;
rightKerningGroup = T;
unicode = 0166;
},
{
glyphname = U;
lastChange = "2016-09-30 17:05:21 +0000";
layers = (
{
anchors = (
{
name = bottom;
position = "{341, 0}";
},
{
name = ogonek;
position = "{646, 10}";
},
{
name = top;
position = "{452, 700}";
},
{
name = topright;
position = "{814, 700}";
}
);
background = {
paths = (
{
closed = 1;
nodes = (
"542 -10 OFFCURVE",
"624 110 OFFCURVE",
"653 295 CURVE SMOOTH",
"705 620 LINE",
"789 640 LINE",
"799 700 LINE",
"523 695 LINE",
"514 640 LINE",
"604 620 LINE",
"550 285 LINE SMOOTH",
"526 135 OFFCURVE",
"475 75 OFFCURVE",
"355 75 CURVE SMOOTH",
"247 75 OFFCURVE",
"218 127 OFFCURVE",
"218 201 CURVE SMOOTH",
"218 222 OFFCURVE",
"220 246 OFFCURVE",
"224 270 CURVE SMOOTH",
"280 620 LINE",
"367 640 LINE",
"377 700 LINE",
"103 695 LINE",
"94 640 LINE",
"179 620 LINE",
"123 270 LINE SMOOTH",
"119 242 OFFCURVE",
"116 215 OFFCURVE",
"116 190 CURVE SMOOTH",
"116 72 OFFCURVE",
"170 -10 OFFCURVE",
"336 -10 CURVE SMOOTH"
);
}
);
};
layerId = "89F00A14-383C-41A8-AF30-A12CE933D7AF";
paths = (
{
closed = 1;
nodes = (
"542 -10 OFFCURVE",
"624 110 OFFCURVE",
"653 295 CURVE SMOOTH",
"705 620 LINE",
"789 640 LINE",
"799 700 LINE",
"523 695 LINE",
"514 640 LINE",
"604 620 LINE",
"550 285 LINE SMOOTH",
"526 135 OFFCURVE",
"475 75 OFFCURVE",
"355 75 CURVE SMOOTH",
"236 75 OFFCURVE",
"202 136 OFFCURVE",
"224 270 CURVE SMOOTH",
"280 620 LINE",
"367 640 LINE",
"377 700 LINE",
"103 695 LINE",
"94 640 LINE",
"179 620 LINE",
"123 270 LINE SMOOTH",
"97 87 OFFCURVE",
"151 -10 OFFCURVE",
"336 -10 CURVE SMOOTH"
);
}
);
width = 765;
},
{
anchors = (
{
name = bottom;
position = "{335, 0}";
},
{
name = ogonek;
position = "{637, 10}";
},
{
name = top;
position = "{447, 705}";
},
{
name = topright;
position = "{805, 705}";
}
);
background = {
paths = (
{
closed = 1;
nodes = (
"541 -12 OFFCURVE",
"628 102 OFFCURVE",
"658 292 CURVE SMOOTH",
"704 587 LINE",
"781 617 LINE",
"795 705 LINE",
"498 700 LINE",
"485 617 LINE",
"555 587 LINE",
"507 283 LINE SMOOTH",
"488 161 OFFCURVE",
"449 110 OFFCURVE",
"357 110 CURVE SMOOTH",
"273 110 OFFCURVE",
"249 151 OFFCURVE",
"249 214 CURVE SMOOTH",
"249 231 OFFCURVE",
"251 250 OFFCURVE",
"254 270 CURVE SMOOTH",
"305 587 LINE",
"380 617 LINE",
"394 705 LINE",
"98 700 LINE",
"85 617 LINE",
"156 587 LINE",
"105 270 LINE SMOOTH",
"100 241 OFFCURVE",
"98 213 OFFCURVE",
"98 188 CURVE SMOOTH",
"98 59 OFFCURVE",
"163 -12 OFFCURVE",
"336 -12 CURVE SMOOTH"
);
}
);
};
layerId = "6959900B-8A08-4E04-B0F8-C63132552E7A";
paths = (
{
closed = 1;
nodes = (
"541 -12 OFFCURVE",
"628 102 OFFCURVE",
"658 292 CURVE SMOOTH",
"704 587 LINE",
"781 617 LINE",
"795 705 LINE",
"498 700 LINE",
"485 617 LINE",
"555 587 LINE",
"507 283 LINE SMOOTH",
"488 161 OFFCURVE",
"449 110 OFFCURVE",
"357 110 CURVE SMOOTH",
"259 110 OFFCURVE",
"238 164 OFFCURVE",
"254 270 CURVE SMOOTH",
"305 587 LINE",
"380 617 LINE",
"394 705 LINE",
"98 700 LINE",
"85 617 LINE",
"156 587 LINE",
"105 270 LINE SMOOTH",
"72 76 OFFCURVE",
"145 -12 OFFCURVE",
"336 -12 CURVE SMOOTH"
);
}
);
width = 756;
}
);
leftKerningGroup = U;
rightKerningGroup = U;
unicode = 0055;
},
{
glyphname = Ucircumflex;
lastChange = "2016-08-25 08:49:19 +0000";
layers = (
{
components = (
{
name = U;
},
{
name = circumflexcomb.case;
transform = "{1, 0, 0, 1, 280, 0}";
}
);
layerId = "89F00A14-383C-41A8-AF30-A12CE933D7AF";
width = 765;
},
{
background = {
paths = (
{
closed = 1;
nodes = (
"295 587 LINE",
"370 617 LINE",
"384 705 LINE",
"88 700 LINE",
"75 617 LINE",
"146 587 LINE",
"95 270 LINE SMOOTH",
"90 241 OFFCURVE",
"88 213 OFFCURVE",
"88 188 CURVE SMOOTH",
"88 59 OFFCURVE",
"153 -12 OFFCURVE",
"326 -12 CURVE SMOOTH",
"531 -12 OFFCURVE",
"618 102 OFFCURVE",
"648 292 CURVE SMOOTH",
"694 587 LINE",
"771 617 LINE",
"785 705 LINE",
"488 700 LINE",
"475 617 LINE",
"545 587 LINE",
"497 283 LINE SMOOTH",
"478 161 OFFCURVE",
"439 110 OFFCURVE",
"347 110 CURVE SMOOTH",
"263 110 OFFCURVE",
"239 151 OFFCURVE",
"239 214 CURVE SMOOTH",
"239 231 OFFCURVE",
"241 250 OFFCURVE",
"244 270 CURVE SMOOTH"
);
},
{
closed = 1;
nodes = (
"458 842 LINE",
"585 742 LINE",
"641 807 LINE",
"511 951 LINE",
"424 944 LINE",
"252 807 LINE",
"294 742 LINE"
);
}
);
};
components = (
{
name = U;
},
{
name = circumflex;
transform = "{1, 0, 0, 1, 252, 120}";
}
);
layerId = "6959900B-8A08-4E04-B0F8-C63132552E7A";
width = 756;
}
);
leftKerningGroup = U;
rightKerningGroup = U;
unicode = 00DB;
},
{
glyphname = Udieresis;
lastChange = "2016-08-18 14:48:36 +0000";
layers = (
{
components = (
{
name = U;
},
{
name = dieresis;
transform = "{1, 0, 0, 1, 213, 125}";
}
);
layerId = "89F00A14-383C-41A8-AF30-A12CE933D7AF";
width = 765;
},
{
components = (
{
name = U;
transform = "{1, 0, 0, 1, -10, 0}";
},
{
name = dieresis;
transform = "{1, 0, 0, 1, 184, 136}";
}
);
layerId = "6959900B-8A08-4E04-B0F8-C63132552E7A";
paths = (
{
closed = 0;
nodes = (
"551 669 LINE"
);
}
);
width = 736;
}
);
leftKerningGroup = U;
rightKerningGroup = U;
unicode = 00DC;
},
{
glyphname = Uhorn;
lastChange = "2016-09-30 17:28:01 +0000";
layers = (
{
anchors = (
{
name = _topright;
position = "{813.5, 700}";
},
{
name = bottom;
position = "{341, 0}";
},
{
name = ogonek;
position = "{646, 10}";
},
{
name = top;
position = "{452, 700}";
},
{
name = topright;
position = "{813.5, 700}";
}
);
layerId = "89F00A14-383C-41A8-AF30-A12CE933D7AF";
paths = (
{
closed = 1;
nodes = (
"542 -10 OFFCURVE",
"624 110 OFFCURVE",
"653 295 CURVE SMOOTH",
"705 620 LINE",
"724 700 LINE",
"523 695 LINE",
"514 640 LINE",
"604 620 LINE",
"550 285 LINE SMOOTH",
"526 135 OFFCURVE",
"475 75 OFFCURVE",
"355 75 CURVE SMOOTH",
"236 75 OFFCURVE",
"202 136 OFFCURVE",
"224 270 CURVE SMOOTH",
"280 620 LINE",
"367 640 LINE",
"377 700 LINE",
"103 695 LINE",
"94 640 LINE",
"179 620 LINE",
"123 270 LINE SMOOTH",
"97 87 OFFCURVE",
"151 -10 OFFCURVE",
"336 -10 CURVE SMOOTH"
);
},
{
closed = 1;
nodes = (
"722 634 OFFCURVE",
"819 673 OFFCURVE",
"843 789 CURVE",
"765 789 LINE",
"749 736 OFFCURVE",
"704 700 OFFCURVE",
"651 700 CURVE",
"638 634 LINE"
);
}
);
width = 765;
},
{
anchors = (
{
name = _topright;
position = "{805.306, 705}";
},
{
name = bottom;
position = "{335, 0}";
},
{
name = ogonek;
position = "{637, 10}";
},
{
name = top;
position = "{447, 705}";
},
{
name = topright;
position = "{805, 705}";
}
);
layerId = "6959900B-8A08-4E04-B0F8-C63132552E7A";
paths = (
{
closed = 1;
nodes = (
"541 -12 OFFCURVE",
"628 102 OFFCURVE",
"658 292 CURVE SMOOTH",
"704 587 LINE",
"728 705 LINE",
"498 700 LINE",
"485 617 LINE",
"555 587 LINE",
"507 283 LINE SMOOTH",
"488 161 OFFCURVE",
"449 110 OFFCURVE",
"357 110 CURVE SMOOTH",
"259 110 OFFCURVE",
"238 164 OFFCURVE",
"254 270 CURVE SMOOTH",
"305 587 LINE",
"380 617 LINE",
"394 705 LINE",
"98 700 LINE",
"85 617 LINE",
"156 587 LINE",
"105 270 LINE SMOOTH",
"72 76 OFFCURVE",
"145 -12 OFFCURVE",
"336 -12 CURVE SMOOTH"
);
},
{
closed = 1;
nodes = (
"711 618 OFFCURVE",
"830 678 OFFCURVE",
"854 794 CURVE",
"758 794 LINE",
"742 741 OFFCURVE",
"697 705 OFFCURVE",
"644 705 CURVE",
"627 618 LINE"
);
}
);
width = 756;
}
);
leftKerningGroup = U;
rightKerningGroup = U;
unicode = 01AF;
},
{
glyphname = Umacron;
lastChange = "2016-08-18 14:48:36 +0000";
layers = (
{
components = (
{
name = U;
},
{
name = macron;
transform = "{1, 0, 0, 1, 311, 120}";
}
);
layerId = "89F00A14-383C-41A8-AF30-A12CE933D7AF";
width = 765;
},
{
background = {
paths = (
{
closed = 1;
nodes = (
"295 587 LINE",
"370 617 LINE",
"384 705 LINE",
"88 700 LINE",
"75 617 LINE",
"146 587 LINE",
"95 270 LINE SMOOTH",
"90 241 OFFCURVE",
"88 213 OFFCURVE",
"88 188 CURVE SMOOTH",
"88 59 OFFCURVE",
"153 -12 OFFCURVE",
"326 -12 CURVE SMOOTH",
"531 -12 OFFCURVE",
"618 102 OFFCURVE",
"648 292 CURVE SMOOTH",
"694 587 LINE",
"771 617 LINE",
"785 705 LINE",
"488 700 LINE",
"475 617 LINE",
"545 587 LINE",
"497 283 LINE SMOOTH",
"478 161 OFFCURVE",
"439 110 OFFCURVE",
"347 110 CURVE SMOOTH",
"263 110 OFFCURVE",
"239 151 OFFCURVE",
"239 214 CURVE SMOOTH",
"239 231 OFFCURVE",
"241 250 OFFCURVE",
"244 270 CURVE SMOOTH"
);
},
{
closed = 1;
nodes = (
"289 796 LINE",
"580 796 LINE",
"598 901 LINE",
"307 901 LINE"
);
}
);
};
components = (
{
name = U;
},
{
name = macron;
transform = "{1, 0, 0, 1, 289, 154}";
}
);
layerId = "6959900B-8A08-4E04-B0F8-C63132552E7A";
width = 756;
}
);
leftKerningGroup = U;
rightKerningGroup = U;
unicode = 016A;
},
{
glyphname = Uogonek;
lastChange = "2016-08-18 14:48:36 +0000";
layers = (
{
layerId = "89F00A14-383C-41A8-AF30-A12CE933D7AF";
paths = (
{
closed = 1;
nodes = (
"357 -220 OFFCURVE",
"399 -200 OFFCURVE",
"399 -200 CURVE",
"397 -153 LINE",
"397 -153 OFFCURVE",
"371 -160 OFFCURVE",
"351 -160 CURVE SMOOTH",
"329 -160 OFFCURVE",
"313 -147 OFFCURVE",
"313 -124 CURVE SMOOTH",
"313 -67 OFFCURVE",
"399 -20 OFFCURVE",
"466 10 CURVE SMOOTH",
"534 40 OFFCURVE",
"622 101 OFFCURVE",
"653 295 CURVE SMOOTH",
"705 620 LINE",
"789 640 LINE",
"799 700 LINE",
"523 695 LINE",
"514 640 LINE",
"604 620 LINE",
"550 285 LINE SMOOTH",
"526 135 OFFCURVE",
"475 75 OFFCURVE",
"355 75 CURVE SMOOTH",
"247 75 OFFCURVE",
"218 127 OFFCURVE",
"218 201 CURVE SMOOTH",
"218 222 OFFCURVE",
"220 246 OFFCURVE",
"224 270 CURVE SMOOTH",
"280 620 LINE",
"367 640 LINE",
"377 700 LINE",
"103 695 LINE",
"94 640 LINE",
"179 620 LINE",
"123 270 LINE SMOOTH",
"119 242 OFFCURVE",
"116 215 OFFCURVE",
"116 190 CURVE SMOOTH",
"116 72.414 OFFCURVE",
"169.622 -9 OFFCURVE",
"334.255 -10 CURVE",
"300.507 -30 OFFCURVE",
"233 -77 OFFCURVE",
"233 -145 CURVE SMOOTH",
"233 -193 OFFCURVE",
"270 -220 OFFCURVE",
"318 -220 CURVE SMOOTH"
);
}
);
width = 765;
},
{
layerId = "6959900B-8A08-4E04-B0F8-C63132552E7A";
paths = (
{
closed = 1;
nodes = (
"344 -235 OFFCURVE",
"397 -211 OFFCURVE",
"397 -211 CURVE",
"392 -140 LINE",
"392 -140 OFFCURVE",
"369 -147 OFFCURVE",
"352 -147 CURVE SMOOTH",
"331 -147 OFFCURVE",
"318 -135 OFFCURVE",
"318 -117 CURVE SMOOTH",
"318 -67 OFFCURVE",
"414 -13 OFFCURVE",
"456 8 CURVE SMOOTH",
"515 37 OFFCURVE",
"614 72 OFFCURVE",
"648 292 CURVE SMOOTH",
"694 587 LINE",
"771 617 LINE",
"785 705 LINE",
"488 700 LINE",
"475 617 LINE",
"545 587 LINE",
"497 283 LINE SMOOTH",
"478 161 OFFCURVE",
"439 110 OFFCURVE",
"347 110 CURVE SMOOTH",
"263 110 OFFCURVE",
"239 151 OFFCURVE",
"239 214 CURVE SMOOTH",
"239 231 OFFCURVE",
"241 250 OFFCURVE",
"244 270 CURVE SMOOTH",
"295 587 LINE",
"370 617 LINE",
"384 705 LINE",
"88 700 LINE",
"75 617 LINE",
"146 587 LINE",
"95 270 LINE SMOOTH",
"90 241 OFFCURVE",
"88 213 OFFCURVE",
"88 188 CURVE SMOOTH",
"88 65 OFFCURVE",
"147 -5 OFFCURVE",
"303 -11 CURVE",
"263 -36 OFFCURVE",
"202 -85 OFFCURVE",
"202 -152 CURVE SMOOTH",
"202 -206 OFFCURVE",
"243 -235 OFFCURVE",
"295 -235 CURVE SMOOTH"
);
}
);
width = 735;
}
);
leftKerningGroup = U;
rightKerningGroup = U;
unicode = 0172;
},
{
glyphname = Uring;
lastChange = "2016-08-18 14:48:36 +0000";
layers = (
{
components = (
{
name = U;
},
{
name = ring;
transform = "{1, 0, 0, 1, 279, 140}";
}
);
guideLines = (
{
position = "{563, 735}";
}
);
layerId = "89F00A14-383C-41A8-AF30-A12CE933D7AF";
width = 765;
},
{
components = (
{
name = U;
transform = "{1, 0, 0, 1, -10, 0}";
},
{
name = ring;
transform = "{1, 0, 0, 1, 269, 138}";
}
);
guideLines = (
{
position = "{542, 735}";
}
);
layerId = "6959900B-8A08-4E04-B0F8-C63132552E7A";
paths = (
{
closed = 0;
nodes = (
"265 619 LINE"
);
}
);
width = 736;
}
);
leftKerningGroup = U;
rightKerningGroup = U;
unicode = 016E;
},
{
glyphname = Utilde;
lastChange = "2016-09-30 17:09:27 +0000";
layers = (
{
components = (
{
name = U;
},
{
name = tildecomb.case;
transform = "{1, 0, 0, 1, 279, 0}";
}
);
layerId = "89F00A14-383C-41A8-AF30-A12CE933D7AF";
width = 765;
},
{
background = {
paths = (
{
closed = 1;
nodes = (
"295 587 LINE",
"370 617 LINE",
"384 705 LINE",
"88 700 LINE",
"75 617 LINE",
"146 587 LINE",
"95 270 LINE SMOOTH",
"90 241 OFFCURVE",
"88 213 OFFCURVE",
"88 188 CURVE SMOOTH",
"88 59 OFFCURVE",
"153 -12 OFFCURVE",
"326 -12 CURVE SMOOTH",
"531 -12 OFFCURVE",
"618 102 OFFCURVE",
"648 292 CURVE SMOOTH",
"694 587 LINE",
"771 617 LINE",
"785 705 LINE",
"488 700 LINE",
"475 617 LINE",
"545 587 LINE",
"497 283 LINE SMOOTH",
"478 161 OFFCURVE",
"439 110 OFFCURVE",
"347 110 CURVE SMOOTH",
"263 110 OFFCURVE",
"239 151 OFFCURVE",
"239 214 CURVE SMOOTH",
"239 231 OFFCURVE",
"241 250 OFFCURVE",
"244 270 CURVE SMOOTH"
);
},
{
closed = 1;
nodes = (
"298 780 LINE",
"298 780 OFFCURVE",
"335 821 OFFCURVE",
"376 821 CURVE SMOOTH",
"434 821 OFFCURVE",
"473 777 OFFCURVE",
"541 777 CURVE SMOOTH",
"620 777 OFFCURVE",
"679 886 OFFCURVE",
"679 886 CURVE",
"634 925 LINE",
"634 925 OFFCURVE",
"599 883 OFFCURVE",
"561 883 CURVE SMOOTH",
"503 883 OFFCURVE",
"469 928 OFFCURVE",
"401 928 CURVE SMOOTH",
"321 928 OFFCURVE",
"260 821 OFFCURVE",
"260 821 CURVE"
);
}
);
};
components = (
{
name = U;
},
{
name = tildecomb;
transform = "{1, 0, 0, 1, 268, 165}";
}
);
layerId = "6959900B-8A08-4E04-B0F8-C63132552E7A";
width = 756;
}
);
leftKerningGroup = U;
rightKerningGroup = U;
unicode = 0168;
},
{
glyphname = V;
lastChange = "2016-08-18 14:48:36 +0000";
layers = (
{
layerId = "89F00A14-383C-41A8-AF30-A12CE933D7AF";
paths = (
{
closed = 1;
nodes = (
"250 0 LINE",
"345 0 LINE",
"649 620 LINE",
"731 640 LINE",
"741 700 LINE",
"473 695 LINE",
"463 640 LINE",
"543 620 LINE",
"326 145 LINE",
"230 700 LINE",
"53 695 LINE",
"44 640 LINE",
"129 620 LINE"
);
}
);
width = 672;
},
{
layerId = "6959900B-8A08-4E04-B0F8-C63132552E7A";
paths = (
{
closed = 1;
nodes = (
"219 0 LINE",
"372 0 LINE",
"662 587 LINE",
"732 617 LINE",
"746 705 LINE",
"461 700 LINE",
"446 617 LINE",
"512 588 LINE",
"337 201 LINE",
"258 705 LINE",
"54 700 LINE",
"40 617 LINE",
"110 590 LINE"
);
}
);
width = 667;
}
);
leftKerningGroup = V;
rightKerningGroup = V;
unicode = 0056;
},
{
glyphname = W;
lastChange = "2016-08-18 14:48:36 +0000";
layers = (
{
layerId = "89F00A14-383C-41A8-AF30-A12CE933D7AF";
paths = (
{
closed = 1;
nodes = (
"303 0 LINE",
"527 485 LINE",
"614 0 LINE",
"677 0 LINE",
"964 621 LINE",
"1041 640 LINE",
"1051 700 LINE",
"783 695 LINE",
"773 640 LINE",
"859 620 LINE",
"671 178 LINE",
"591 700 LINE",
"528 695 LINE",
"306 185 LINE",
"230 699 LINE",
"53 695 LINE",
"44 640 LINE",
"128 620 LINE",
"238 0 LINE"
);
}
);
width = 967;
},
{
layerId = "6959900B-8A08-4E04-B0F8-C63132552E7A";
paths = (
{
closed = 1;
nodes = (
"325 0 LINE",
"522 440 LINE",
"587 0 LINE",
"704 0 LINE",
"971 588 LINE",
"1043 617 LINE",
"1058 705 LINE",
"780 700 LINE",
"765 617 LINE",
"834 588 LINE",
"686 231 LINE",
"623 705 LINE",
"507 697 LINE",
"313 234 LINE",
"251 705 LINE",
"58 700 LINE",
"45 617 LINE",
"115 590 LINE",
"208 0 LINE"
);
}
);
width = 978;
}
);
leftKerningGroup = V;
rightKerningGroup = V;
unicode = 0057;
},
{
glyphname = Wcircumflex;
lastChange = "2016-08-25 08:49:19 +0000";
layers = (
{
components = (
{
name = W;
},
{
name = circumflexcomb.case;
transform = "{1, 0, 0, 1, 388, 0}";
}
);
layerId = "89F00A14-383C-41A8-AF30-A12CE933D7AF";
width = 967;
},
{
background = {
paths = (
{
closed = 1;
nodes = (
"198 0 LINE",
"315 0 LINE",
"512 440 LINE",
"577 0 LINE",
"694 0 LINE",
"961 588 LINE",
"1033 617 LINE",
"1048 705 LINE",
"770 700 LINE",
"755 617 LINE",
"824 588 LINE",
"676 231 LINE",
"613 705 LINE",
"497 697 LINE",
"303 234 LINE",
"241 705 LINE",
"48 700 LINE",
"35 617 LINE",
"105 590 LINE"
);
},
{
closed = 1;
nodes = (
"571 842 LINE",
"698 742 LINE",
"754 807 LINE",
"624 951 LINE",
"537 944 LINE",
"365 807 LINE",
"407 742 LINE"
);
}
);
};
components = (
{
name = W;
},
{
name = circumflex;
transform = "{1, 0, 0, 1, 365, 120}";
}
);
layerId = "6959900B-8A08-4E04-B0F8-C63132552E7A";
width = 978;
}
);
leftKerningGroup = V;
rightKerningGroup = V;
unicode = 0174;
},
{
glyphname = Wdieresis;
lastChange = "2016-08-18 14:48:36 +0000";
layers = (
{
components = (
{
name = W;
},
{
name = dieresis;
transform = "{1, 0, 0, 1, 308, 125}";
}
);
layerId = "89F00A14-383C-41A8-AF30-A12CE933D7AF";
width = 967;
},
{
background = {
paths = (
{
closed = 1;
nodes = (
"198 0 LINE",
"315 0 LINE",
"512 440 LINE",
"577 0 LINE",
"694 0 LINE",
"961 588 LINE",
"1033 617 LINE",
"1048 705 LINE",
"770 700 LINE",
"755 617 LINE",
"824 588 LINE",
"676 231 LINE",
"613 705 LINE",
"497 697 LINE",
"303 234 LINE",
"241 705 LINE",
"48 700 LINE",
"35 617 LINE",
"105 590 LINE"
);
},
{
closed = 1;
nodes = (
"394 793 OFFCURVE",
"417 770 OFFCURVE",
"454 770 CURVE SMOOTH",
"507 770 OFFCURVE",
"539 814 OFFCURVE",
"539 865 CURVE SMOOTH",
"539 903 OFFCURVE",
"515 926 OFFCURVE",
"477 926 CURVE SMOOTH",
"423 926 OFFCURVE",
"394 881 OFFCURVE",
"394 830 CURVE SMOOTH"
);
},
{
closed = 1;
nodes = (
"607 793 OFFCURVE",
"630 770 OFFCURVE",
"667 770 CURVE SMOOTH",
"720 770 OFFCURVE",
"751 814 OFFCURVE",
"751 865 CURVE SMOOTH",
"751 903 OFFCURVE",
"727 926 OFFCURVE",
"689 926 CURVE SMOOTH",
"636 926 OFFCURVE",
"607 881 OFFCURVE",
"607 830 CURVE SMOOTH"
);
}
);
};
components = (
{
name = W;
},
{
name = dieresis;
transform = "{1, 0, 0, 1, 292, 136}";
}
);
layerId = "6959900B-8A08-4E04-B0F8-C63132552E7A";
width = 978;
}
);
leftKerningGroup = V;
rightKerningGroup = V;
unicode = 1E84;
},
{
glyphname = X;
lastChange = "2016-08-18 14:48:36 +0000";
layers = (
{
layerId = "89F00A14-383C-41A8-AF30-A12CE933D7AF";
paths = (
{
closed = 1;
nodes = (
"210 0 LINE",
"220 60 LINE",
"157 78 LINE",
"311 275 LINE",
"405 73 LINE",
"341 60 LINE",
"331 0 LINE",
"598 0 LINE",
"608 60 LINE",
"521 80 LINE",
"383 362 LINE",
"589 618 LINE",
"696 640 LINE",
"706 700 LINE",
"441 695 LINE",
"431 640 LINE",
"484 626 LINE",
"335 437 LINE",
"248 624 LINE",
"311 640 LINE",
"321 700 LINE",
"54 695 LINE",
"44 640 LINE",
"128 621 LINE",
"261 351 LINE",
"48 79 LINE",
"-45 60 LINE",
"-55 0 LINE"
);
}
);
width = 626;
},
{
layerId = "6959900B-8A08-4E04-B0F8-C63132552E7A";
paths = (
{
closed = 1;
nodes = (
"244 0 LINE",
"258 87 LINE",
"210 104 LINE",
"325 244 LINE",
"395 99 LINE",
"347 87 LINE",
"333 0 LINE",
"632 0 LINE",
"646 87 LINE",
"578 107 LINE",
"439 363 LINE",
"646 596 LINE",
"722 617 LINE",
"736 705 LINE",
"454 700 LINE",
"441 617 LINE",
"483 599 LINE",
"370 463 LINE",
"300 602 LINE",
"349 617 LINE",
"363 705 LINE",
"68 700 LINE",
"55 617 LINE",
"117 598 LINE",
"253 350 LINE",
"47 110 LINE",
"-29 87 LINE",
"-43 0 LINE"
);
}
);
width = 665;
}
);
leftKerningGroup = X;
rightKerningGroup = X;
unicode = 0058;
},
{
glyphname = Y;
lastChange = "2016-09-30 17:05:21 +0000";
layers = (
{
anchors = (
{
name = bottom;
position = "{261, 0}";
},
{
name = top;
position = "{372, 700}";
},
{
name = topleft;
position = "{89, 700}";
}
);
guideLines = (
{
position = "{608, 640}";
}
);
layerId = "89F00A14-383C-41A8-AF30-A12CE933D7AF";
paths = (
{
closed = 1;
nodes = (
"382 0 LINE",
"392 60 LINE",
"309 80 LINE",
"333 231 LINE",
"580 620 LINE",
"660 640 LINE",
"670 700 LINE",
"401 695 LINE",
"391 640 LINE",
"481 621 LINE",
"313 334 LINE",
"213 700 LINE",
"58 695 LINE",
"49 640 LINE",
"133 620 LINE",
"237 262 LINE",
"209 80 LINE",
"119 60 LINE",
"109 0 LINE"
);
}
);
width = 606;
},
{
anchors = (
{
name = bottom;
position = "{266, 0}";
},
{
name = top;
position = "{378, 705}";
},
{
name = topleft;
position = "{89, 705}";
}
);
layerId = "6959900B-8A08-4E04-B0F8-C63132552E7A";
paths = (
{
closed = 1;
nodes = (
"411 0 LINE",
"425 87 LINE",
"355 112 LINE",
"374 230 LINE",
"603 589 LINE",
"677 617 LINE",
"691 705 LINE",
"408 700 LINE",
"395 617 LINE",
"463 595 LINE",
"336 376 LINE",
"246 705 LINE",
"58 700 LINE",
"45 617 LINE",
"121 595 LINE",
"228 246 LINE",
"207 112 LINE",
"129 87 LINE",
"115 0 LINE"
);
}
);
width = 617;
}
);
leftKerningGroup = Y;
rightKerningGroup = Y;
unicode = 0059;
},
{
glyphname = Ycircumflex;
lastChange = "2016-08-25 08:49:19 +0000";
layers = (
{
components = (
{
name = Y;
},
{
name = circumflexcomb.case;
transform = "{1, 0, 0, 1, 195, 0}";
}
);
layerId = "89F00A14-383C-41A8-AF30-A12CE933D7AF";
width = 606;
},
{
background = {
paths = (
{
closed = 1;
nodes = (
"355 112 LINE",
"374 230 LINE",
"603 589 LINE",
"677 617 LINE",
"691 705 LINE",
"408 700 LINE",
"395 617 LINE",
"463 595 LINE",
"336 376 LINE",
"246 705 LINE",
"58 700 LINE",
"45 617 LINE",
"121 595 LINE",
"228 246 LINE",
"207 112 LINE",
"129 87 LINE",
"115 0 LINE",
"411 0 LINE",
"425 87 LINE"
);
},
{
closed = 1;
nodes = (
"378 842 LINE",
"505 742 LINE",
"561 807 LINE",
"431 951 LINE",
"344 944 LINE",
"172 807 LINE",
"214 742 LINE"
);
}
);
};
components = (
{
name = Y;
},
{
name = circumflex;
transform = "{1, 0, 0, 1, 182, 120}";
}
);
layerId = "6959900B-8A08-4E04-B0F8-C63132552E7A";
width = 617;
}
);
leftKerningGroup = Y;
rightKerningGroup = Y;
unicode = 0176;
},
{
glyphname = Z;
lastChange = "2016-08-18 14:48:36 +0000";
layers = (
{
layerId = "89F00A14-383C-41A8-AF30-A12CE933D7AF";
paths = (
{
closed = 1;
nodes = (
"500 0 LINE",
"529 182 LINE",
"463 182 LINE",
"427 80 LINE",
"159 80 LINE",
"578 634 LINE",
"583 700 LINE",
"114 700 LINE",
"90 530 LINE",
"146 530 LINE",
"186 619 LINE",
"450 619 LINE",
"34 70 LINE",
"29 0 LINE"
);
}
);
width = 587;
},
{
layerId = "6959900B-8A08-4E04-B0F8-C63132552E7A";
paths = (
{
closed = 1;
nodes = (
"516 0 LINE",
"551 221 LINE",
"458 221 LINE",
"420 117 LINE",
"215 117 LINE",
"586 594 LINE",
"598 705 LINE",
"104 705 LINE",
"75 502 LINE",
"163 502 LINE",
"199 587 LINE",
"399 587 LINE",
"25 104 LINE",
"11 0 LINE"
);
}
);
width = 594;
}
);
leftKerningGroup = Z;
rightKerningGroup = Z;
unicode = 005A;
},
{
glyphname = a;
lastChange = "2016-09-30 17:24:55 +0000";
layers = (
{
anchors = (
{
name = bottom;
position = "{255, 0}";
},
{
name = ogonek;
position = "{492, 10}";
},
{
name = top;
position = "{339, 530}";
}
);
layerId = "89F00A14-383C-41A8-AF30-A12CE933D7AF";
paths = (
{
closed = 1;
nodes = (
"454 80 LINE",
"526 530 LINE",
"471 530 LINE",
"441 510 LINE",
"441 510 OFFCURVE",
"394 540 OFFCURVE",
"329 540 CURVE SMOOTH",
"179 540 OFFCURVE",
"31 410 OFFCURVE",
"31 165 CURVE SMOOTH",
"31 65 OFFCURVE",
"87 -10 OFFCURVE",
"162 -10 CURVE SMOOTH",
"293 -10 OFFCURVE",
"380 172 OFFCURVE",
"386 184 CURVE",
"346 0 LINE",
"532 10 LINE",
"541 65 LINE"
);
},
{
closed = 1;
nodes = (
"399 345 LINE",
"399 345 OFFCURVE",
"312 75 OFFCURVE",
"192 75 CURVE SMOOTH",
"157 75 OFFCURVE",
"131 110 OFFCURVE",
"131 180 CURVE SMOOTH",
"131 380 OFFCURVE",
"234 465 OFFCURVE",
"329 465 CURVE SMOOTH",
"381 465 OFFCURVE",
"419 450 OFFCURVE",
"419 450 CURVE"
);
}
);
width = 593;
},
{
anchors = (
{
name = bottom;
position = "{265, 0}";
},
{
name = ogonek;
position = "{510, 10}";
},
{
name = top;
position = "{378, 540}";
}
);
layerId = "6959900B-8A08-4E04-B0F8-C63132552E7A";
paths = (
{
closed = 1;
nodes = (
"499 104 LINE",
"569 540 LINE",
"478 540 LINE",
"449 513 LINE",
"449 513 OFFCURVE",
"401 550 OFFCURVE",
"332 550 CURVE SMOOTH",
"177 550 OFFCURVE",
"26 421 OFFCURVE",
"26 171 CURVE SMOOTH",
"26 70 OFFCURVE",
"81 -10 OFFCURVE",
"169 -10 CURVE SMOOTH",
"295 -10 OFFCURVE",
"378 138 OFFCURVE",
"383 148 CURVE",
"348 0 LINE",
"563 10 LINE",
"576 89 LINE"
);
},
{
closed = 1;
nodes = (
"392 347 LINE",
"392 347 OFFCURVE",
"325 107 OFFCURVE",
"225 107 CURVE SMOOTH",
"195 107 OFFCURVE",
"176 137 OFFCURVE",
"176 190 CURVE SMOOTH",
"176 335 OFFCURVE",
"242 442 OFFCURVE",
"334 442 CURVE SMOOTH",
"378 442 OFFCURVE",
"407 430 OFFCURVE",
"407 430 CURVE"
);
}
);
width = 615;
}
);
leftKerningGroup = a;
rightKerningGroup = a;
unicode = 0061;
},
{
glyphname = aacute;
lastChange = "2016-09-30 17:24:57 +0000";
layers = (
{
components = (
{
name = a;
},
{
name = acutecomb;
transform = "{1, 0, 0, 1, 24, 0}";
}
);
layerId = "89F00A14-383C-41A8-AF30-A12CE933D7AF";
width = 593;
},
{
background = {
paths = (
{
closed = 1;
nodes = (
"499 104 LINE",
"569 540 LINE",
"478 540 LINE",
"449 513 LINE",
"449 513 OFFCURVE",
"401 550 OFFCURVE",
"332 550 CURVE SMOOTH",
"177 550 OFFCURVE",
"26 421 OFFCURVE",
"26 171 CURVE SMOOTH",
"26 70 OFFCURVE",
"81 -10 OFFCURVE",
"169 -10 CURVE SMOOTH",
"295 -10 OFFCURVE",
"378 138 OFFCURVE",
"383 148 CURVE",
"348 0 LINE",
"563 10 LINE",
"576 89 LINE"
);
},
{
closed = 1;
nodes = (
"392 347 LINE",
"392 347 OFFCURVE",
"325 107 OFFCURVE",
"225 107 CURVE SMOOTH",
"195 107 OFFCURVE",
"176 137 OFFCURVE",
"176 190 CURVE SMOOTH",
"176 335 OFFCURVE",
"242 442 OFFCURVE",
"334 442 CURVE SMOOTH",
"378 442 OFFCURVE",
"407 430 OFFCURVE",
"407 430 CURVE"
);
},
{
closed = 1;
nodes = (
"570 741 LINE",
"518 845 LINE",
"269 673 LINE",
"315 600 LINE"
);
}
);
};
components = (
{
name = a;
},
{
name = acutecomb;
transform = "{1, 0, 0, 1, 27, 0}";
}
);
layerId = "6959900B-8A08-4E04-B0F8-C63132552E7A";
width = 615;
}
);
leftKerningGroup = a;
rightKerningGroup = a;
unicode = 00E1;
},
{
glyphname = abreve;
lastChange = "2016-09-30 17:04:25 +0000";
layers = (
{
components = (
{
name = a;
},
{
name = brevecomb;
transform = "{1, 0, 0, 1, 134, 0}";
}
);
guideLines = (
{
position = "{153, 615}";
}
);
layerId = "89F00A14-383C-41A8-AF30-A12CE933D7AF";
width = 593;
},
{
components = (
{
name = a;
},
{
name = brevecomb;
transform = "{1, 0, 0, 1, 137, 16}";
}
);
layerId = "6959900B-8A08-4E04-B0F8-C63132552E7A";
paths = (
{
closed = 0;
nodes = (
"297 508 LINE"
);
}
);
width = 615;
}
);
leftKerningGroup = a;
rightKerningGroup = a;
unicode = 0103;
},
{
glyphname = acircumflex;
lastChange = "2016-09-30 17:28:16 +0000";
layers = (
{
components = (
{
name = a;
},
{
name = circumflex;
transform = "{1, 0, 0, 1, 174, 0}";
}
);
layerId = "89F00A14-383C-41A8-AF30-A12CE933D7AF";
width = 593;
},
{
background = {
paths = (
{
closed = 1;
nodes = (
"496 104 LINE",
"566 540 LINE",
"478 540 LINE",
"449 513 LINE",
"449 513 OFFCURVE",
"401 550 OFFCURVE",
"332 550 CURVE SMOOTH",
"177 550 OFFCURVE",
"28 421 OFFCURVE",
"28 171 CURVE SMOOTH",
"28 70 OFFCURVE",
"81 -10 OFFCURVE",
"169 -10 CURVE SMOOTH",
"295 -10 OFFCURVE",
"378 138 OFFCURVE",
"383 148 CURVE",
"348 0 LINE",
"560 10 LINE",
"573 89 LINE"
);
},
{
closed = 1;
nodes = (
"392 347 LINE",
"392 347 OFFCURVE",
"325 107 OFFCURVE",
"225 107 CURVE SMOOTH",
"195 107 OFFCURVE",
"176 137 OFFCURVE",
"176 190 CURVE SMOOTH",
"176 335 OFFCURVE",
"242 442 OFFCURVE",
"334 442 CURVE SMOOTH",
"378 442 OFFCURVE",
"407 430 OFFCURVE",
"407 430 CURVE"
);
},
{
closed = 1;
nodes = (
"359 719 LINE",
"486 619 LINE",
"542 684 LINE",
"412 828 LINE",
"325 821 LINE",
"153 684 LINE",
"195 619 LINE"
);
}
);
};
components = (
{
name = a;
},
{
name = circumflex;
transform = "{1, 0, 0, 1, 152, -3}";
}
);
layerId = "6959900B-8A08-4E04-B0F8-C63132552E7A";
width = 615;
}
);
leftKerningGroup = a;
rightKerningGroup = a;
unicode = 00E2;
},
{
glyphname = amacron;
lastChange = "2016-08-18 14:48:36 +0000";
layers = (
{
components = (
{
name = a;
},
{
name = macron;
transform = "{1, 0, 0, 1, 217, 0}";
}
);
layerId = "89F00A14-383C-41A8-AF30-A12CE933D7AF";
width = 593;
},
{
background = {
paths = (
{
closed = 1;
nodes = (
"495 104 LINE",
"565 540 LINE",
"477 540 LINE",
"448 513 LINE",
"448 513 OFFCURVE",
"400 550 OFFCURVE",
"331 550 CURVE SMOOTH",
"176 550 OFFCURVE",
"27 421 OFFCURVE",
"27 171 CURVE SMOOTH",
"27 70 OFFCURVE",
"80 -10 OFFCURVE",
"168 -10 CURVE SMOOTH",
"294 -10 OFFCURVE",
"377 138 OFFCURVE",
"382 148 CURVE",
"347 0 LINE",
"559 10 LINE",
"572 89 LINE"
);
},
{
closed = 1;
nodes = (
"391 347 LINE",
"391 347 OFFCURVE",
"324 107 OFFCURVE",
"224 107 CURVE SMOOTH",
"194 107 OFFCURVE",
"175 137 OFFCURVE",
"175 190 CURVE SMOOTH",
"175 335 OFFCURVE",
"241 442 OFFCURVE",
"333 442 CURVE SMOOTH",
"377 442 OFFCURVE",
"406 430 OFFCURVE",
"406 430 CURVE"
);
},
{
closed = 1;
nodes = (
"197 642 LINE",
"488 642 LINE",
"506 747 LINE",
"215 747 LINE"
);
}
);
};
components = (
{
name = a;
},
{
name = macron;
transform = "{1, 0, 0, 1, 198, 0}";
}
);
layerId = "6959900B-8A08-4E04-B0F8-C63132552E7A";
width = 615;
}
);
leftKerningGroup = a;
rightKerningGroup = a;
unicode = 0101;
},
{
glyphname = aogonek;
lastChange = "2016-08-18 14:48:36 +0000";
layers = (
{
layerId = "89F00A14-383C-41A8-AF30-A12CE933D7AF";
paths = (
{
closed = 1;
nodes = (
"440 -220 OFFCURVE",
"482 -200 OFFCURVE",
"482 -200 CURVE",
"482 -153 LINE",
"473 -156 OFFCURVE",
"455 -160 OFFCURVE",
"436 -160 CURVE SMOOTH",
"414 -160 OFFCURVE",
"397 -148 OFFCURVE",
"397 -124 CURVE SMOOTH",
"397 -46 OFFCURVE",
"502 -5 OFFCURVE",
"532 10 CURVE",
"541 65 LINE",
"454 80 LINE",
"526 530 LINE",
"471 530 LINE",
"441 510 LINE",
"441 510 OFFCURVE",
"394 540 OFFCURVE",
"329 540 CURVE SMOOTH",
"179 540 OFFCURVE",
"31 410 OFFCURVE",
"31 165 CURVE SMOOTH",
"31 65 OFFCURVE",
"87 -10 OFFCURVE",
"162 -10 CURVE SMOOTH",
"293 -10 OFFCURVE",
"380 172 OFFCURVE",
"386 184 CURVE",
"346 0 LINE",
"428 4 LINE",
"384 -20 OFFCURVE",
"317 -72 OFFCURVE",
"317 -142 CURVE SMOOTH",
"317 -190 OFFCURVE",
"354 -220 OFFCURVE",
"401 -220 CURVE SMOOTH"
);
},
{
closed = 1;
nodes = (
"157 75 OFFCURVE",
"131 110 OFFCURVE",
"131 180 CURVE SMOOTH",
"131 380 OFFCURVE",
"234 465 OFFCURVE",
"329 465 CURVE SMOOTH",
"381 465 OFFCURVE",
"419 450 OFFCURVE",
"419 450 CURVE",
"399 345 LINE",
"399 345 OFFCURVE",
"312 75 OFFCURVE",
"192 75 CURVE SMOOTH"
);
}
);
width = 593;
},
{
layerId = "6959900B-8A08-4E04-B0F8-C63132552E7A";
paths = (
{
closed = 1;
nodes = (
"442 -235 OFFCURVE",
"495 -211 OFFCURVE",
"495 -211 CURVE",
"490 -140 LINE",
"490 -140 OFFCURVE",
"467 -147 OFFCURVE",
"450 -147 CURVE SMOOTH",
"429 -147 OFFCURVE",
"416 -135 OFFCURVE",
"416 -117 CURVE SMOOTH",
"416 -62 OFFCURVE",
"546 6 OFFCURVE",
"553 10 CURVE",
"566 89 LINE",
"489 104 LINE",
"559 540 LINE",
"471 540 LINE",
"442 513 LINE",
"442 513 OFFCURVE",
"394 550 OFFCURVE",
"325 550 CURVE SMOOTH",
"170 550 OFFCURVE",
"21 421 OFFCURVE",
"21 171 CURVE SMOOTH",
"21 70 OFFCURVE",
"74 -10 OFFCURVE",
"162 -10 CURVE SMOOTH",
"288 -10 OFFCURVE",
"371 138 OFFCURVE",
"376 148 CURVE",
"341 0 LINE",
"428 4 LINE",
"393 -14 OFFCURVE",
"300 -69 OFFCURVE",
"300 -152 CURVE SMOOTH",
"300 -206 OFFCURVE",
"341 -235 OFFCURVE",
"393 -235 CURVE SMOOTH"
);
},
{
closed = 1;
nodes = (
"188 107 OFFCURVE",
"169 137 OFFCURVE",
"169 190 CURVE SMOOTH",
"169 335 OFFCURVE",
"235 442 OFFCURVE",
"327 442 CURVE SMOOTH",
"371 442 OFFCURVE",
"400 430 OFFCURVE",
"400 430 CURVE",
"385 347 LINE",
"385 347 OFFCURVE",
"318 107 OFFCURVE",
"218 107 CURVE SMOOTH"
);
}
);
width = 605;
}
);
leftKerningGroup = a;
rightKerningGroup = a;
unicode = 0105;
},
{
glyphname = atilde;
lastChange = "2016-09-30 17:24:57 +0000";
layers = (
{
components = (
{
name = a;
},
{
name = tildecomb;
transform = "{1, 0, 0, 1, 175, 0}";
}
);
layerId = "89F00A14-383C-41A8-AF30-A12CE933D7AF";
width = 593;
},
{
background = {
paths = (
{
closed = 1;
nodes = (
"495 104 LINE",
"565 540 LINE",
"477 540 LINE",
"448 513 LINE",
"448 513 OFFCURVE",
"400 550 OFFCURVE",
"331 550 CURVE SMOOTH",
"176 550 OFFCURVE",
"27 421 OFFCURVE",
"27 171 CURVE SMOOTH",
"27 70 OFFCURVE",
"80 -10 OFFCURVE",
"168 -10 CURVE SMOOTH",
"294 -10 OFFCURVE",
"377 138 OFFCURVE",
"382 148 CURVE",
"347 0 LINE",
"559 10 LINE",
"572 89 LINE"
);
},
{
closed = 1;
nodes = (
"391 347 LINE",
"391 347 OFFCURVE",
"324 107 OFFCURVE",
"224 107 CURVE SMOOTH",
"194 107 OFFCURVE",
"175 137 OFFCURVE",
"175 190 CURVE SMOOTH",
"175 335 OFFCURVE",
"241 442 OFFCURVE",
"333 442 CURVE SMOOTH",
"377 442 OFFCURVE",
"406 430 OFFCURVE",
"406 430 CURVE"
);
},
{
closed = 1;
nodes = (
"190 637 LINE",
"190 637 OFFCURVE",
"227 678 OFFCURVE",
"268 678 CURVE SMOOTH",
"326 678 OFFCURVE",
"365 634 OFFCURVE",
"433 634 CURVE SMOOTH",
"512 634 OFFCURVE",
"571 743 OFFCURVE",
"571 743 CURVE",
"526 782 LINE",
"526 782 OFFCURVE",
"491 740 OFFCURVE",
"453 740 CURVE SMOOTH",
"395 740 OFFCURVE",
"361 785 OFFCURVE",
"293 785 CURVE SMOOTH",
"213 785 OFFCURVE",
"152 678 OFFCURVE",
"152 678 CURVE"
);
}
);
};
components = (
{
name = a;
},
{
name = tildecomb;
transform = "{1, 0, 0, 1, 199, 0}";
}
);
layerId = "6959900B-8A08-4E04-B0F8-C63132552E7A";
width = 615;
}
);
leftKerningGroup = a;
rightKerningGroup = a;
unicode = 00E3;
},
{
glyphname = ae;
lastChange = "2016-08-18 14:48:36 +0000";
layers = (
{
background = {
paths = (
{
closed = 1;
nodes = (
"217 -10 OFFCURVE",
"294 35 OFFCURVE",
"343 96 CURVE",
"364 30 OFFCURVE",
"418 -10 OFFCURVE",
"502 -10 CURVE SMOOTH",
"620 -10 OFFCURVE",
"722 64 OFFCURVE",
"722 64 CURVE",
"692 115 LINE",
"692 115 OFFCURVE",
"605 70 OFFCURVE",
"532 70 CURVE SMOOTH",
"438 70 OFFCURVE",
"413 123 OFFCURVE",
"425 223 CURVE",
"632 223 OFFCURVE",
"772 290 OFFCURVE",
"772 410 CURVE SMOOTH",
"772 489 OFFCURVE",
"708 540 OFFCURVE",
"607 540 CURVE SMOOTH",
"541 540 OFFCURVE",
"482 511 OFFCURVE",
"437 462 CURVE",
"426 518 OFFCURVE",
"383 540 OFFCURVE",
"302 540 CURVE SMOOTH",
"213 540 OFFCURVE",
"121 505 OFFCURVE",
"109 500 CURVE",
"93 375 LINE",
"150 375 LINE",
"178 450 LINE",
"183 452 OFFCURVE",
"219 465 OFFCURVE",
"280 465 CURVE SMOOTH",
"342 465 OFFCURVE",
"367 439 OFFCURVE",
"357 375 CURVE SMOOTH",
"344 292 LINE",
"268 292 LINE SMOOTH",
"121 292 OFFCURVE",
"23 235 OFFCURVE",
"23 110 CURVE SMOOTH",
"23 35 OFFCURVE",
"73 -10 OFFCURVE",
"148 -10 CURVE SMOOTH"
);
},
{
closed = 1;
nodes = (
"148 70 OFFCURVE",
"118 95 OFFCURVE",
"118 130 CURVE SMOOTH",
"118 195 OFFCURVE",
"167 227 OFFCURVE",
"267 227 CURVE SMOOTH",
"334 227 LINE",
"324 156 OFFCURVE",
"258 70 OFFCURVE",
"183 70 CURVE SMOOTH"
);
},
{
closed = 1;
nodes = (
"460 392 OFFCURVE",
"529 465 OFFCURVE",
"602 465 CURVE SMOOTH",
"653 465 OFFCURVE",
"677 444 OFFCURVE",
"677 400 CURVE SMOOTH",
"677 329 OFFCURVE",
"576 293 OFFCURVE",
"434 293 CURVE"
);
}
);
};
layerId = "89F00A14-383C-41A8-AF30-A12CE933D7AF";
paths = (
{
closed = 1;
nodes = (
"217 -10 OFFCURVE",
"294 35 OFFCURVE",
"343 96 CURVE",
"364 30 OFFCURVE",
"418 -10 OFFCURVE",
"502 -10 CURVE SMOOTH",
"620 -10 OFFCURVE",
"722 64 OFFCURVE",
"722 64 CURVE",
"692 115 LINE",
"692 115 OFFCURVE",
"605 70 OFFCURVE",
"532 70 CURVE SMOOTH",
"438 70 OFFCURVE",
"413 123 OFFCURVE",
"425 223 CURVE",
"632 223 OFFCURVE",
"772 290 OFFCURVE",
"772 410 CURVE SMOOTH",
"772 489 OFFCURVE",
"708 540 OFFCURVE",
"607 540 CURVE SMOOTH",
"541 540 OFFCURVE",
"482 511 OFFCURVE",
"437 462 CURVE",
"426 518 OFFCURVE",
"383 540 OFFCURVE",
"302 540 CURVE SMOOTH",
"213 540 OFFCURVE",
"121 505 OFFCURVE",
"109 500 CURVE",
"93 375 LINE",
"150 375 LINE",
"178 450 LINE",
"183 452 OFFCURVE",
"219 465 OFFCURVE",
"280 465 CURVE SMOOTH",
"342 465 OFFCURVE",
"367 439 OFFCURVE",
"357 375 CURVE SMOOTH",
"344 292 LINE",
"268 292 LINE SMOOTH",
"121 292 OFFCURVE",
"23 235 OFFCURVE",
"23 110 CURVE SMOOTH",
"23 35 OFFCURVE",
"73 -10 OFFCURVE",
"148 -10 CURVE SMOOTH"
);
},
{
closed = 1;
nodes = (
"148 70 OFFCURVE",
"118 95 OFFCURVE",
"118 130 CURVE SMOOTH",
"118 195 OFFCURVE",
"167 227 OFFCURVE",
"267 227 CURVE SMOOTH",
"334 227 LINE",
"324 156 OFFCURVE",
"258 70 OFFCURVE",
"183 70 CURVE SMOOTH"
);
},
{
closed = 1;
nodes = (
"460 392 OFFCURVE",
"529 465 OFFCURVE",
"602 465 CURVE SMOOTH",
"653 465 OFFCURVE",
"677 444 OFFCURVE",
"677 400 CURVE SMOOTH",
"677 329 OFFCURVE",
"576 293 OFFCURVE",
"434 293 CURVE"
);
}
);
width = 779;
},
{
background = {
paths = (
{
closed = 1;
nodes = (
"623 -10 OFFCURVE",
"720 47 OFFCURVE",
"749 67 CURVE",
"707 141 LINE",
"686 133 OFFCURVE",
"616 105 OFFCURVE",
"557 105 CURVE SMOOTH",
"486 105 OFFCURVE",
"460 139 OFFCURVE",
"464 216 CURVE",
"684 219 OFFCURVE",
"806 292 OFFCURVE",
"806 407 CURVE SMOOTH",
"806 492 OFFCURVE",
"736 550 OFFCURVE",
"623 550 CURVE SMOOTH",
"560 550 OFFCURVE",
"503 525 OFFCURVE",
"456 484 CURVE",
"445 521 OFFCURVE",
"407 550 OFFCURVE",
"319 550 CURVE SMOOTH",
"219 550 OFFCURVE",
"122 516 OFFCURVE",
"104 510 CURVE",
"87 365 LINE",
"170 365 LINE",
"195 429 LINE",
"199 430 OFFCURVE",
"235 442 OFFCURVE",
"285 442 CURVE SMOOTH",
"334 442 OFFCURVE",
"355 416 OFFCURVE",
"347 367 CURVE SMOOTH",
"338 311 LINE",
"267 311 LINE SMOOTH",
"116 311 OFFCURVE",
"14 250 OFFCURVE",
"14 120 CURVE SMOOTH",
"14 40 OFFCURVE",
"68 -9 OFFCURVE",
"151 -9 CURVE SMOOTH",
"230 -9 OFFCURVE",
"300 34 OFFCURVE",
"345 87 CURVE",
"371 25 OFFCURVE",
"430 -10 OFFCURVE",
"516 -10 CURVE SMOOTH"
);
},
{
closed = 1;
nodes = (
"181 100 OFFCURVE",
"157 122 OFFCURVE",
"157 150 CURVE SMOOTH",
"157 197 OFFCURVE",
"191 226 OFFCURVE",
"269 226 CURVE SMOOTH",
"325 226 LINE",
"318 170 OFFCURVE",
"269 100 OFFCURVE",
"209 100 CURVE SMOOTH"
);
},
{
closed = 1;
nodes = (
"495 380 OFFCURVE",
"544 437 OFFCURVE",
"604 437 CURVE SMOOTH",
"642 437 OFFCURVE",
"661 421 OFFCURVE",
"661 389 CURVE SMOOTH",
"661 342 OFFCURVE",
"603 307 OFFCURVE",
"475 304 CURVE"
);
}
);
};
layerId = "6959900B-8A08-4E04-B0F8-C63132552E7A";
paths = (
{
closed = 1;
nodes = (
"230 -9 OFFCURVE",
"300 34 OFFCURVE",
"345 87 CURVE",
"371 25 OFFCURVE",
"430 -10 OFFCURVE",
"516 -10 CURVE SMOOTH",
"623 -10 OFFCURVE",
"720 47 OFFCURVE",
"749 67 CURVE",
"707 141 LINE",
"649 119 OFFCURVE",
"597 104 OFFCURVE",
"555 104 CURVE SMOOTH",
"496 104 OFFCURVE",
"460 134 OFFCURVE",
"464 216 CURVE",
"684 219 OFFCURVE",
"806 292 OFFCURVE",
"806 407 CURVE SMOOTH",
"806 492 OFFCURVE",
"736 550 OFFCURVE",
"623 550 CURVE SMOOTH",
"560 550 OFFCURVE",
"503 525 OFFCURVE",
"456 484 CURVE",
"445 521 OFFCURVE",
"407 550 OFFCURVE",
"319 550 CURVE SMOOTH",
"219 550 OFFCURVE",
"122 516 OFFCURVE",
"104 510 CURVE",
"87 365 LINE",
"170 365 LINE",
"195 429 LINE",
"199 430 OFFCURVE",
"235 442 OFFCURVE",
"285 442 CURVE SMOOTH",
"337 442 OFFCURVE",
"355 416 OFFCURVE",
"347 367 CURVE SMOOTH",
"338 311 LINE",
"267 311 LINE SMOOTH",
"116 311 OFFCURVE",
"14 250 OFFCURVE",
"14 120 CURVE SMOOTH",
"14 40 OFFCURVE",
"68 -9 OFFCURVE",
"151 -9 CURVE SMOOTH"
);
},
{
closed = 1;
nodes = (
"181 100 OFFCURVE",
"157 122 OFFCURVE",
"157 150 CURVE SMOOTH",
"157 197 OFFCURVE",
"191 226 OFFCURVE",
"269 226 CURVE SMOOTH",
"325 226 LINE",
"318 170 OFFCURVE",
"269 100 OFFCURVE",
"209 100 CURVE SMOOTH"
);
},
{
closed = 1;
nodes = (
"495 380 OFFCURVE",
"544 437 OFFCURVE",
"604 437 CURVE SMOOTH",
"642 437 OFFCURVE",
"661 421 OFFCURVE",
"661 389 CURVE SMOOTH",
"661 342 OFFCURVE",
"603 307 OFFCURVE",
"475 304 CURVE"
);
}
);
width = 811;
}
);
leftKerningGroup = a;
rightKerningGroup = a;
unicode = 00E6;
},
{
glyphname = b;
lastChange = "2016-08-18 14:48:36 +0000";
layers = (
{
layerId = "89F00A14-383C-41A8-AF30-A12CE933D7AF";
paths = (
{
closed = 1;
nodes = (
"392 -10 OFFCURVE",
"541 132 OFFCURVE",
"541 360 CURVE SMOOTH",
"541 455 OFFCURVE",
"497 540 OFFCURVE",
"407 540 CURVE SMOOTH",
"269 540 OFFCURVE",
"192 357 OFFCURVE",
"188 346 CURVE",
"228 530 LINE",
"267 770 LINE",
"84 765 LINE",
"75 710 LINE",
"158 690 LINE",
"51 20 LINE",
"51 20 OFFCURVE",
"136 -10 OFFCURVE",
"232 -10 CURVE SMOOTH"
);
},
{
closed = 1;
nodes = (
"197 65 OFFCURVE",
"158 80 OFFCURVE",
"158 80 CURVE",
"179 185 LINE",
"179 185 OFFCURVE",
"250 455 OFFCURVE",
"372 455 CURVE SMOOTH",
"422 455 OFFCURVE",
"441 401 OFFCURVE",
"441 345 CURVE SMOOTH",
"441 153 OFFCURVE",
"327 65 OFFCURVE",
"242 65 CURVE SMOOTH"
);
}
);
width = 582;
},
{
layerId = "6959900B-8A08-4E04-B0F8-C63132552E7A";
paths = (
{
closed = 1;
nodes = (
"418 -10 OFFCURVE",
"575 126 OFFCURVE",
"575 365 CURVE SMOOTH",
"575 465 OFFCURVE",
"528 550 OFFCURVE",
"433 550 CURVE SMOOTH",
"303 550 OFFCURVE",
"230 398 OFFCURVE",
"225 388 CURVE",
"259 525 LINE",
"303 775 LINE",
"84 767 LINE",
"71 687 LINE",
"144 667 LINE",
"42 20 LINE",
"42 20 OFFCURVE",
"142 -10 OFFCURVE",
"250 -10 CURVE SMOOTH"
);
},
{
closed = 1;
nodes = (
"234 100 OFFCURVE",
"201 111 OFFCURVE",
"201 111 CURVE",
"217 193 LINE",
"217 193 OFFCURVE",
"272 430 OFFCURVE",
"372 430 CURVE SMOOTH",
"410 430 OFFCURVE",
"427 387 OFFCURVE",
"427 342 CURVE SMOOTH",
"427 206 OFFCURVE",
"351 100 OFFCURVE",
"269 100 CURVE SMOOTH"
);
}
);
width = 612;
}
);
leftKerningGroup = l;
rightKerningGroup = b;
unicode = 0062;
},
{
glyphname = c;
lastChange = "2016-08-18 14:48:36 +0000";
layers = (
{
layerId = "89F00A14-383C-41A8-AF30-A12CE933D7AF";
paths = (
{
closed = 1;
nodes = (
"308 -10 OFFCURVE",
"408 65 OFFCURVE",
"408 65 CURVE",
"378 115 LINE",
"378 115 OFFCURVE",
"298 70 OFFCURVE",
"228 70 CURVE SMOOTH",
"168 70 OFFCURVE",
"133 105 OFFCURVE",
"133 180 CURVE SMOOTH",
"133 325 OFFCURVE",
"199 460 OFFCURVE",
"313 460 CURVE SMOOTH",
"354 460 OFFCURVE",
"378 450 OFFCURVE",
"378 450 CURVE",
"381 365 LINE",
"446 365 LINE",
"468 500 LINE",
"468 500 OFFCURVE",
"408 540 OFFCURVE",
"328 540 CURVE SMOOTH",
"158 540 OFFCURVE",
"33 395 OFFCURVE",
"33 175 CURVE SMOOTH",
"33 55 OFFCURVE",
"108 -10 OFFCURVE",
"208 -10 CURVE SMOOTH"
);
}
);
width = 455;
},
{
layerId = "6959900B-8A08-4E04-B0F8-C63132552E7A";
paths = (
{
closed = 1;
nodes = (
"325 -10 OFFCURVE",
"421 57 OFFCURVE",
"443 72 CURVE",
"400 151 LINE",
"378 141 OFFCURVE",
"316 110 OFFCURVE",
"258 110 CURVE SMOOTH",
"207 110 OFFCURVE",
"176 145 OFFCURVE",
"176 203 CURVE SMOOTH",
"176 311 OFFCURVE",
"221 431 OFFCURVE",
"322 431 CURVE SMOOTH",
"355 431 OFFCURVE",
"375 422 OFFCURVE",
"375 422 CURVE",
"380 352 LINE",
"468 352 LINE",
"493 510 LINE",
"473 519 OFFCURVE",
"413 550 OFFCURVE",
"338 550 CURVE SMOOTH",
"155 550 OFFCURVE",
"28 405 OFFCURVE",
"28 183 CURVE SMOOTH",
"28 58 OFFCURVE",
"100 -10 OFFCURVE",
"215 -10 CURVE SMOOTH"
);
}
);
width = 485;
}
);
leftKerningGroup = o;
rightKerningGroup = c;
unicode = 0063;
},
{
glyphname = ccedilla;
lastChange = "2016-08-18 14:48:36 +0000";
layers = (
{
components = (
{
name = c;
},
{
name = cedilla;
transform = "{1, 0, 0, 1, -8, 0}";
}
);
layerId = "89F00A14-383C-41A8-AF30-A12CE933D7AF";
width = 455;
},
{
background = {
paths = (
{
closed = 1;
nodes = (
"187 -168 OFFCURVE",
"155 -149 OFFCURVE",
"155 -149 CURVE",
"117 -204 LINE",
"117 -204 OFFCURVE",
"164 -234 OFFCURVE",
"232 -234 CURVE SMOOTH",
"301 -234 OFFCURVE",
"365 -190 OFFCURVE",
"365 -120 CURVE SMOOTH",
"365 -79 OFFCURVE",
"336 -53 OFFCURVE",
"294 -44 CURVE",
"302 2 LINE",
"365 21 OFFCURVE",
"419 56 OFFCURVE",
"443 72 CURVE",
"399 146 LINE",
"377 136 OFFCURVE",
"316 105 OFFCURVE",
"258 105 CURVE SMOOTH",
"208 105 OFFCURVE",
"176 139 OFFCURVE",
"176 200 CURVE SMOOTH",
"176 308 OFFCURVE",
"221 435 OFFCURVE",
"322 435 CURVE SMOOTH",
"355 435 OFFCURVE",
"375 426 OFFCURVE",
"375 426 CURVE",
"378 352 LINE",
"466 352 LINE",
"493 510 LINE",
"473 519 OFFCURVE",
"413 550 OFFCURVE",
"338 550 CURVE SMOOTH",
"155 550 OFFCURVE",
"28 405 OFFCURVE",
"28 183 CURVE SMOOTH",
"28 58 OFFCURVE",
"103 -7 OFFCURVE",
"216 -10 CURVE",
"204 -87 LINE",
"249 -87 OFFCURVE",
"279 -100 OFFCURVE",
"279 -126 CURVE SMOOTH",
"279 -154 OFFCURVE",
"254 -168 OFFCURVE",
"224 -168 CURVE SMOOTH"
);
}
);
};
components = (
{
name = c;
},
{
name = cedilla;
transform = "{1, 0, 0, 1, -1, 0}";
}
);
layerId = "6959900B-8A08-4E04-B0F8-C63132552E7A";
width = 485;
}
);
leftKerningGroup = o;
rightKerningGroup = c;
unicode = 00E7;
},
{
glyphname = ccircumflex;
lastChange = "2016-08-18 14:48:36 +0000";
layers = (
{
components = (
{
name = c;
},
{
name = circumflex;
transform = "{1, 0, 0, 1, 160, 0}";
}
);
layerId = "89F00A14-383C-41A8-AF30-A12CE933D7AF";
width = 455;
},
{
background = {
paths = (
{
closed = 1;
nodes = (
"399 146 LINE",
"377 136 OFFCURVE",
"316 105 OFFCURVE",
"258 105 CURVE SMOOTH",
"208 105 OFFCURVE",
"176 139 OFFCURVE",
"176 200 CURVE SMOOTH",
"176 308 OFFCURVE",
"221 435 OFFCURVE",
"322 435 CURVE SMOOTH",
"355 435 OFFCURVE",
"375 426 OFFCURVE",
"375 426 CURVE",
"378 352 LINE",
"466 352 LINE",
"493 510 LINE",
"473 519 OFFCURVE",
"413 550 OFFCURVE",
"338 550 CURVE SMOOTH",
"155 550 OFFCURVE",
"28 405 OFFCURVE",
"28 183 CURVE SMOOTH",
"28 55 OFFCURVE",
"107 -10 OFFCURVE",
"225 -10 CURVE SMOOTH",
"317 -10 OFFCURVE",
"410 49 OFFCURVE",
"443 72 CURVE"
);
},
{
closed = 1;
nodes = (
"357 719 LINE",
"484 619 LINE",
"540 684 LINE",
"410 828 LINE",
"323 821 LINE",
"151 684 LINE",
"193 619 LINE"
);
}
);
};
components = (
{
name = c;
},
{
name = circumflex;
transform = "{1, 0, 0, 1, 151, -3}";
}
);
layerId = "6959900B-8A08-4E04-B0F8-C63132552E7A";
width = 485;
}
);
leftKerningGroup = o;
rightKerningGroup = c;
unicode = 0109;
},
{
glyphname = d;
lastChange = "2016-08-18 14:48:36 +0000";
layers = (
{
layerId = "89F00A14-383C-41A8-AF30-A12CE933D7AF";
paths = (
{
closed = 1;
nodes = (
"453 80 LINE",
"565 770 LINE",
"380 765 LINE",
"371 710 LINE",
"456 690 LINE",
"428 518 LINE",
"411 527 OFFCURVE",
"378 540 OFFCURVE",
"332 540 CURVE SMOOTH",
"181 540 OFFCURVE",
"36 407 OFFCURVE",
"36 165 CURVE SMOOTH",
"36 64 OFFCURVE",
"90 -10 OFFCURVE",
"168 -10 CURVE SMOOTH",
"301 -10 OFFCURVE",
"386 172 OFFCURVE",
"391 184 CURVE",
"347 0 LINE",
"530 10 LINE",
"539 65 LINE"
);
},
{
closed = 1;
nodes = (
"401 345 LINE",
"401 345 OFFCURVE",
"318 75 OFFCURVE",
"198 75 CURVE SMOOTH",
"160 75 OFFCURVE",
"136 113 OFFCURVE",
"136 185 CURVE SMOOTH",
"136 346 OFFCURVE",
"217 465 OFFCURVE",
"332 465 CURVE SMOOTH",
"382 465 OFFCURVE",
"417 450 OFFCURVE",
"417 450 CURVE"
);
}
);
width = 581;
},
{
layerId = "6959900B-8A08-4E04-B0F8-C63132552E7A";
paths = (
{
closed = 1;
nodes = (
"495 104 LINE",
"603 775 LINE",
"381 767 LINE",
"369 687 LINE",
"446 667 LINE",
"423 531 LINE",
"423 531 OFFCURVE",
"383 550 OFFCURVE",
"336 550 CURVE SMOOTH",
"181 550 OFFCURVE",
"31 420 OFFCURVE",
"31 171 CURVE SMOOTH",
"31 69 OFFCURVE",
"83 -10 OFFCURVE",
"172 -10 CURVE SMOOTH",
"299 -10 OFFCURVE",
"381 138 OFFCURVE",
"386 148 CURVE",
"349 0 LINE",
"558 5 LINE",
"571 89 LINE"
);
},
{
closed = 1;
nodes = (
"393 347 LINE",
"393 347 OFFCURVE",
"328 107 OFFCURVE",
"228 107 CURVE SMOOTH",
"197 107 OFFCURVE",
"179 139 OFFCURVE",
"179 192 CURVE SMOOTH",
"179 318 OFFCURVE",
"234 442 OFFCURVE",
"337 442 CURVE SMOOTH",
"379 442 OFFCURVE",
"407 430 OFFCURVE",
"407 430 CURVE"
);
}
);
width = 610;
}
);
leftKerningGroup = o;
unicode = 0064;
},
{
glyphname = eth;
lastChange = "2016-08-18 14:48:36 +0000";
layers = (
{
layerId = "89F00A14-383C-41A8-AF30-A12CE933D7AF";
paths = (
{
closed = 1;
nodes = (
"438 -10 OFFCURVE",
"533 164 OFFCURVE",
"533 384 CURVE SMOOTH",
"533 514 OFFCURVE",
"495 610 OFFCURVE",
"433 676 CURVE",
"532 729 LINE",
"501 784 LINE",
"383 722 LINE",
"342 751 OFFCURVE",
"296 771 OFFCURVE",
"247 783 CURVE",
"208 720 LINE",
"241 708 OFFCURVE",
"276 694 OFFCURVE",
"302 678 CURVE",
"185 614 LINE",
"215 560 LINE",
"353 635 LINE",
"398 591 OFFCURVE",
"424 536 OFFCURVE",
"437 473 CURVE",
"437 473 OFFCURVE",
"393 515 OFFCURVE",
"318 515 CURVE SMOOTH",
"153 515 OFFCURVE",
"33 375 OFFCURVE",
"33 185 CURVE SMOOTH",
"33 65 OFFCURVE",
"103 -10 OFFCURVE",
"223 -10 CURVE SMOOTH"
);
},
{
closed = 1;
nodes = (
"173 70 OFFCURVE",
"138 120 OFFCURVE",
"138 195 CURVE SMOOTH",
"138 325 OFFCURVE",
"193 435 OFFCURVE",
"308 435 CURVE SMOOTH",
"388 435 OFFCURVE",
"424 390 OFFCURVE",
"424 315 CURVE SMOOTH",
"424 190 OFFCURVE",
"373 70 OFFCURVE",
"248 70 CURVE SMOOTH"
);
}
);
width = 568;
},
{
layerId = "6959900B-8A08-4E04-B0F8-C63132552E7A";
paths = (
{
closed = 1;
nodes = (
"430 -12 OFFCURVE",
"533 147 OFFCURVE",
"533 389 CURVE SMOOTH",
"533 508 OFFCURVE",
"500 598 OFFCURVE",
"445 663 CURVE",
"534 711 LINE",
"490 789 LINE",
"376 728 LINE",
"335 756 OFFCURVE",
"289 776 OFFCURVE",
"240 789 CURVE",
"187 702 LINE",
"212 693 OFFCURVE",
"240 681 OFFCURVE",
"264 667 CURVE",
"174 618 LINE",
"217 540 LINE",
"339 606 LINE",
"372 571 OFFCURVE",
"392 528 OFFCURVE",
"399 480 CURVE",
"399 480 OFFCURVE",
"363 505 OFFCURVE",
"313 505 CURVE SMOOTH",
"145 505 OFFCURVE",
"26 373 OFFCURVE",
"26 178 CURVE SMOOTH",
"26 57 OFFCURVE",
"105 -12 OFFCURVE",
"233 -12 CURVE SMOOTH"
);
},
{
closed = 1;
nodes = (
"202 102 OFFCURVE",
"179 135 OFFCURVE",
"179 188 CURVE SMOOTH",
"179 282 OFFCURVE",
"214 390 OFFCURVE",
"299 390 CURVE SMOOTH",
"354 390 OFFCURVE",
"378 360 OFFCURVE",
"378 307 CURVE SMOOTH",
"378 215 OFFCURVE",
"345 102 OFFCURVE",
"255 102 CURVE SMOOTH"
);
}
);
width = 564;
}
);
leftKerningGroup = o;
unicode = 00F0;
},
{
glyphname = dcaron;
lastChange = "2016-08-25 08:49:27 +0000";
layers = (
{
components = (
{
name = d;
},
{
name = caroncomb;
transform = "{1, 0, 0, 1, 555, 0}";
}
);
layerId = "89F00A14-383C-41A8-AF30-A12CE933D7AF";
paths = (
{
closed = 0;
nodes = (
"480 482 LINE"
);
}
);
width = 671;
},
{
components = (
{
name = d;
},
{
name = caroncomb;
transform = "{1, 0, 0, 1, 591, 0}";
}
);
layerId = "6959900B-8A08-4E04-B0F8-C63132552E7A";
paths = (
{
closed = 0;
nodes = (
"493 509 LINE"
);
}
);
width = 736;
}
);
leftKerningGroup = o;
unicode = 010F;
},
{
glyphname = dcroat;
lastChange = "2016-08-18 14:48:36 +0000";
layers = (
{
components = (
{
name = d;
}
);
layerId = "89F00A14-383C-41A8-AF30-A12CE933D7AF";
paths = (
{
closed = 1;
nodes = (
"633 575 LINE",
"644 650 LINE",
"359 650 LINE",
"348 575 LINE"
);
}
);
width = 594;
},
{
background = {
paths = (
{
closed = 1;
nodes = (
"330 569 LINE",
"429 569 LINE",
"423 531 LINE",
"423 531 OFFCURVE",
"383 550 OFFCURVE",
"336 550 CURVE SMOOTH",
"181 550 OFFCURVE",
"31 420 OFFCURVE",
"31 171 CURVE SMOOTH",
"31 69 OFFCURVE",
"83 -10 OFFCURVE",
"172 -10 CURVE SMOOTH",
"299 -10 OFFCURVE",
"381 138 OFFCURVE",
"386 148 CURVE",
"349 0 LINE",
"558 5 LINE",
"571 89 LINE",
"495 104 LINE",
"570 569 LINE",
"651 569 LINE",
"665 649 LINE",
"583 649 LINE",
"603 775 LINE",
"381 767 LINE",
"369 687 LINE",
"446 667 LINE",
"443 649 LINE",
"344 649 LINE"
);
},
{
closed = 1;
nodes = (
"393 347 LINE",
"393 347 OFFCURVE",
"328 107 OFFCURVE",
"228 107 CURVE SMOOTH",
"197 107 OFFCURVE",
"179 139 OFFCURVE",
"179 192 CURVE SMOOTH",
"179 318 OFFCURVE",
"234 442 OFFCURVE",
"337 442 CURVE SMOOTH",
"379 442 OFFCURVE",
"407 430 OFFCURVE",
"407 430 CURVE"
);
}
);
};
components = (
{
name = d;
}
);
layerId = "6959900B-8A08-4E04-B0F8-C63132552E7A";
paths = (
{
closed = 1;
nodes = (
"651 569 LINE",
"664 649 LINE",
"344 649 LINE",
"330 569 LINE"
);
}
);
width = 610;
}
);
leftKerningGroup = o;
unicode = 0111;
},
{
glyphname = e;
lastChange = "2016-09-30 17:25:06 +0000";
layers = (
{
anchors = (
{
name = bottom;
position = "{206, 0}";
},
{
name = ogonek;
position = "{404, 10}";
},
{
name = top;
position = "{290, 530}";
}
);
background = {
paths = (
{
closed = 1;
nodes = (
"328 -10 OFFCURVE",
"434 64 OFFCURVE",
"434 64 CURVE",
"404 115 LINE",
"404 115 OFFCURVE",
"313 70 OFFCURVE",
"240 70 CURVE SMOOTH",
"165 70 OFFCURVE",
"130 103 OFFCURVE",
"130 174 CURVE SMOOTH",
"130 187 OFFCURVE",
"131 202 OFFCURVE",
"133 217 CURVE",
"340 217 OFFCURVE",
"484 295 OFFCURVE",
"484 410 CURVE SMOOTH",
"484 489 OFFCURVE",
"420 540 OFFCURVE",
"319 540 CURVE SMOOTH",
"160 540 OFFCURVE",
"30 377 OFFCURVE",
"30 170 CURVE SMOOTH",
"30 60 OFFCURVE",
"100 -10 OFFCURVE",
"210 -10 CURVE SMOOTH"
);
},
{
closed = 1;
nodes = (
"168 407 OFFCURVE",
"257 466 OFFCURVE",
"320 466 CURVE SMOOTH",
"359 466 OFFCURVE",
"389 444 OFFCURVE",
"389 400 CURVE SMOOTH",
"389 334 OFFCURVE",
"284 287 OFFCURVE",
"142 287 CURVE"
);
}
);
};
layerId = "89F00A14-383C-41A8-AF30-A12CE933D7AF";
paths = (
{
closed = 1;
nodes = (
"328 -10 OFFCURVE",
"434 64 OFFCURVE",
"434 64 CURVE",
"404 115 LINE",
"404 115 OFFCURVE",
"313 70 OFFCURVE",
"240 70 CURVE SMOOTH",
"147 70 OFFCURVE",
"120 120 OFFCURVE",
"133 217 CURVE",
"340 217 OFFCURVE",
"484 295 OFFCURVE",
"484 410 CURVE SMOOTH",
"484 489 OFFCURVE",
"420 540 OFFCURVE",
"319 540 CURVE SMOOTH",
"160 540 OFFCURVE",
"30 377 OFFCURVE",
"30 170 CURVE SMOOTH",
"30 60 OFFCURVE",
"100 -10 OFFCURVE",
"210 -10 CURVE SMOOTH"
);
},
{
closed = 1;
nodes = (
"168 407 OFFCURVE",
"257 466 OFFCURVE",
"320 466 CURVE SMOOTH",
"359 466 OFFCURVE",
"389 444 OFFCURVE",
"389 400 CURVE SMOOTH",
"389 334 OFFCURVE",
"284 287 OFFCURVE",
"142 287 CURVE"
);
}
);
width = 496;
},
{
anchors = (
{
name = bottom;
position = "{218, 0}";
},
{
name = ogonek;
position = "{427, 10}";
},
{
name = top;
position = "{331, 540}";
}
);
layerId = "6959900B-8A08-4E04-B0F8-C63132552E7A";
paths = (
{
closed = 1;
nodes = (
"331 -10 OFFCURVE",
"431 47 OFFCURVE",
"460 67 CURVE",
"418 141 LINE",
"388 129 OFFCURVE",
"325 105 OFFCURVE",
"266 105 CURVE SMOOTH",
"207 105 OFFCURVE",
"172 126 OFFCURVE",
"172 213 CURVE",
"392 215 OFFCURVE",
"517 294 OFFCURVE",
"517 407 CURVE SMOOTH",
"517 494 OFFCURVE",
"445 550 OFFCURVE",
"327 550 CURVE SMOOTH",
"163 550 OFFCURVE",
"26 396 OFFCURVE",
"26 175 CURVE SMOOTH",
"26 58 OFFCURVE",
"105 -10 OFFCURVE",
"225 -10 CURVE SMOOTH"
);
},
{
closed = 1;
nodes = (
"204 389 OFFCURVE",
"268 438 OFFCURVE",
"322 438 CURVE SMOOTH",
"350 438 OFFCURVE",
"372 422 OFFCURVE",
"372 389 CURVE SMOOTH",
"372 344 OFFCURVE",
"311 304 OFFCURVE",
"184 301 CURVE"
);
}
);
width = 522;
}
);
leftKerningGroup = o;
rightKerningGroup = e;
unicode = 0065;
},
{
glyphname = ebreve;
lastChange = "2016-09-30 16:58:33 +0000";
layers = (
{
components = (
{
name = e;
},
{
name = brevecomb;
transform = "{1, 0, 0, 1, 125, 0}";
}
);
layerId = "89F00A14-383C-41A8-AF30-A12CE933D7AF";
width = 496;
},
{
components = (
{
name = e;
},
{
name = brevecomb;
transform = "{1, 0, 0, 1, 126, 16}";
}
);
layerId = "6959900B-8A08-4E04-B0F8-C63132552E7A";
paths = (
{
closed = 0;
nodes = (
"428 465 LINE"
);
}
);
width = 522;
}
);
leftKerningGroup = o;
rightKerningGroup = e;
unicode = 0115;
},
{
glyphname = ecircumflex;
lastChange = "2016-08-18 14:48:36 +0000";
layers = (
{
components = (
{
name = e;
},
{
name = circumflex;
transform = "{1, 0, 0, 1, 140, 0}";
}
);
layerId = "89F00A14-383C-41A8-AF30-A12CE933D7AF";
width = 496;
},
{
background = {
paths = (
{
closed = 1;
nodes = (
"517 494 OFFCURVE",
"445 550 OFFCURVE",
"327 550 CURVE SMOOTH",
"163 550 OFFCURVE",
"26 396 OFFCURVE",
"26 175 CURVE SMOOTH",
"26 58 OFFCURVE",
"105 -10 OFFCURVE",
"225 -10 CURVE SMOOTH",
"331 -10 OFFCURVE",
"431 47 OFFCURVE",
"460 67 CURVE",
"418 141 LINE",
"396 134 OFFCURVE",
"325 105 OFFCURVE",
"266 105 CURVE SMOOTH",
"207 105 OFFCURVE",
"172 126 OFFCURVE",
"172 213 CURVE",
"392 215 OFFCURVE",
"517 294 OFFCURVE",
"517 407 CURVE SMOOTH"
);
},
{
closed = 1;
nodes = (
"372 344 OFFCURVE",
"311 304 OFFCURVE",
"184 301 CURVE",
"204 380 OFFCURVE",
"255 437 OFFCURVE",
"315 437 CURVE SMOOTH",
"353 437 OFFCURVE",
"372 421 OFFCURVE",
"372 389 CURVE SMOOTH"
);
},
{
closed = 1;
nodes = (
"346 719 LINE",
"473 619 LINE",
"529 684 LINE",
"399 828 LINE",
"312 821 LINE",
"140 684 LINE",
"182 619 LINE"
);
}
);
};
components = (
{
name = e;
},
{
name = circumflex;
transform = "{1, 0, 0, 1, 140, -3}";
}
);
layerId = "6959900B-8A08-4E04-B0F8-C63132552E7A";
width = 522;
}
);
leftKerningGroup = o;
rightKerningGroup = e;
unicode = 00EA;
},
{
glyphname = emacron;
lastChange = "2016-08-18 14:48:36 +0000";
layers = (
{
components = (
{
name = e;
},
{
name = macron;
transform = "{1, 0, 0, 1, 174, 0}";
}
);
layerId = "89F00A14-383C-41A8-AF30-A12CE933D7AF";
width = 496;
},
{
background = {
paths = (
{
closed = 1;
nodes = (
"517 494 OFFCURVE",
"445 550 OFFCURVE",
"327 550 CURVE SMOOTH",
"163 550 OFFCURVE",
"26 396 OFFCURVE",
"26 175 CURVE SMOOTH",
"26 58 OFFCURVE",
"105 -10 OFFCURVE",
"225 -10 CURVE SMOOTH",
"331 -10 OFFCURVE",
"431 47 OFFCURVE",
"460 67 CURVE",
"418 141 LINE",
"396 134 OFFCURVE",
"325 105 OFFCURVE",
"266 105 CURVE SMOOTH",
"207 105 OFFCURVE",
"172 126 OFFCURVE",
"172 213 CURVE",
"392 215 OFFCURVE",
"517 294 OFFCURVE",
"517 407 CURVE SMOOTH"
);
},
{
closed = 1;
nodes = (
"372 344 OFFCURVE",
"311 304 OFFCURVE",
"184 301 CURVE",
"204 380 OFFCURVE",
"255 437 OFFCURVE",
"315 437 CURVE SMOOTH",
"353 437 OFFCURVE",
"372 421 OFFCURVE",
"372 389 CURVE SMOOTH"
);
},
{
closed = 1;
nodes = (
"171 642 LINE",
"462 642 LINE",
"480 747 LINE",
"189 747 LINE"
);
}
);
};
components = (
{
name = e;
},
{
name = macron;
transform = "{1, 0, 0, 1, 171, 0}";
}
);
layerId = "6959900B-8A08-4E04-B0F8-C63132552E7A";
width = 522;
}
);
leftKerningGroup = o;
rightKerningGroup = e;
unicode = 0113;
},
{
glyphname = eogonek;
lastChange = "2016-08-18 14:48:36 +0000";
layers = (
{
background = {
paths = (
{
closed = 1;
nodes = (
"293 -220 OFFCURVE",
"335 -200 OFFCURVE",
"335 -200 CURVE",
"333 -153 LINE",
"333 -153 OFFCURVE",
"308 -160 OFFCURVE",
"288 -160 CURVE SMOOTH",
"266 -160 OFFCURVE",
"250 -148 OFFCURVE",
"250 -125 CURVE SMOOTH",
"250 -64 OFFCURVE",
"353 12 OFFCURVE",
"402 45 CURVE",
"422 56 OFFCURVE",
"434 64 OFFCURVE",
"434 64 CURVE",
"404 115 LINE",
"404 115 OFFCURVE",
"313 70 OFFCURVE",
"240 70 CURVE SMOOTH",
"147 70 OFFCURVE",
"120 120 OFFCURVE",
"133 217 CURVE",
"340 217 OFFCURVE",
"484 295 OFFCURVE",
"484 410 CURVE SMOOTH",
"484 489 OFFCURVE",
"420 540 OFFCURVE",
"319 540 CURVE SMOOTH",
"160 540 OFFCURVE",
"30 377 OFFCURVE",
"30 170 CURVE SMOOTH",
"30 60 OFFCURVE",
"100 -10 OFFCURVE",
"210 -10 CURVE SMOOTH",
"226 -10 OFFCURVE",
"242 -9 OFFCURVE",
"257 -6 CURVE",
"256 -7 LINE",
"210 -44 OFFCURVE",
"169 -89 OFFCURVE",
"169 -142 CURVE SMOOTH",
"169 -192 OFFCURVE",
"205 -220 OFFCURVE",
"253 -220 CURVE SMOOTH"
);
},
{
closed = 1;
nodes = (
"168 407 OFFCURVE",
"257 466 OFFCURVE",
"320 466 CURVE SMOOTH",
"359 466 OFFCURVE",
"389 444 OFFCURVE",
"389 400 CURVE SMOOTH",
"389 334 OFFCURVE",
"284 287 OFFCURVE",
"142 287 CURVE"
);
}
);
};
layerId = "89F00A14-383C-41A8-AF30-A12CE933D7AF";
paths = (
{
closed = 1;
nodes = (
"293 -220 OFFCURVE",
"335 -200 OFFCURVE",
"335 -200 CURVE",
"333 -153 LINE",
"333 -153 OFFCURVE",
"308 -160 OFFCURVE",
"288 -160 CURVE SMOOTH",
"266 -160 OFFCURVE",
"250 -148 OFFCURVE",
"250 -125 CURVE SMOOTH",
"250 -63 OFFCURVE",
"333 2 OFFCURVE",
"434 64 CURVE",
"404 115 LINE",
"404 115 OFFCURVE",
"313 70 OFFCURVE",
"240 70 CURVE SMOOTH",
"147 70 OFFCURVE",
"120 120 OFFCURVE",
"133 217 CURVE",
"340 217 OFFCURVE",
"484 295 OFFCURVE",
"484 410 CURVE SMOOTH",
"484 489 OFFCURVE",
"420 540 OFFCURVE",
"319 540 CURVE SMOOTH",
"160 540 OFFCURVE",
"30 377 OFFCURVE",
"30 170 CURVE SMOOTH",
"30 60 OFFCURVE",
"100 -10 OFFCURVE",
"210 -10 CURVE SMOOTH",
"226 -10 OFFCURVE",
"242 -9 OFFCURVE",
"257 -6 CURVE",
"201 -52 OFFCURVE",
"169 -95 OFFCURVE",
"169 -142 CURVE SMOOTH",
"169 -192 OFFCURVE",
"205 -220 OFFCURVE",
"253 -220 CURVE SMOOTH"
);
},
{
closed = 1;
nodes = (
"168 407 OFFCURVE",
"257 466 OFFCURVE",
"320 466 CURVE SMOOTH",
"359 466 OFFCURVE",
"389 444 OFFCURVE",
"389 400 CURVE SMOOTH",
"389 334 OFFCURVE",
"284 287 OFFCURVE",
"142 287 CURVE"
);
}
);
width = 504;
},
{
background = {
paths = (
{
closed = 1;
nodes = (
"300 -235 OFFCURVE",
"353 -211 OFFCURVE",
"353 -211 CURVE",
"348 -140 LINE",
"348 -140 OFFCURVE",
"325 -147 OFFCURVE",
"308 -147 CURVE SMOOTH",
"287 -147 OFFCURVE",
"274 -135 OFFCURVE",
"274 -117 CURVE SMOOTH",
"274 -65 OFFCURVE",
"410 33 OFFCURVE",
"449 60 CURVE SMOOTH",
"460 67 LINE",
"459 67 LINE",
"460 67 LINE",
"418 141 LINE",
"396 134 OFFCURVE",
"325 105 OFFCURVE",
"266 105 CURVE SMOOTH",
"207 105 OFFCURVE",
"172 126 OFFCURVE",
"172 213 CURVE",
"392 215 OFFCURVE",
"517 294 OFFCURVE",
"517 407 CURVE SMOOTH",
"517 494 OFFCURVE",
"445 550 OFFCURVE",
"327 550 CURVE SMOOTH",
"163 550 OFFCURVE",
"26 396 OFFCURVE",
"26 175 CURVE SMOOTH",
"26 58 OFFCURVE",
"105 -10 OFFCURVE",
"225 -10 CURVE SMOOTH",
"236 -10 OFFCURVE",
"247 -9 OFFCURVE",
"257 -8 CURVE",
"207 -44 OFFCURVE",
"158 -91 OFFCURVE",
"158 -152 CURVE SMOOTH",
"158 -206 OFFCURVE",
"199 -235 OFFCURVE",
"251 -235 CURVE SMOOTH"
);
},
{
closed = 1;
nodes = (
"204 380 OFFCURVE",
"255 437 OFFCURVE",
"315 437 CURVE SMOOTH",
"353 437 OFFCURVE",
"372 421 OFFCURVE",
"372 389 CURVE SMOOTH",
"372 344 OFFCURVE",
"311 304 OFFCURVE",
"184 301 CURVE"
);
}
);
};
layerId = "6959900B-8A08-4E04-B0F8-C63132552E7A";
paths = (
{
closed = 1;
nodes = (
"300 -235 OFFCURVE",
"353 -211 OFFCURVE",
"353 -211 CURVE",
"348 -140 LINE",
"348 -140 OFFCURVE",
"325 -147 OFFCURVE",
"308 -147 CURVE SMOOTH",
"287 -147 OFFCURVE",
"274 -135 OFFCURVE",
"274 -117 CURVE SMOOTH",
"274 -81 OFFCURVE",
"339 -14 OFFCURVE",
"460 67 CURVE",
"418 141 LINE",
"356 118 OFFCURVE",
"304 104 OFFCURVE",
"263 104 CURVE SMOOTH",
"202 104 OFFCURVE",
"172 134 OFFCURVE",
"172 213 CURVE",
"392 215 OFFCURVE",
"517 294 OFFCURVE",
"517 407 CURVE SMOOTH",
"517 494 OFFCURVE",
"445 550 OFFCURVE",
"327 550 CURVE SMOOTH",
"163 550 OFFCURVE",
"26 396 OFFCURVE",
"26 175 CURVE SMOOTH",
"26 58 OFFCURVE",
"105 -10 OFFCURVE",
"225 -10 CURVE SMOOTH",
"236 -10 OFFCURVE",
"246 -10 OFFCURVE",
"257 -8 CURVE",
"207 -48 OFFCURVE",
"158 -91 OFFCURVE",
"158 -152 CURVE SMOOTH",
"158 -206 OFFCURVE",
"199 -235 OFFCURVE",
"251 -235 CURVE SMOOTH"
);
},
{
closed = 1;
nodes = (
"204 380 OFFCURVE",
"255 437 OFFCURVE",
"315 437 CURVE SMOOTH",
"353 437 OFFCURVE",
"372 421 OFFCURVE",
"372 389 CURVE SMOOTH",
"372 344 OFFCURVE",
"311 304 OFFCURVE",
"184 301 CURVE"
);
}
);
width = 517;
}
);
leftKerningGroup = o;
rightKerningGroup = e;
unicode = 0119;
},
{
glyphname = f;
lastChange = "2016-08-18 14:48:36 +0000";
layers = (
{
layerId = "89F00A14-383C-41A8-AF30-A12CE933D7AF";
paths = (
{
closed = 1;
nodes = (
"94 -240 OFFCURVE",
"150 -145 OFFCURVE",
"170 -20 CURVE SMOOTH",
"245 450 LINE",
"385 450 LINE",
"398 525 LINE",
"257 525 LINE",
"270 605 LINE SMOOTH",
"279 660 OFFCURVE",
"300 700 OFFCURVE",
"370 700 CURVE SMOOTH",
"419 700 LINE",
"419 620 LINE",
"484 620 LINE",
"510 760 LINE",
"510 760 OFFCURVE",
"440 780 OFFCURVE",
"370 780 CURVE SMOOTH",
"245 780 OFFCURVE",
"189 700 OFFCURVE",
"171 585 CURVE SMOOTH",
"161 525 LINE",
"65 515 LINE",
"55 450 LINE",
"149 450 LINE",
"72 -40 LINE SMOOTH",
"60 -115 OFFCURVE",
"30 -163 OFFCURVE",
"-30 -163 CURVE SMOOTH",
"-101 -163 LINE",
"-118 -227 LINE",
"-118 -227 OFFCURVE",
"-70 -240 OFFCURVE",
"-35 -240 CURVE SMOOTH"
);
}
);
width = 352;
},
{
layerId = "6959900B-8A08-4E04-B0F8-C63132552E7A";
paths = (
{
closed = 1;
nodes = (
"122 -245 OFFCURVE",
"193 -158 OFFCURVE",
"213 -31 CURVE SMOOTH",
"286 430 LINE",
"418 430 LINE",
"436 530 LINE",
"303 530 LINE",
"313 595 LINE SMOOTH",
"321 648 OFFCURVE",
"343 677 OFFCURVE",
"401 677 CURVE SMOOTH",
"449 677 LINE",
"449 602 LINE",
"534 602 LINE",
"564 764 LINE",
"564 764 OFFCURVE",
"480 787 OFFCURVE",
"397 787 CURVE SMOOTH",
"235 787 OFFCURVE",
"183 690 OFFCURVE",
"164 544 CURVE SMOOTH",
"162 530 LINE",
"70 517 LINE",
"56 430 LINE",
"145 430 LINE",
"70 -48 LINE SMOOTH",
"60 -111 OFFCURVE",
"30 -144 OFFCURVE",
"-22 -144 CURVE SMOOTH",
"-91 -144 LINE",
"-110 -231 LINE",
"-110 -231 OFFCURVE",
"-48 -245 OFFCURVE",
"-8 -245 CURVE SMOOTH"
);
}
);
width = 401;
}
);
leftKerningGroup = f;
rightKerningGroup = f;
unicode = 0066;
},
{
glyphname = g;
lastChange = "2016-08-18 14:48:36 +0000";
layers = (
{
layerId = "89F00A14-383C-41A8-AF30-A12CE933D7AF";
paths = (
{
closed = 1;
nodes = (
"335 -245 OFFCURVE",
"418 -166 OFFCURVE",
"441 -24 CURVE SMOOTH",
"530 530 LINE",
"475 530 LINE",
"445 510 LINE",
"445 510 OFFCURVE",
"400 540 OFFCURVE",
"332 540 CURVE SMOOTH",
"183 540 OFFCURVE",
"36 410 OFFCURVE",
"36 165 CURVE SMOOTH",
"36 63 OFFCURVE",
"91 -10 OFFCURVE",
"165 -10 CURVE SMOOTH",
"298 -10 OFFCURVE",
"385 172 OFFCURVE",
"391 184 CURVE",
"346 -30 LINE SMOOTH",
"329 -111 OFFCURVE",
"287 -163 OFFCURVE",
"195 -163 CURVE SMOOTH",
"132 -163 OFFCURVE",
"45 -132 OFFCURVE",
"45 -132 CURVE",
"21 -204 LINE",
"21 -204 OFFCURVE",
"118 -245 OFFCURVE",
"205 -245 CURVE SMOOTH"
);
},
{
closed = 1;
nodes = (
"162 75 OFFCURVE",
"136 109 OFFCURVE",
"136 182 CURVE SMOOTH",
"136 379 OFFCURVE",
"237 465 OFFCURVE",
"332 465 CURVE SMOOTH",
"386 465 OFFCURVE",
"422 450 OFFCURVE",
"422 450 CURVE",
"403 345 LINE",
"403 345 OFFCURVE",
"318 75 OFFCURVE",
"197 75 CURVE SMOOTH"
);
}
);
width = 558;
},
{
layerId = "6959900B-8A08-4E04-B0F8-C63132552E7A";
paths = (
{
closed = 1;
nodes = (
"370 -252 OFFCURVE",
"453 -172 OFFCURVE",
"479 -12 CURVE SMOOTH",
"567 540 LINE",
"479 540 LINE",
"450 513 LINE",
"450 513 OFFCURVE",
"402 550 OFFCURVE",
"333 550 CURVE SMOOTH",
"181 550 OFFCURVE",
"30 414 OFFCURVE",
"30 166 CURVE SMOOTH",
"30 65 OFFCURVE",
"87 -10 OFFCURVE",
"174 -10 CURVE SMOOTH",
"294 -10 OFFCURVE",
"379 141 OFFCURVE",
"385 151 CURVE",
"350 -15 LINE SMOOTH",
"333 -95 OFFCURVE",
"292 -139 OFFCURVE",
"206 -139 CURVE SMOOTH",
"139 -139 OFFCURVE",
"45 -105 OFFCURVE",
"45 -105 CURVE",
"12 -203 LINE",
"12 -204 OFFCURVE",
"127 -252 OFFCURVE",
"226 -252 CURVE SMOOTH"
);
},
{
closed = 1;
nodes = (
"196 107 OFFCURVE",
"177 137 OFFCURVE",
"177 191 CURVE SMOOTH",
"177 334 OFFCURVE",
"242 442 OFFCURVE",
"335 442 CURVE SMOOTH",
"379 442 OFFCURVE",
"407 430 OFFCURVE",
"407 430 CURVE",
"393 347 LINE",
"393 347 OFFCURVE",
"327 107 OFFCURVE",
"226 107 CURVE SMOOTH"
);
}
);
width = 589;
}
);
leftKerningGroup = g;
rightKerningGroup = g;
unicode = 0067;
},
{
glyphname = gcircumflex;
lastChange = "2016-08-18 14:48:36 +0000";
layers = (
{
components = (
{
name = g;
},
{
name = circumflex;
transform = "{1, 0, 0, 1, 179, 0}";
}
);
layerId = "89F00A14-383C-41A8-AF30-A12CE933D7AF";
width = 558;
},
{
background = {
paths = (
{
closed = 1;
nodes = (
"12 -203 LINE",
"12 -204 OFFCURVE",
"127 -252 OFFCURVE",
"226 -252 CURVE SMOOTH",
"370 -252 OFFCURVE",
"453 -172 OFFCURVE",
"479 -12 CURVE SMOOTH",
"567 540 LINE",
"479 540 LINE",
"450 513 LINE",
"450 513 OFFCURVE",
"402 550 OFFCURVE",
"333 550 CURVE SMOOTH",
"181 550 OFFCURVE",
"30 414 OFFCURVE",
"30 166 CURVE SMOOTH",
"30 65 OFFCURVE",
"87 -10 OFFCURVE",
"174 -10 CURVE SMOOTH",
"294 -10 OFFCURVE",
"379 141 OFFCURVE",
"385 151 CURVE",
"350 -15 LINE SMOOTH",
"333 -95 OFFCURVE",
"292 -139 OFFCURVE",
"206 -139 CURVE SMOOTH",
"139 -139 OFFCURVE",
"45 -105 OFFCURVE",
"45 -105 CURVE"
);
},
{
closed = 1;
nodes = (
"393 347 LINE",
"393 347 OFFCURVE",
"327 107 OFFCURVE",
"226 107 CURVE SMOOTH",
"196 107 OFFCURVE",
"177 137 OFFCURVE",
"177 191 CURVE SMOOTH",
"177 334 OFFCURVE",
"242 442 OFFCURVE",
"335 442 CURVE SMOOTH",
"379 442 OFFCURVE",
"407 430 OFFCURVE",
"407 430 CURVE"
);
},
{
closed = 1;
nodes = (
"378 719 LINE",
"505 619 LINE",
"561 684 LINE",
"431 828 LINE",
"344 821 LINE",
"172 684 LINE",
"214 619 LINE"
);
}
);
};
components = (
{
name = g;
},
{
name = circumflex;
transform = "{1, 0, 0, 1, 172, -3}";
}
);
layerId = "6959900B-8A08-4E04-B0F8-C63132552E7A";
width = 589;
}
);
leftKerningGroup = g;
rightKerningGroup = g;
unicode = 011D;
},
{
glyphname = gcommaaccent;
lastChange = "2016-08-18 14:50:22 +0000";
layers = (
{
components = (
{
name = g;
},
{
name = commaaccentcomb;
transform = "{1, 0, 0, 1, 249, 861}";
}
);
layerId = "89F00A14-383C-41A8-AF30-A12CE933D7AF";
width = 558;
},
{
background = {
paths = (
{
closed = 1;
nodes = (
"12 -203 LINE",
"12 -204 OFFCURVE",
"127 -252 OFFCURVE",
"226 -252 CURVE SMOOTH",
"370 -252 OFFCURVE",
"453 -172 OFFCURVE",
"479 -12 CURVE SMOOTH",
"567 540 LINE",
"479 540 LINE",
"450 513 LINE",
"450 513 OFFCURVE",
"402 550 OFFCURVE",
"333 550 CURVE SMOOTH",
"181 550 OFFCURVE",
"30 414 OFFCURVE",
"30 166 CURVE SMOOTH",
"30 65 OFFCURVE",
"87 -10 OFFCURVE",
"174 -10 CURVE SMOOTH",
"294 -10 OFFCURVE",
"379 141 OFFCURVE",
"385 151 CURVE",
"350 -15 LINE SMOOTH",
"333 -95 OFFCURVE",
"292 -139 OFFCURVE",
"206 -139 CURVE SMOOTH",
"139 -139 OFFCURVE",
"45 -105 OFFCURVE",
"45 -105 CURVE"
);
},
{
closed = 1;
nodes = (
"393 347 LINE",
"393 347 OFFCURVE",
"327 107 OFFCURVE",
"226 107 CURVE SMOOTH",
"196 107 OFFCURVE",
"177 137 OFFCURVE",
"177 191 CURVE SMOOTH",
"177 334 OFFCURVE",
"242 442 OFFCURVE",
"335 442 CURVE SMOOTH",
"379 442 OFFCURVE",
"407 430 OFFCURVE",
"407 430 CURVE"
);
},
{
closed = 1;
nodes = (
"346 583 LINE",
"394 626 OFFCURVE",
"484 711 OFFCURVE",
"484 797 CURVE SMOOTH",
"484 837 OFFCURVE",
"464 862 OFFCURVE",
"424 862 CURVE SMOOTH",
"384 862 OFFCURVE",
"345 832 OFFCURVE",
"345 782 CURVE SMOOTH",
"345 754 OFFCURVE",
"357 742 OFFCURVE",
"357 723 CURVE SMOOTH",
"357 689 OFFCURVE",
"326 664 OFFCURVE",
"296 636 CURVE"
);
}
);
};
components = (
{
name = g;
},
{
name = commaaccentcomb;
transform = "{1, 0, 0, 1, 282, 912}";
}
);
layerId = "6959900B-8A08-4E04-B0F8-C63132552E7A";
width = 589;
}
);
leftKerningGroup = g;
rightKerningGroup = g;
unicode = 0123;
},
{
glyphname = h;
lastChange = "2016-08-18 14:48:36 +0000";
layers = (
{
layerId = "89F00A14-383C-41A8-AF30-A12CE933D7AF";
paths = (
{
closed = 1;
nodes = (
"154 0 LINE",
"187 180 LINE",
"187 180 OFFCURVE",
"266 455 OFFCURVE",
"396 455 CURVE SMOOTH",
"436 455 OFFCURVE",
"448 426 OFFCURVE",
"448 389 CURVE SMOOTH",
"448 375 OFFCURVE",
"446 360 OFFCURVE",
"444 345 CURVE SMOOTH",
"387 0 LINE",
"570 10 LINE",
"579 65 LINE",
"495 80 LINE",
"540 360 LINE SMOOTH",
"543 381 OFFCURVE",
"545 401 OFFCURVE",
"545 419 CURVE SMOOTH",
"545 491 OFFCURVE",
"516 540 OFFCURVE",
"436 540 CURVE SMOOTH",
"284 540 OFFCURVE",
"204 347 OFFCURVE",
"200 336 CURVE",
"277 770 LINE",
"94 765 LINE",
"85 710 LINE",
"169 690 LINE",
"59 0 LINE"
);
}
);
width = 626;
},
{
layerId = "6959900B-8A08-4E04-B0F8-C63132552E7A";
paths = (
{
closed = 1;
nodes = (
"191 0 LINE",
"224 182 LINE SMOOTH",
"235 242 OFFCURVE",
"296 427 OFFCURVE",
"384 427 CURVE SMOOTH",
"413 427 OFFCURVE",
"422 406 OFFCURVE",
"422 378 CURVE SMOOTH",
"422 367 OFFCURVE",
"421 355 OFFCURVE",
"419 342 CURVE SMOOTH",
"363 0 LINE",
"587 10 LINE",
"600 90 LINE",
"525 105 LINE",
"567 370 LINE SMOOTH",
"570 391 OFFCURVE",
"572 411 OFFCURVE",
"572 429 CURVE SMOOTH",
"572 502 OFFCURVE",
"540 550 OFFCURVE",
"460 550 CURVE SMOOTH",
"329 550 OFFCURVE",
"249 390 OFFCURVE",
"245 380 CURVE",
"315 775 LINE",
"89 767 LINE",
"76 687 LINE",
"153 667 LINE",
"46 0 LINE"
);
}
);
width = 639;
}
);
rightKerningGroup = n;
unicode = 0068;
},
{
glyphname = hbar;
lastChange = "2016-08-18 14:48:36 +0000";
layers = (
{
components = (
{
name = h;
}
);
layerId = "89F00A14-383C-41A8-AF30-A12CE933D7AF";
paths = (
{
closed = 1;
nodes = (
"73 650 LINE",
"62 575 LINE",
"347 575 LINE",
"358 650 LINE"
);
}
);
width = 626;
},
{
background = {
paths = (
{
closed = 1;
nodes = (
"89 767 LINE",
"76 687 LINE",
"153 667 LINE",
"149 646 LINE",
"71 646 LINE",
"58 566 LINE",
"137 566 LINE",
"46 0 LINE",
"187 0 LINE",
"220 182 LINE SMOOTH",
"231 242 OFFCURVE",
"292 427 OFFCURVE",
"380 427 CURVE SMOOTH",
"409 427 OFFCURVE",
"418 406 OFFCURVE",
"418 378 CURVE SMOOTH",
"418 367 OFFCURVE",
"417 355 OFFCURVE",
"415 342 CURVE SMOOTH",
"359 0 LINE",
"580 10 LINE",
"593 90 LINE",
"518 105 LINE",
"560 370 LINE SMOOTH",
"563 391 OFFCURVE",
"565 411 OFFCURVE",
"565 429 CURVE SMOOTH",
"565 502 OFFCURVE",
"536 550 OFFCURVE",
"456 550 CURVE SMOOTH",
"325 550 OFFCURVE",
"245 390 OFFCURVE",
"241 380 CURVE",
"274 566 LINE",
"382 566 LINE",
"394 646 LINE",
"288 646 LINE",
"311 775 LINE"
);
}
);
};
components = (
{
name = h;
}
);
layerId = "6959900B-8A08-4E04-B0F8-C63132552E7A";
paths = (
{
closed = 1;
nodes = (
"71 646 LINE",
"58 566 LINE",
"382 566 LINE",
"394 646 LINE"
);
}
);
width = 639;
}
);
rightKerningGroup = n;
unicode = 0127;
},
{
glyphname = hcircumflex;
lastChange = "2016-08-25 08:49:19 +0000";
layers = (
{
components = (
{
name = h;
},
{
name = circumflexcomb;
transform = "{1, 0, 0, 1, -28, 156}";
}
);
layerId = "89F00A14-383C-41A8-AF30-A12CE933D7AF";
width = 626;
},
{
background = {
paths = (
{
closed = 1;
nodes = (
"89 767 LINE",
"76 687 LINE",
"153 667 LINE",
"46 0 LINE",
"187 0 LINE",
"220 182 LINE SMOOTH",
"231 242 OFFCURVE",
"292 427 OFFCURVE",
"380 427 CURVE SMOOTH",
"409 427 OFFCURVE",
"418 406 OFFCURVE",
"418 378 CURVE SMOOTH",
"418 367 OFFCURVE",
"417 355 OFFCURVE",
"415 342 CURVE SMOOTH",
"359 0 LINE",
"580 10 LINE",
"593 90 LINE",
"518 105 LINE",
"560 370 LINE SMOOTH",
"563 391 OFFCURVE",
"565 411 OFFCURVE",
"565 429 CURVE SMOOTH",
"565 502 OFFCURVE",
"536 550 OFFCURVE",
"456 550 CURVE SMOOTH",
"325 550 OFFCURVE",
"245 390 OFFCURVE",
"241 380 CURVE",
"311 775 LINE"
);
},
{
closed = 1;
nodes = (
"250 892 LINE",
"377 792 LINE",
"433 857 LINE",
"303 1001 LINE",
"216 994 LINE",
"44 857 LINE",
"86 792 LINE"
);
}
);
};
components = (
{
name = h;
},
{
name = circumflex;
transform = "{1, 0, 0, 1, 44, 170}";
}
);
layerId = "6959900B-8A08-4E04-B0F8-C63132552E7A";
width = 639;
}
);
rightKerningGroup = n;
unicode = 0125;
},
{
glyphname = i;
lastChange = "2016-09-30 17:05:21 +0000";
layers = (
{
anchors = (
{
name = bottom;
position = "{113, 0}";
}
);
layerId = "89F00A14-383C-41A8-AF30-A12CE933D7AF";
paths = (
{
closed = 1;
nodes = (
"249 10 LINE",
"258 65 LINE",
"173 80 LINE",
"245 530 LINE",
"62 525 LINE",
"52 470 LINE",
"137 450 LINE",
"65 0 LINE"
);
},
{
closed = 1;
nodes = (
"252 625 OFFCURVE",
"275 668 OFFCURVE",
"275 715 CURVE SMOOTH",
"275 747 OFFCURVE",
"252 765 OFFCURVE",
"220 765 CURVE SMOOTH",
"173 765 OFFCURVE",
"150 722 OFFCURVE",
"150 675 CURVE SMOOTH",
"150 643 OFFCURVE",
"173 625 OFFCURVE",
"205 625 CURVE SMOOTH"
);
}
);
width = 310;
},
{
anchors = (
{
name = bottom;
position = "{124, 0}";
}
);
layerId = "6959900B-8A08-4E04-B0F8-C63132552E7A";
paths = (
{
closed = 1;
nodes = (
"277 10 LINE",
"290 90 LINE",
"214 105 LINE",
"283 540 LINE",
"58 532 LINE",
"44 452 LINE",
"121 432 LINE",
"53 0 LINE"
);
},
{
closed = 1;
nodes = (
"274 613 OFFCURVE",
"311 664 OFFCURVE",
"311 725 CURVE SMOOTH",
"311 771 OFFCURVE",
"282 795 OFFCURVE",
"242 795 CURVE SMOOTH",
"184 795 OFFCURVE",
"147 744 OFFCURVE",
"147 685 CURVE SMOOTH",
"147 637 OFFCURVE",
"176 613 OFFCURVE",
"218 613 CURVE SMOOTH"
);
}
);
width = 334;
}
);
leftKerningGroup = i;
rightKerningGroup = i;
unicode = 0069;
},
{
glyphname = idotless;
lastChange = "2016-09-30 17:13:25 +0000";
layers = (
{
anchors = (
{
name = bottom;
position = "{101, 0}";
},
{
name = ogonek;
position = "{215, 10}";
},
{
name = top;
position = "{185, 530}";
}
);
layerId = "89F00A14-383C-41A8-AF30-A12CE933D7AF";
paths = (
{
closed = 1;
nodes = (
"252 10 LINE",
"261 65 LINE",
"176 80 LINE",
"248 530 LINE",
"65 525 LINE",
"55 470 LINE",
"140 450 LINE",
"68 0 LINE"
);
}
);
width = 286;
},
{
anchors = (
{
name = bottom;
position = "{122, 0}";
},
{
name = ogonek;
position = "{254, 10}";
},
{
name = top;
position = "{208, 540}";
}
);
layerId = "6959900B-8A08-4E04-B0F8-C63132552E7A";
paths = (
{
closed = 1;
nodes = (
"273 10 LINE",
"286 90 LINE",
"210 105 LINE",
"279 540 LINE",
"58 532 LINE",
"44 452 LINE",
"121 432 LINE",
"53 0 LINE"
);
}
);
width = 330;
}
);
leftKerningGroup = i;
rightKerningGroup = i;
unicode = 0131;
},
{
glyphname = icircumflex;
lastChange = "2016-08-18 14:50:22 +0000";
layers = (
{
background = {
paths = (
{
closed = 1;
nodes = (
"334 612 LINE",
"380 657 LINE",
"261 797 LINE",
"202 792 LINE",
"40 657 LINE",
"72 612 LINE",
"222 720 LINE"
);
}
);
};
components = (
{
name = idotless;
}
);
layerId = "89F00A14-383C-41A8-AF30-A12CE933D7AF";
paths = (
{
closed = 1;
nodes = (
"222 720 LINE",
"334 612 LINE",
"380 657 LINE",
"261 797 LINE",
"202 792 LINE",
"40 657 LINE",
"72 612 LINE"
);
}
);
width = 286;
},
{
background = {
paths = (
{
closed = 1;
nodes = (
"218 716 LINE",
"335 616 LINE",
"394 681 LINE",
"271 825 LINE",
"184 818 LINE",
"20 681 LINE",
"65 616 LINE"
);
},
{
closed = 1;
nodes = (
"64 532 LINE",
"50 452 LINE",
"127 432 LINE",
"59 0 LINE",
"279 10 LINE",
"292 90 LINE",
"216 105 LINE",
"285 540 LINE"
);
}
);
};
components = (
{
name = idotless;
}
);
layerId = "6959900B-8A08-4E04-B0F8-C63132552E7A";
paths = (
{
closed = 1;
nodes = (
"218 716 LINE",
"335 616 LINE",
"391 681 LINE",
"271 825 LINE",
"184 818 LINE",
"22 681 LINE",
"64 616 LINE"
);
}
);
width = 330;
}
);
leftKerningGroup = i;
rightKerningGroup = i;
unicode = 00EE;
},
{
glyphname = idieresis;
lastChange = "2016-08-18 14:50:22 +0000";
layers = (
{
components = (
{
name = idotless;
}
);
layerId = "89F00A14-383C-41A8-AF30-A12CE933D7AF";
paths = (
{
closed = 1;
nodes = (
"248 657 OFFCURVE",
"265 640 OFFCURVE",
"293 640 CURVE SMOOTH",
"330 640 OFFCURVE",
"358 674 OFFCURVE",
"358 714 CURVE SMOOTH",
"358 743 OFFCURVE",
"341 760 OFFCURVE",
"312 760 CURVE SMOOTH",
"273 760 OFFCURVE",
"248 725 OFFCURVE",
"248 685 CURVE SMOOTH"
);
},
{
closed = 1;
nodes = (
"62 657 OFFCURVE",
"79 640 OFFCURVE",
"107 640 CURVE SMOOTH",
"144 640 OFFCURVE",
"172 674 OFFCURVE",
"172 714 CURVE SMOOTH",
"172 743 OFFCURVE",
"155 760 OFFCURVE",
"126 760 CURVE SMOOTH",
"87 760 OFFCURVE",
"62 725 OFFCURVE",
"62 685 CURVE SMOOTH"
);
}
);
width = 286;
},
{
components = (
{
name = idotless;
}
);
layerId = "6959900B-8A08-4E04-B0F8-C63132552E7A";
paths = (
{
closed = 1;
nodes = (
"254 643 OFFCURVE",
"277 620 OFFCURVE",
"314 620 CURVE SMOOTH",
"367 620 OFFCURVE",
"398 664 OFFCURVE",
"398 715 CURVE SMOOTH",
"398 753 OFFCURVE",
"374 776 OFFCURVE",
"336 776 CURVE SMOOTH",
"283 776 OFFCURVE",
"254 731 OFFCURVE",
"254 680 CURVE SMOOTH"
);
},
{
closed = 1;
nodes = (
"60 643 OFFCURVE",
"83 620 OFFCURVE",
"120 620 CURVE SMOOTH",
"173 620 OFFCURVE",
"205 664 OFFCURVE",
"205 715 CURVE SMOOTH",
"205 753 OFFCURVE",
"181 776 OFFCURVE",
"143 776 CURVE SMOOTH",
"89 776 OFFCURVE",
"60 731 OFFCURVE",
"60 680 CURVE SMOOTH"
);
}
);
width = 330;
}
);
leftKerningGroup = i;
rightKerningGroup = i;
unicode = 00EF;
},
{
glyphname = ij;
lastChange = "2016-08-18 14:48:36 +0000";
layers = (
{
layerId = "89F00A14-383C-41A8-AF30-A12CE933D7AF";
paths = (
{
closed = 1;
nodes = (
"388 -240 OFFCURVE",
"456 -165 OFFCURVE",
"476 -45 CURVE SMOOTH",
"570 530 LINE",
"385 525 LINE",
"375 470 LINE",
"461 450 LINE",
"444 348 LINE SMOOTH",
"440 324 OFFCURVE",
"360 75 OFFCURVE",
"232 75 CURVE SMOOTH",
"192 75 OFFCURVE",
"180 103 OFFCURVE",
"180 141 CURVE SMOOTH",
"180 155 OFFCURVE",
"182 169 OFFCURVE",
"184 185 CURVE SMOOTH",
"239 530 LINE",
"56 525 LINE",
"47 470 LINE",
"132 450 LINE",
"86 170 LINE SMOOTH",
"83 149 OFFCURVE",
"81 130 OFFCURVE",
"81 112 CURVE SMOOTH",
"81 38 OFFCURVE",
"111 -10 OFFCURVE",
"192 -10 CURVE SMOOTH",
"306 -10 OFFCURVE",
"382 100 OFFCURVE",
"414 159 CURVE",
"383 -35 LINE SMOOTH",
"368 -125 OFFCURVE",
"343 -165 OFFCURVE",
"271 -165 CURVE SMOOTH",
"236 -165 OFFCURVE",
"211 -160 OFFCURVE",
"211 -160 CURVE",
"191 -225 LINE",
"191 -225 OFFCURVE",
"231 -240 OFFCURVE",
"271 -240 CURVE SMOOTH"
);
},
{
closed = 1;
nodes = (
"246 625 OFFCURVE",
"269 668 OFFCURVE",
"269 715 CURVE SMOOTH",
"269 747 OFFCURVE",
"246 765 OFFCURVE",
"214 765 CURVE SMOOTH",
"167 765 OFFCURVE",
"144 722 OFFCURVE",
"144 675 CURVE SMOOTH",
"144 643 OFFCURVE",
"167 625 OFFCURVE",
"199 625 CURVE SMOOTH"
);
},
{
closed = 1;
nodes = (
"576 625 OFFCURVE",
"599 668 OFFCURVE",
"599 715 CURVE SMOOTH",
"599 747 OFFCURVE",
"576 765 OFFCURVE",
"544 765 CURVE SMOOTH",
"497 765 OFFCURVE",
"474 722 OFFCURVE",
"474 675 CURVE SMOOTH",
"474 643 OFFCURVE",
"497 625 OFFCURVE",
"529 625 CURVE SMOOTH"
);
}
);
width = 604;
},
{
layerId = "6959900B-8A08-4E04-B0F8-C63132552E7A";
paths = (
{
closed = 1;
nodes = (
"421 -245 OFFCURVE",
"498 -168 OFFCURVE",
"518 -43 CURVE SMOOTH",
"612 540 LINE",
"390 532 LINE",
"376 452 LINE",
"454 432 LINE",
"438 332 LINE",
"427 272 OFFCURVE",
"337 115 OFFCURVE",
"254 115 CURVE SMOOTH",
"225 115 OFFCURVE",
"216 136 OFFCURVE",
"216 164 CURVE SMOOTH",
"216 175 OFFCURVE",
"217 187 OFFCURVE",
"219 200 CURVE SMOOTH",
"275 542 LINE",
"54 532 LINE",
"39 452 LINE",
"116 432 LINE",
"74 172 LINE SMOOTH",
"71 151 OFFCURVE",
"69 131 OFFCURVE",
"69 113 CURVE SMOOTH",
"69 40 OFFCURVE",
"98 -8 OFFCURVE",
"178 -8 CURVE SMOOTH",
"313 -8 OFFCURVE",
"388 130 OFFCURVE",
"413 165 CURVE",
"382 -16 LINE SMOOTH",
"366 -107 OFFCURVE",
"351 -145 OFFCURVE",
"280 -145 CURVE SMOOTH",
"252 -145 OFFCURVE",
"228 -142 OFFCURVE",
"217 -142 CURVE",
"197 -230 LINE",
"197 -230 OFFCURVE",
"254 -245 OFFCURVE",
"297 -245 CURVE SMOOTH"
);
},
{
closed = 1;
nodes = (
"265 613 OFFCURVE",
"302 664 OFFCURVE",
"302 725 CURVE SMOOTH",
"302 771 OFFCURVE",
"273 795 OFFCURVE",
"233 795 CURVE SMOOTH",
"175 795 OFFCURVE",
"138 744 OFFCURVE",
"138 685 CURVE SMOOTH",
"138 637 OFFCURVE",
"167 613 OFFCURVE",
"209 613 CURVE SMOOTH"
);
},
{
closed = 1;
nodes = (
"603 613 OFFCURVE",
"640 664 OFFCURVE",
"640 725 CURVE SMOOTH",
"640 771 OFFCURVE",
"611 795 OFFCURVE",
"570 795 CURVE SMOOTH",
"512 795 OFFCURVE",
"475 744 OFFCURVE",
"475 685 CURVE SMOOTH",
"475 637 OFFCURVE",
"505 613 OFFCURVE",
"546 613 CURVE SMOOTH"
);
}
);
width = 635;
}
);
leftKerningGroup = i;
rightKerningGroup = j;
unicode = 0133;
},
{
glyphname = imacron;
lastChange = "2016-08-18 14:50:22 +0000";
layers = (
{
components = (
{
name = idotless;
}
);
layerId = "89F00A14-383C-41A8-AF30-A12CE933D7AF";
paths = (
{
closed = 1;
nodes = (
"70 660 LINE",
"324 660 LINE",
"335 735 LINE",
"81 735 LINE"
);
}
);
width = 286;
},
{
background = {
paths = (
{
closed = 1;
nodes = (
"60 642 LINE",
"342 642 LINE",
"360 747 LINE",
"78 747 LINE"
);
},
{
closed = 1;
nodes = (
"58 532 LINE",
"44 452 LINE",
"121 432 LINE",
"53 0 LINE",
"273 10 LINE",
"286 90 LINE",
"210 105 LINE",
"279 540 LINE"
);
}
);
};
components = (
{
name = idotless;
}
);
layerId = "6959900B-8A08-4E04-B0F8-C63132552E7A";
paths = (
{
closed = 1;
nodes = (
"60 642 LINE",
"342 642 LINE",
"360 747 LINE",
"78 747 LINE"
);
}
);
width = 330;
}
);
leftKerningGroup = i;
rightKerningGroup = i;
unicode = 012B;
},
{
glyphname = iogonek;
lastChange = "2016-08-18 14:48:36 +0000";
layers = (
{
components = (
{
name = i;
transform = "{1, 0, 0, 1, 1, 0}";
}
);
layerId = "89F00A14-383C-41A8-AF30-A12CE933D7AF";
paths = (
{
closed = 1;
nodes = (
"158 -220 OFFCURVE",
"200 -200 OFFCURVE",
"200 -200 CURVE",
"200 -153 LINE",
"191 -156 OFFCURVE",
"173 -160 OFFCURVE",
"154 -160 CURVE SMOOTH",
"132 -160 OFFCURVE",
"115 -148 OFFCURVE",
"115 -124 CURVE SMOOTH",
"115 -46 OFFCURVE",
"220 -5 OFFCURVE",
"250 10 CURVE",
"149 6 LINE",
"105 -18 OFFCURVE",
"35 -70 OFFCURVE",
"35 -142 CURVE SMOOTH",
"35 -190 OFFCURVE",
"72 -220 OFFCURVE",
"119 -220 CURVE SMOOTH"
);
}
);
width = 329;
},
{
components = (
{
name = i;
}
);
layerId = "6959900B-8A08-4E04-B0F8-C63132552E7A";
paths = (
{
closed = 1;
nodes = (
"162 -235 OFFCURVE",
"215 -211 OFFCURVE",
"215 -211 CURVE",
"210 -140 LINE",
"210 -140 OFFCURVE",
"187 -147 OFFCURVE",
"170 -147 CURVE SMOOTH",
"149 -147 OFFCURVE",
"136 -135 OFFCURVE",
"136 -117 CURVE SMOOTH",
"136 -62 OFFCURVE",
"270 6 OFFCURVE",
"277 10 CURVE",
"148 6 LINE",
"114 -11 OFFCURVE",
"20 -69 OFFCURVE",
"20 -152 CURVE SMOOTH",
"20 -206 OFFCURVE",
"61 -235 OFFCURVE",
"113 -235 CURVE SMOOTH"
);
}
);
width = 330;
}
);
leftKerningGroup = i;
rightKerningGroup = i;
unicode = 012F;
},
{
glyphname = itilde;
lastChange = "2016-08-18 14:50:22 +0000";
layers = (
{
components = (
{
name = idotless;
}
);
layerId = "89F00A14-383C-41A8-AF30-A12CE933D7AF";
paths = (
{
closed = 1;
nodes = (
"33 635 LINE",
"33 635 OFFCURVE",
"66 679 OFFCURVE",
"106 679 CURVE SMOOTH",
"159 679 OFFCURVE",
"192 635 OFFCURVE",
"255 635 CURVE SMOOTH",
"324 635 OFFCURVE",
"370 725 OFFCURVE",
"370 725 CURVE",
"341 760 LINE",
"341 760 OFFCURVE",
"312 718 OFFCURVE",
"273 718 CURVE SMOOTH",
"219 718 OFFCURVE",
"188 764 OFFCURVE",
"125 764 CURVE SMOOTH",
"56 764 OFFCURVE",
"5 670 OFFCURVE",
"5 670 CURVE"
);
}
);
width = 286;
},
{
components = (
{
name = idotless;
}
);
layerId = "6959900B-8A08-4E04-B0F8-C63132552E7A";
paths = (
{
closed = 1;
nodes = (
"32 630 LINE",
"32 630 OFFCURVE",
"64 671 OFFCURVE",
"105 671 CURVE SMOOTH",
"159 671 OFFCURVE",
"187 627 OFFCURVE",
"251 627 CURVE SMOOTH",
"330 627 OFFCURVE",
"384 736 OFFCURVE",
"384 736 CURVE",
"339 782 LINE",
"339 782 OFFCURVE",
"309 740 OFFCURVE",
"271 740 CURVE SMOOTH",
"217 740 OFFCURVE",
"191 786 OFFCURVE",
"127 786 CURVE SMOOTH",
"47 786 OFFCURVE",
"-6 676 OFFCURVE",
"-6 676 CURVE"
);
}
);
width = 330;
}
);
leftKerningGroup = i;
rightKerningGroup = i;
unicode = 0129;
},
{
glyphname = j;
lastChange = "2016-08-18 14:48:36 +0000";
layers = (
{
layerId = "89F00A14-383C-41A8-AF30-A12CE933D7AF";
paths = (
{
closed = 1;
nodes = (
"59 -240 OFFCURVE",
"127 -165 OFFCURVE",
"147 -45 CURVE SMOOTH",
"241 530 LINE",
"56 525 LINE",
"46 470 LINE",
"132 450 LINE",
"54 -35 LINE SMOOTH",
"39 -125 OFFCURVE",
"14 -165 OFFCURVE",
"-58 -165 CURVE SMOOTH",
"-93 -165 OFFCURVE",
"-118 -160 OFFCURVE",
"-118 -160 CURVE",
"-138 -225 LINE",
"-138 -225 OFFCURVE",
"-98 -240 OFFCURVE",
"-58 -240 CURVE SMOOTH"
);
},
{
closed = 1;
nodes = (
"247 625 OFFCURVE",
"270 668 OFFCURVE",
"270 715 CURVE SMOOTH",
"270 747 OFFCURVE",
"247 765 OFFCURVE",
"215 765 CURVE SMOOTH",
"168 765 OFFCURVE",
"145 722 OFFCURVE",
"145 675 CURVE SMOOTH",
"145 643 OFFCURVE",
"168 625 OFFCURVE",
"200 625 CURVE SMOOTH"
);
}
);
width = 290;
},
{
layerId = "6959900B-8A08-4E04-B0F8-C63132552E7A";
paths = (
{
closed = 1;
nodes = (
"90 -245 OFFCURVE",
"167 -168 OFFCURVE",
"187 -43 CURVE SMOOTH",
"281 540 LINE",
"59 532 LINE",
"45 452 LINE",
"123 432 LINE",
"51 -16 LINE SMOOTH",
"36 -107 OFFCURVE",
"20 -145 OFFCURVE",
"-51 -145 CURVE SMOOTH",
"-79 -145 OFFCURVE",
"-103 -142 OFFCURVE",
"-114 -142 CURVE",
"-134 -230 LINE",
"-134 -230 OFFCURVE",
"-77 -245 OFFCURVE",
"-34 -245 CURVE SMOOTH"
);
},
{
closed = 1;
nodes = (
"272 613 OFFCURVE",
"309 664 OFFCURVE",
"309 725 CURVE SMOOTH",
"309 771 OFFCURVE",
"280 795 OFFCURVE",
"239 795 CURVE SMOOTH",
"181 795 OFFCURVE",
"144 744 OFFCURVE",
"144 685 CURVE SMOOTH",
"144 637 OFFCURVE",
"174 613 OFFCURVE",
"215 613 CURVE SMOOTH"
);
}
);
width = 319;
}
);
leftKerningGroup = j;
rightKerningGroup = i;
unicode = 006A;
},
{
glyphname = jdotless;
lastChange = "2016-08-18 14:50:22 +0000";
layers = (
{
layerId = "89F00A14-383C-41A8-AF30-A12CE933D7AF";
paths = (
{
closed = 1;
nodes = (
"54 -240 OFFCURVE",
"120 -165 OFFCURVE",
"140 -45 CURVE SMOOTH",
"236 530 LINE",
"50 525 LINE",
"40 470 LINE",
"126 450 LINE",
"45 -35 LINE SMOOTH",
"30 -125 OFFCURVE",
"5 -165 OFFCURVE",
"-63 -165 CURVE SMOOTH",
"-98 -165 OFFCURVE",
"-123 -160 OFFCURVE",
"-123 -160 CURVE",
"-143 -225 LINE",
"-143 -225 OFFCURVE",
"-103 -240 OFFCURVE",
"-63 -240 CURVE SMOOTH"
);
}
);
width = 264;
},
{
layerId = "6959900B-8A08-4E04-B0F8-C63132552E7A";
paths = (
{
closed = 1;
nodes = (
"90 -245 OFFCURVE",
"167 -168 OFFCURVE",
"187 -43 CURVE SMOOTH",
"281 540 LINE",
"59 532 LINE",
"45 452 LINE",
"123 432 LINE",
"51 -16 LINE SMOOTH",
"36 -107 OFFCURVE",
"20 -145 OFFCURVE",
"-51 -145 CURVE SMOOTH",
"-79 -145 OFFCURVE",
"-103 -142 OFFCURVE",
"-114 -142 CURVE",
"-134 -230 LINE",
"-134 -230 OFFCURVE",
"-77 -245 OFFCURVE",
"-34 -245 CURVE SMOOTH"
);
}
);
width = 328;
}
);
leftKerningGroup = j;
rightKerningGroup = i;
unicode = 0237;
},
{
glyphname = jcircumflex;
lastChange = "2016-08-18 14:50:22 +0000";
layers = (
{
components = (
{
name = jdotless;
},
{
name = circumflex;
transform = "{1, 0, 0, 1, 14, 0}";
}
);
layerId = "89F00A14-383C-41A8-AF30-A12CE933D7AF";
width = 264;
},
{
background = {
paths = (
{
closed = 1;
nodes = (
"126 432 LINE",
"54 -16 LINE SMOOTH",
"39 -107 OFFCURVE",
"23 -145 OFFCURVE",
"-48 -145 CURVE SMOOTH",
"-76 -145 OFFCURVE",
"-100 -142 OFFCURVE",
"-111 -142 CURVE",
"-131 -230 LINE",
"-131 -230 OFFCURVE",
"-74 -245 OFFCURVE",
"-31 -245 CURVE SMOOTH",
"93 -245 OFFCURVE",
"170 -168 OFFCURVE",
"190 -43 CURVE SMOOTH",
"284 540 LINE",
"62 532 LINE",
"48 452 LINE"
);
},
{
closed = 1;
nodes = (
"211 719 LINE",
"338 619 LINE",
"394 684 LINE",
"264 828 LINE",
"177 821 LINE",
"5 684 LINE",
"47 619 LINE"
);
}
);
};
components = (
{
name = jdotless;
},
{
name = circumflex;
transform = "{1, 0, 0, 1, 5, 0}";
}
);
layerId = "6959900B-8A08-4E04-B0F8-C63132552E7A";
width = 328;
}
);
leftKerningGroup = j;
rightKerningGroup = j;
unicode = 0135;
},
{
glyphname = k;
lastChange = "2016-08-18 14:48:36 +0000";
layers = (
{
layerId = "89F00A14-383C-41A8-AF30-A12CE933D7AF";
paths = (
{
closed = 1;
nodes = (
"149 0 LINE",
"189 255 LINE",
"275 255 LINE",
"376 0 LINE",
"512 0 LINE",
"522 55 LINE",
"443 80 LINE",
"350 301 LINE",
"479 457 LINE",
"552 470 LINE",
"562 530 LINE",
"348 525 LINE",
"340 470 LINE",
"382 458 LINE",
"285 329 LINE",
"201 329 LINE",
"272 770 LINE",
"89 765 LINE",
"80 710 LINE",
"165 690 LINE",
"54 0 LINE"
);
}
);
width = 540;
},
{
layerId = "6959900B-8A08-4E04-B0F8-C63132552E7A";
paths = (
{
closed = 1;
nodes = (
"187 0 LINE",
"226 244 LINE",
"285 244 LINE",
"373 0 LINE",
"546 0 LINE",
"557 80 LINE",
"485 103 LINE",
"402 306 LINE",
"520 443 LINE",
"585 455 LINE",
"598 540 LINE",
"360 535 LINE",
"348 455 LINE",
"388 441 LINE",
"306 339 LINE",
"241 339 LINE",
"311 775 LINE",
"87 767 LINE",
"74 687 LINE",
"151 667 LINE",
"44 0 LINE"
);
}
);
width = 549;
}
);
leftKerningGroup = l;
rightKerningGroup = k;
unicode = 006B;
},
{
glyphname = kgreenlandic;
lastChange = "2016-08-18 14:48:36 +0000";
layers = (
{
layerId = "89F00A14-383C-41A8-AF30-A12CE933D7AF";
paths = (
{
closed = 1;
nodes = (
"160 0 LINE",
"200 255 LINE",
"285 255 LINE",
"385 0 LINE",
"523 0 LINE",
"533 55 LINE",
"452 80 LINE",
"360 300 LINE",
"488 457 LINE",
"563 470 LINE",
"573 530 LINE",
"358 525 LINE",
"350 470 LINE",
"393 459 LINE",
"295 329 LINE",
"211 329 LINE",
"244 530 LINE",
"61 525 LINE",
"52 470 LINE",
"137 450 LINE",
"65 0 LINE"
);
}
);
width = 551;
},
{
layerId = "6959900B-8A08-4E04-B0F8-C63132552E7A";
paths = (
{
closed = 1;
nodes = (
"197 0 LINE",
"237 244 LINE",
"296 244 LINE",
"384 0 LINE",
"557 0 LINE",
"568 80 LINE",
"496 103 LINE",
"413 306 LINE",
"531 443 LINE",
"596 455 LINE",
"609 540 LINE",
"371 535 LINE",
"359 455 LINE",
"399 441 LINE",
"317 339 LINE",
"252 339 LINE",
"285 542 LINE",
"58 533 LINE",
"44 452 LINE",
"122 433 LINE",
"53 0 LINE"
);
}
);
width = 560;
}
);
leftKerningGroup = l;
rightKerningGroup = k;
unicode = 0138;
},
{
glyphname = l;
lastChange = "2016-08-18 14:48:36 +0000";
layers = (
{
layerId = "89F00A14-383C-41A8-AF30-A12CE933D7AF";
paths = (
{
closed = 1;
nodes = (
"240 10 LINE",
"249 65 LINE",
"164 80 LINE",
"274 770 LINE",
"89 765 LINE",
"80 710 LINE",
"164 690 LINE",
"54 0 LINE"
);
}
);
width = 291;
},
{
layerId = "6959900B-8A08-4E04-B0F8-C63132552E7A";
paths = (
{
closed = 1;
nodes = (
"269 10 LINE",
"282 90 LINE",
"206 105 LINE",
"313 775 LINE",
"89 767 LINE",
"76 687 LINE",
"153 667 LINE",
"46 0 LINE"
);
}
);
width = 321;
}
);
leftKerningGroup = l;
rightKerningGroup = l;
unicode = 006C;
},
{
glyphname = lcaron;
lastChange = "2016-08-25 08:49:27 +0000";
layers = (
{
components = (
{
name = l;
},
{
name = caroncomb;
transform = "{1, 0, 0, 1, 248, 0}";
}
);
layerId = "89F00A14-383C-41A8-AF30-A12CE933D7AF";
paths = (
{
closed = 0;
nodes = (
"196 596 LINE"
);
}
);
width = 364;
},
{
components = (
{
name = l;
},
{
name = caroncomb;
transform = "{1, 0, 0, 1, 289, 0}";
}
);
layerId = "6959900B-8A08-4E04-B0F8-C63132552E7A";
paths = (
{
closed = 0;
nodes = (
"215 629 LINE"
);
}
);
width = 439;
}
);
leftKerningGroup = l;
unicode = 013E;
},
{
glyphname = lcommaaccent;
lastChange = "2016-08-18 14:50:22 +0000";
layers = (
{
components = (
{
name = l;
},
{
name = commaaccentcomb;
transform = "{1, 0, 0, 1, -27, 0}";
}
);
layerId = "89F00A14-383C-41A8-AF30-A12CE933D7AF";
width = 291;
},
{
background = {
paths = (
{
closed = 1;
nodes = (
"44 -329 LINE",
"92 -286 OFFCURVE",
"182 -201 OFFCURVE",
"182 -115 CURVE SMOOTH",
"182 -75 OFFCURVE",
"162 -50 OFFCURVE",
"122 -50 CURVE SMOOTH",
"82 -50 OFFCURVE",
"43 -80 OFFCURVE",
"43 -130 CURVE SMOOTH",
"43 -158 OFFCURVE",
"55 -170 OFFCURVE",
"55 -189 CURVE SMOOTH",
"55 -223 OFFCURVE",
"24 -248 OFFCURVE",
"-6 -276 CURVE"
);
},
{
closed = 1;
nodes = (
"89 767 LINE",
"76 687 LINE",
"153 667 LINE",
"46 0 LINE",
"269 10 LINE",
"282 90 LINE",
"206 105 LINE",
"313 775 LINE"
);
}
);
};
components = (
{
name = l;
},
{
name = commaaccentcomb;
transform = "{1, 0, 0, 1, -19, 0}";
}
);
layerId = "6959900B-8A08-4E04-B0F8-C63132552E7A";
width = 321;
}
);
leftKerningGroup = l;
rightKerningGroup = l;
unicode = 013C;
},
{
glyphname = ldot;
lastChange = "2016-08-18 14:48:36 +0000";
layers = (
{
components = (
{
name = l;
},
{
name = periodcentered;
transform = "{1, 0, 0, 1, 188, 9}";
}
);
layerId = "89F00A14-383C-41A8-AF30-A12CE933D7AF";
paths = (
{
closed = 0;
nodes = (
"153 316 LINE"
);
}
);
width = 404;
},
{
background = {
paths = (
{
closed = 1;
nodes = (
"89 767 LINE",
"76 687 LINE",
"153 667 LINE",
"46 0 LINE",
"269 10 LINE",
"282 90 LINE",
"206 105 LINE",
"313 775 LINE"
);
},
{
closed = 1;
nodes = (
"308 247 OFFCURVE",
"337 218 OFFCURVE",
"382 218 CURVE SMOOTH",
"450 218 OFFCURVE",
"484 272 OFFCURVE",
"484 332 CURVE SMOOTH",
"484 378 OFFCURVE",
"453 406 OFFCURVE",
"408 406 CURVE SMOOTH",
"340 406 OFFCURVE",
"308 353 OFFCURVE",
"308 292 CURVE SMOOTH"
);
}
);
};
components = (
{
name = l;
},
{
alignment = -1;
name = periodcentered;
transform = "{1, 0, 0, 1, 230, 7}";
}
);
layerId = "6959900B-8A08-4E04-B0F8-C63132552E7A";
width = 483;
}
);
leftKerningGroup = l;
unicode = 0140;
},
{
glyphname = lslash;
lastChange = "2016-08-18 14:48:36 +0000";
layers = (
{
components = (
{
name = l;
transform = "{1, 0, 0, 1, 8, 0}";
}
);
layerId = "89F00A14-383C-41A8-AF30-A12CE933D7AF";
paths = (
{
closed = 1;
nodes = (
"342 405 LINE",
"334 480 LINE",
"1 336 LINE",
"10 262 LINE"
);
}
);
width = 310;
},
{
background = {
paths = (
{
closed = 1;
nodes = (
"102 767 LINE",
"89 687 LINE",
"166 667 LINE",
"59 0 LINE",
"282 10 LINE",
"295 90 LINE",
"219 105 LINE",
"326 775 LINE"
);
},
{
closed = 1;
nodes = (
"-3 346 LINE",
"8 246 LINE",
"389 400 LINE",
"378 500 LINE"
);
}
);
};
components = (
{
name = l;
transform = "{1, 0, 0, 1, 14, 0}";
}
);
layerId = "6959900B-8A08-4E04-B0F8-C63132552E7A";
paths = (
{
closed = 1;
nodes = (
"389 400 LINE",
"378 500 LINE",
"-3 346 LINE",
"8 246 LINE"
);
}
);
width = 353;
}
);
unicode = 0142;
},
{
glyphname = m;
lastChange = "2016-08-18 14:48:36 +0000";
layers = (
{
layerId = "89F00A14-383C-41A8-AF30-A12CE933D7AF";
paths = (
{
closed = 1;
nodes = (
"159 0 LINE",
"188 180 LINE",
"188 180 OFFCURVE",
"265 455 OFFCURVE",
"391 455 CURVE SMOOTH",
"431 455 OFFCURVE",
"443 426 OFFCURVE",
"443 389 CURVE SMOOTH",
"443 375 OFFCURVE",
"441 360 OFFCURVE",
"439 345 CURVE SMOOTH",
"383 0 LINE",
"478 0 LINE",
"505 173 LINE",
"505 173 OFFCURVE",
"583 455 OFFCURVE",
"711 455 CURVE SMOOTH",
"751 455 OFFCURVE",
"763 426 OFFCURVE",
"763 388 CURVE SMOOTH",
"763 375 OFFCURVE",
"761 360 OFFCURVE",
"759 345 CURVE SMOOTH",
"702 0 LINE",
"886 10 LINE",
"895 65 LINE",
"810 80 LINE",
"856 360 LINE SMOOTH",
"859 380 OFFCURVE",
"861 399 OFFCURVE",
"861 417 CURVE SMOOTH",
"861 490 OFFCURVE",
"831 540 OFFCURVE",
"751 540 CURVE SMOOTH",
"625 540 OFFCURVE",
"559 417 OFFCURVE",
"533 356 CURVE",
"536 378 OFFCURVE",
"538 399 OFFCURVE",
"538 418 CURVE SMOOTH",
"538 493 OFFCURVE",
"510 540 OFFCURVE",
"431 540 CURVE SMOOTH",
"279 540 OFFCURVE",
"204 347 OFFCURVE",
"200 336 CURVE",
"243 530 LINE",
"61 525 LINE",
"52 470 LINE",
"136 450 LINE",
"64 0 LINE"
);
}
);
width = 942;
},
{
layerId = "6959900B-8A08-4E04-B0F8-C63132552E7A";
paths = (
{
closed = 1;
nodes = (
"194 0 LINE",
"222 170 LINE",
"252 285 OFFCURVE",
"309 427 OFFCURVE",
"380 427 CURVE SMOOTH",
"409 427 OFFCURVE",
"418 406 OFFCURVE",
"418 378 CURVE SMOOTH",
"418 367 OFFCURVE",
"417 355 OFFCURVE",
"415 342 CURVE SMOOTH",
"360 0 LINE",
"501 0 LINE",
"532 193 LINE",
"555 280 OFFCURVE",
"612 427 OFFCURVE",
"686 427 CURVE SMOOTH",
"715 427 OFFCURVE",
"724 407 OFFCURVE",
"724 378 CURVE SMOOTH",
"724 368 OFFCURVE",
"723 355 OFFCURVE",
"721 342 CURVE SMOOTH",
"665 0 LINE",
"886 10 LINE",
"899 90 LINE",
"824 105 LINE",
"867 370 LINE SMOOTH",
"870 390 OFFCURVE",
"872 410 OFFCURVE",
"872 428 CURVE SMOOTH",
"872 500 OFFCURVE",
"841 550 OFFCURVE",
"762 550 CURVE SMOOTH",
"654 550 OFFCURVE",
"585 440 OFFCURVE",
"561 392 CURVE",
"563 405 OFFCURVE",
"564 417 OFFCURVE",
"564 429 CURVE SMOOTH",
"564 498 OFFCURVE",
"532 550 OFFCURVE",
"456 550 CURVE SMOOTH",
"324 550 OFFCURVE",
"247 383 OFFCURVE",
"245 379 CURVE",
"278 540 LINE",
"57 532 LINE",
"44 452 LINE",
"121 432 LINE",
"53 0 LINE"
);
}
);
width = 938;
}
);
leftKerningGroup = n;
rightKerningGroup = n;
unicode = 006D;
},
{
glyphname = n;
lastChange = "2016-08-18 14:48:36 +0000";
layers = (
{
layerId = "89F00A14-383C-41A8-AF30-A12CE933D7AF";
paths = (
{
closed = 1;
nodes = (
"159 0 LINE",
"188 180 LINE",
"188 180 OFFCURVE",
"272 455 OFFCURVE",
"402 455 CURVE SMOOTH",
"442 455 OFFCURVE",
"454 426 OFFCURVE",
"454 389 CURVE SMOOTH",
"454 375 OFFCURVE",
"452 360 OFFCURVE",
"450 345 CURVE SMOOTH",
"394 0 LINE",
"578 10 LINE",
"587 65 LINE",
"502 80 LINE",
"548 360 LINE SMOOTH",
"551 380 OFFCURVE",
"553 399 OFFCURVE",
"553 417 CURVE SMOOTH",
"553 490 OFFCURVE",
"523 540 OFFCURVE",
"442 540 CURVE SMOOTH",
"290 540 OFFCURVE",
"204 347 OFFCURVE",
"199 336 CURVE",
"244 530 LINE",
"61 525 LINE",
"52 470 LINE",
"136 450 LINE",
"64 0 LINE"
);
}
);
width = 634;
},
{
layerId = "6959900B-8A08-4E04-B0F8-C63132552E7A";
paths = (
{
closed = 1;
nodes = (
"196 0 LINE",
"225 171 LINE",
"231 223 OFFCURVE",
"303 425 OFFCURVE",
"391 425 CURVE SMOOTH",
"419 425 OFFCURVE",
"429 404 OFFCURVE",
"429 376 CURVE SMOOTH",
"429 365 OFFCURVE",
"427 353 OFFCURVE",
"425 340 CURVE SMOOTH",
"370 0 LINE",
"596 10 LINE",
"609 90 LINE",
"531 105 LINE",
"577 370 LINE SMOOTH",
"580 390 OFFCURVE",
"582 410 OFFCURVE",
"582 428 CURVE SMOOTH",
"582 500 OFFCURVE",
"546 550 OFFCURVE",
"467 550 CURVE SMOOTH",
"336 550 OFFCURVE",
"253 390 OFFCURVE",
"248 380 CURVE",
"282 540 LINE",
"57 532 LINE",
"44 452 LINE",
"121 432 LINE",
"52 0 LINE"
);
}
);
width = 648;
}
);
leftKerningGroup = n;
rightKerningGroup = n;
unicode = 006E;
},
{
glyphname = napostrophe;
lastChange = "2016-08-18 14:48:36 +0000";
layers = (
{
components = (
{
name = n;
}
);
layerId = "89F00A14-383C-41A8-AF30-A12CE933D7AF";
paths = (
{
closed = 1;
nodes = (
"144 633 OFFCURVE",
"197 695 OFFCURVE",
"197 754 CURVE SMOOTH",
"197 789 OFFCURVE",
"177 805 OFFCURVE",
"147 805 CURVE SMOOTH",
"104 805 OFFCURVE",
"79 768 OFFCURVE",
"79 736 CURVE SMOOTH",
"79 713 OFFCURVE",
"95 700 OFFCURVE",
"95 687 CURVE SMOOTH",
"95 667 OFFCURVE",
"32 619 OFFCURVE",
"31 619 CURVE",
"62 576 LINE"
);
}
);
width = 634;
},
{
background = {
paths = (
{
closed = 1;
nodes = (
"73 532 LINE",
"60 452 LINE",
"137 432 LINE",
"68 0 LINE",
"209 0 LINE",
"238 171 LINE SMOOTH",
"247 223 OFFCURVE",
"316 427 OFFCURVE",
"404 427 CURVE SMOOTH",
"432 427 OFFCURVE",
"442 406 OFFCURVE",
"442 378 CURVE SMOOTH",
"442 367 OFFCURVE",
"440 355 OFFCURVE",
"438 342 CURVE SMOOTH",
"383 0 LINE",
"604 10 LINE",
"617 90 LINE",
"542 105 LINE",
"585 370 LINE SMOOTH",
"588 390 OFFCURVE",
"590 410 OFFCURVE",
"590 428 CURVE SMOOTH",
"590 500 OFFCURVE",
"559 550 OFFCURVE",
"480 550 CURVE SMOOTH",
"349 550 OFFCURVE",
"266 390 OFFCURVE",
"261 380 CURVE",
"295 540 LINE"
);
},
{
closed = 1;
nodes = (
"76 573 LINE",
"124 616 OFFCURVE",
"214 701 OFFCURVE",
"214 787 CURVE SMOOTH",
"214 827 OFFCURVE",
"194 852 OFFCURVE",
"154 852 CURVE SMOOTH",
"114 852 OFFCURVE",
"75 822 OFFCURVE",
"75 772 CURVE SMOOTH",
"75 744 OFFCURVE",
"87 732 OFFCURVE",
"87 713 CURVE SMOOTH",
"87 679 OFFCURVE",
"56 654 OFFCURVE",
"26 626 CURVE"
);
}
);
};
components = (
{
name = n;
}
);
layerId = "6959900B-8A08-4E04-B0F8-C63132552E7A";
paths = (
{
closed = 1;
nodes = (
"124 616 OFFCURVE",
"214 701 OFFCURVE",
"214 787 CURVE SMOOTH",
"214 827 OFFCURVE",
"194 852 OFFCURVE",
"154 852 CURVE SMOOTH",
"114 852 OFFCURVE",
"75 822 OFFCURVE",
"75 772 CURVE SMOOTH",
"75 744 OFFCURVE",
"87 732 OFFCURVE",
"87 713 CURVE SMOOTH",
"87 679 OFFCURVE",
"56 654 OFFCURVE",
"26 626 CURVE",
"76 573 LINE"
);
}
);
width = 648;
}
);
leftKerningGroup = n;
rightKerningGroup = n;
rightMetricsKey = n;
unicode = 0149;
},
{
glyphname = ncommaaccent;
lastChange = "2016-08-18 14:50:22 +0000";
layers = (
{
components = (
{
name = n;
},
{
name = commaaccentcomb;
transform = "{1, 0, 0, 1, 130, 0}";
}
);
layerId = "89F00A14-383C-41A8-AF30-A12CE933D7AF";
width = 634;
},
{
background = {
paths = (
{
closed = 1;
nodes = (
"57 532 LINE",
"44 452 LINE",
"121 432 LINE",
"52 0 LINE",
"193 0 LINE",
"222 171 LINE",
"228 223 OFFCURVE",
"300 427 OFFCURVE",
"388 427 CURVE SMOOTH",
"416 427 OFFCURVE",
"426 406 OFFCURVE",
"426 378 CURVE SMOOTH",
"426 367 OFFCURVE",
"424 355 OFFCURVE",
"422 342 CURVE SMOOTH",
"367 0 LINE",
"588 10 LINE",
"601 90 LINE",
"526 105 LINE",
"569 370 LINE SMOOTH",
"572 390 OFFCURVE",
"574 410 OFFCURVE",
"574 428 CURVE SMOOTH",
"574 500 OFFCURVE",
"543 550 OFFCURVE",
"464 550 CURVE SMOOTH",
"333 550 OFFCURVE",
"250 390 OFFCURVE",
"245 380 CURVE",
"279 540 LINE"
);
},
{
closed = 1;
nodes = (
"192 -329 LINE",
"240 -286 OFFCURVE",
"330 -201 OFFCURVE",
"330 -115 CURVE SMOOTH",
"330 -75 OFFCURVE",
"310 -50 OFFCURVE",
"270 -50 CURVE SMOOTH",
"230 -50 OFFCURVE",
"191 -80 OFFCURVE",
"191 -130 CURVE SMOOTH",
"191 -158 OFFCURVE",
"203 -170 OFFCURVE",
"203 -189 CURVE SMOOTH",
"203 -223 OFFCURVE",
"172 -248 OFFCURVE",
"142 -276 CURVE"
);
}
);
};
components = (
{
name = n;
},
{
name = commaaccentcomb;
transform = "{1, 0, 0, 1, 125, 0}";
}
);
layerId = "6959900B-8A08-4E04-B0F8-C63132552E7A";
width = 648;
}
);
leftKerningGroup = n;
rightKerningGroup = n;
unicode = 0146;
},
{
glyphname = eng;
lastChange = "2016-08-18 14:48:36 +0000";
layers = (
{
layerId = "89F00A14-383C-41A8-AF30-A12CE933D7AF";
paths = (
{
closed = 1;
nodes = (
"389 -240 OFFCURVE",
"464 -165 OFFCURVE",
"483 -45 CURVE SMOOTH",
"548 360 LINE SMOOTH",
"551 380 OFFCURVE",
"553 399 OFFCURVE",
"553 417 CURVE SMOOTH",
"553 490 OFFCURVE",
"523 540 OFFCURVE",
"442 540 CURVE SMOOTH",
"290 540 OFFCURVE",
"204 347 OFFCURVE",
"199 336 CURVE",
"244 530 LINE",
"61 525 LINE",
"52 470 LINE",
"136 450 LINE",
"64 0 LINE",
"159 0 LINE",
"188 180 LINE",
"188 180 OFFCURVE",
"272 455 OFFCURVE",
"402 455 CURVE SMOOTH",
"442 455 OFFCURVE",
"454 426 OFFCURVE",
"454 389 CURVE SMOOTH",
"454 375 OFFCURVE",
"452 360 OFFCURVE",
"450 345 CURVE SMOOTH",
"384 -65 LINE SMOOTH",
"374 -125 OFFCURVE",
"348 -165 OFFCURVE",
"280 -165 CURVE SMOOTH",
"231 -165 LINE",
"212 -235 LINE",
"212 -235 OFFCURVE",
"249 -240 OFFCURVE",
"273 -240 CURVE SMOOTH"
);
}
);
width = 628;
},
{
layerId = "6959900B-8A08-4E04-B0F8-C63132552E7A";
paths = (
{
closed = 1;
nodes = (
"405 -245 OFFCURVE",
"482 -168 OFFCURVE",
"502 -43 CURVE SMOOTH",
"569 370 LINE SMOOTH",
"572 390 OFFCURVE",
"574 410 OFFCURVE",
"574 428 CURVE SMOOTH",
"574 500 OFFCURVE",
"543 550 OFFCURVE",
"464 550 CURVE SMOOTH",
"333 550 OFFCURVE",
"250 390 OFFCURVE",
"245 380 CURVE",
"279 540 LINE",
"57 532 LINE",
"44 452 LINE",
"121 432 LINE",
"52 0 LINE",
"193 0 LINE",
"222 171 LINE",
"228 223 OFFCURVE",
"300 427 OFFCURVE",
"388 427 CURVE SMOOTH",
"416 427 OFFCURVE",
"426 406 OFFCURVE",
"426 378 CURVE SMOOTH",
"426 367 OFFCURVE",
"423 339 OFFCURVE",
"421 326 CURVE SMOOTH",
"366 -16 LINE SMOOTH",
"351 -107 OFFCURVE",
"334 -148 OFFCURVE",
"264 -145 CURVE SMOOTH",
"201 -142 LINE",
"181 -230 LINE",
"181 -230 OFFCURVE",
"238 -245 OFFCURVE",
"281 -245 CURVE SMOOTH"
);
}
);
width = 643;
}
);
leftKerningGroup = n;
rightKerningGroup = j;
unicode = 014B;
},
{
glyphname = ntilde;
lastChange = "2016-09-30 16:56:36 +0000";
layers = (
{
components = (
{
name = n;
},
{
name = tildecomb;
transform = "{1, 0, 0, 1, 196, 0}";
}
);
layerId = "89F00A14-383C-41A8-AF30-A12CE933D7AF";
width = 634;
},
{
background = {
paths = (
{
closed = 1;
nodes = (
"57 532 LINE",
"44 452 LINE",
"121 432 LINE",
"52 0 LINE",
"193 0 LINE",
"222 171 LINE",
"228 223 OFFCURVE",
"300 427 OFFCURVE",
"388 427 CURVE SMOOTH",
"416 427 OFFCURVE",
"426 406 OFFCURVE",
"426 378 CURVE SMOOTH",
"426 367 OFFCURVE",
"424 355 OFFCURVE",
"422 342 CURVE SMOOTH",
"367 0 LINE",
"588 10 LINE",
"601 90 LINE",
"526 105 LINE",
"569 370 LINE SMOOTH",
"572 390 OFFCURVE",
"574 410 OFFCURVE",
"574 428 CURVE SMOOTH",
"574 500 OFFCURVE",
"543 550 OFFCURVE",
"464 550 CURVE SMOOTH",
"333 550 OFFCURVE",
"250 390 OFFCURVE",
"245 380 CURVE",
"279 540 LINE"
);
},
{
closed = 1;
nodes = (
"205 630 LINE",
"205 630 OFFCURVE",
"242 671 OFFCURVE",
"283 671 CURVE SMOOTH",
"341 671 OFFCURVE",
"371 627 OFFCURVE",
"439 627 CURVE SMOOTH",
"518 627 OFFCURVE",
"577 736 OFFCURVE",
"577 736 CURVE",
"532 782 LINE",
"532 782 OFFCURVE",
"497 740 OFFCURVE",
"459 740 CURVE SMOOTH",
"401 740 OFFCURVE",
"373 786 OFFCURVE",
"305 786 CURVE SMOOTH",
"225 786 OFFCURVE",
"167 676 OFFCURVE",
"167 676 CURVE"
);
}
);
};
components = (
{
name = n;
},
{
name = tildecomb;
transform = "{1, 0, 0, 1, 169, 0}";
}
);
layerId = "6959900B-8A08-4E04-B0F8-C63132552E7A";
width = 648;
}
);
leftKerningGroup = n;
rightKerningGroup = n;
unicode = 00F1;
},
{
glyphname = o;
lastChange = "2016-09-30 17:08:45 +0000";
layers = (
{
anchors = (
{
name = bottom;
position = "{233, 0}";
},
{
name = center;
position = "{275, 265}";
},
{
name = ogonek;
position = "{453, 10}";
},
{
name = top;
position = "{317, 530}";
},
{
name = topright;
position = "{476, 530}";
}
);
layerId = "89F00A14-383C-41A8-AF30-A12CE933D7AF";
paths = (
{
closed = 1;
nodes = (
"390 -10 OFFCURVE",
"516 125 OFFCURVE",
"516 343 CURVE SMOOTH",
"516 457 OFFCURVE",
"451 540 OFFCURVE",
"328 540 CURVE SMOOTH",
"155 540 OFFCURVE",
"34 398 OFFCURVE",
"34 188 CURVE SMOOTH",
"34 68 OFFCURVE",
"104 -10 OFFCURVE",
"218 -10 CURVE SMOOTH"
);
},
{
closed = 1;
nodes = (
"176 70 OFFCURVE",
"134 105 OFFCURVE",
"134 185 CURVE SMOOTH",
"134 330 OFFCURVE",
"193 460 OFFCURVE",
"310 460 CURVE SMOOTH",
"370 460 OFFCURVE",
"417 430 OFFCURVE",
"417 345 CURVE SMOOTH",
"417 185 OFFCURVE",
"352 70 OFFCURVE",
"236 70 CURVE SMOOTH"
);
}
);
width = 550;
},
{
anchors = (
{
name = bottom;
position = "{247, 0}";
},
{
name = center;
position = "{290, 270}";
},
{
name = ogonek;
position = "{478, 10}";
},
{
name = top;
position = "{333, 540}";
},
{
name = topright;
position = "{485, 540}";
}
);
layerId = "6959900B-8A08-4E04-B0F8-C63132552E7A";
paths = (
{
closed = 1;
nodes = (
"425 -10 OFFCURVE",
"548 127 OFFCURVE",
"548 339 CURVE SMOOTH",
"548 469 OFFCURVE",
"470 550 OFFCURVE",
"332 550 CURVE SMOOTH",
"151 550 OFFCURVE",
"30 412 OFFCURVE",
"30 200 CURVE SMOOTH",
"30 66 OFFCURVE",
"109 -10 OFFCURVE",
"244 -10 CURVE SMOOTH"
);
},
{
closed = 1;
nodes = (
"205 110 OFFCURVE",
"180 145 OFFCURVE",
"180 208 CURVE SMOOTH",
"180 329 OFFCURVE",
"231 430 OFFCURVE",
"315 430 CURVE SMOOTH",
"365 430 OFFCURVE",
"396 402 OFFCURVE",
"398 345 CURVE",
"398 247 OFFCURVE",
"369 110 OFFCURVE",
"261 110 CURVE SMOOTH"
);
}
);
width = 579;
}
);
leftKerningGroup = o;
rightKerningGroup = o;
unicode = 006F;
},
{
glyphname = obreve;
lastChange = "2016-09-30 16:58:33 +0000";
layers = (
{
components = (
{
name = o;
},
{
name = brevecomb;
transform = "{1, 0, 0, 1, 144, 0}";
}
);
layerId = "89F00A14-383C-41A8-AF30-A12CE933D7AF";
width = 550;
},
{
components = (
{
name = o;
},
{
name = brevecomb;
transform = "{1, 0, 0, 1, 131, 16}";
}
);
layerId = "6959900B-8A08-4E04-B0F8-C63132552E7A";
paths = (
{
closed = 0;
nodes = (
"268 726 LINE"
);
}
);
width = 579;
}
);
leftKerningGroup = o;
rightKerningGroup = o;
unicode = 014F;
},
{
glyphname = ocircumflex;
lastChange = "2016-08-18 14:48:36 +0000";
layers = (
{
components = (
{
name = o;
},
{
name = circumflex;
transform = "{1, 0, 0, 1, 177, 0}";
}
);
layerId = "89F00A14-383C-41A8-AF30-A12CE933D7AF";
width = 550;
},
{
background = {
paths = (
{
closed = 1;
nodes = (
"417 -10 OFFCURVE",
"546 134 OFFCURVE",
"546 354 CURVE SMOOTH",
"546 475 OFFCURVE",
"473 550 OFFCURVE",
"340 550 CURVE SMOOTH",
"155 550 OFFCURVE",
"28 405 OFFCURVE",
"28 185 CURVE SMOOTH",
"28 60 OFFCURVE",
"102 -10 OFFCURVE",
"232 -10 CURVE SMOOTH"
);
},
{
closed = 1;
nodes = (
"398 210 OFFCURVE",
"340 105 OFFCURVE",
"253 105 CURVE SMOOTH",
"203 105 OFFCURVE",
"176 135 OFFCURVE",
"176 195 CURVE SMOOTH",
"176 322 OFFCURVE",
"232 435 OFFCURVE",
"319 435 CURVE SMOOTH",
"369 435 OFFCURVE",
"398 407 OFFCURVE",
"398 345 CURVE SMOOTH"
);
},
{
closed = 1;
nodes = (
"357 708 LINE",
"484 608 LINE",
"540 673 LINE",
"410 817 LINE",
"323 810 LINE",
"151 673 LINE",
"193 608 LINE"
);
}
);
};
components = (
{
name = o;
},
{
name = circumflex;
transform = "{1, 0, 0, 1, 151, -14}";
}
);
layerId = "6959900B-8A08-4E04-B0F8-C63132552E7A";
width = 579;
}
);
leftKerningGroup = o;
rightKerningGroup = o;
unicode = 00F4;
},
{
glyphname = omacron;
lastChange = "2016-08-18 14:48:36 +0000";
layers = (
{
components = (
{
name = o;
},
{
name = macron;
transform = "{1, 0, 0, 1, 216, 0}";
}
);
layerId = "89F00A14-383C-41A8-AF30-A12CE933D7AF";
width = 550;
},
{
background = {
paths = (
{
closed = 1;
nodes = (
"417 -10 OFFCURVE",
"546 134 OFFCURVE",
"546 354 CURVE SMOOTH",
"546 475 OFFCURVE",
"473 550 OFFCURVE",
"340 550 CURVE SMOOTH",
"155 550 OFFCURVE",
"28 405 OFFCURVE",
"28 185 CURVE SMOOTH",
"28 60 OFFCURVE",
"102 -10 OFFCURVE",
"232 -10 CURVE SMOOTH"
);
},
{
closed = 1;
nodes = (
"398 210 OFFCURVE",
"340 105 OFFCURVE",
"253 105 CURVE SMOOTH",
"203 105 OFFCURVE",
"176 135 OFFCURVE",
"176 195 CURVE SMOOTH",
"176 322 OFFCURVE",
"232 435 OFFCURVE",
"319 435 CURVE SMOOTH",
"369 435 OFFCURVE",
"398 407 OFFCURVE",
"398 345 CURVE SMOOTH"
);
},
{
closed = 1;
nodes = (
"208 642 LINE",
"499 642 LINE",
"517 747 LINE",
"226 747 LINE"
);
}
);
};
components = (
{
name = o;
},
{
name = macron;
transform = "{1, 0, 0, 1, 208, 0}";
}
);
layerId = "6959900B-8A08-4E04-B0F8-C63132552E7A";
width = 579;
}
);
leftKerningGroup = o;
rightKerningGroup = o;
unicode = 014D;
},
{
glyphname = oslash;
lastChange = "2016-08-18 14:48:36 +0000";
layers = (
{
layerId = "89F00A14-383C-41A8-AF30-A12CE933D7AF";
paths = (
{
closed = 1;
nodes = (
"141 9 LINE",
"166 -3 OFFCURVE",
"195 -10 OFFCURVE",
"228 -10 CURVE SMOOTH",
"405 -10 OFFCURVE",
"536 130 OFFCURVE",
"536 360 CURVE SMOOTH",
"536 408 OFFCURVE",
"520 450 OFFCURVE",
"492 482 CURVE",
"572 590 LINE",
"518 625 LINE",
"440 520 LINE",
"412 533 OFFCURVE",
"380 540 OFFCURVE",
"343 540 CURVE SMOOTH",
"171 540 OFFCURVE",
"45 395 OFFCURVE",
"45 180 CURVE SMOOTH",
"45 126 OFFCURVE",
"61 80 OFFCURVE",
"89 48 CURVE",
"2 -70 LINE",
"56 -105 LINE"
);
},
{
closed = 1;
nodes = (
"228 70 OFFCURVE",
"210 74 OFFCURVE",
"195 82 CURVE",
"428 396 LINE",
"433 382 OFFCURVE",
"436 365 OFFCURVE",
"436 345 CURVE SMOOTH",
"436 185 OFFCURVE",
"364 70 OFFCURVE",
"248 70 CURVE SMOOTH"
);
},
{
closed = 1;
nodes = (
"147 147 OFFCURVE",
"145 165 OFFCURVE",
"145 185 CURVE SMOOTH",
"145 330 OFFCURVE",
"211 460 OFFCURVE",
"328 460 CURVE SMOOTH",
"349 460 OFFCURVE",
"369 456 OFFCURVE",
"386 447 CURVE",
"152 133 LINE"
);
}
);
width = 580;
},
{
layerId = "6959900B-8A08-4E04-B0F8-C63132552E7A";
paths = (
{
closed = 1;
nodes = (
"146 5 LINE",
"173 -4 OFFCURVE",
"203 -10 OFFCURVE",
"238 -10 CURVE SMOOTH",
"424 -10 OFFCURVE",
"553 135 OFFCURVE",
"553 357 CURVE SMOOTH",
"553 413 OFFCURVE",
"536 458 OFFCURVE",
"505 492 CURVE",
"586 601 LINE",
"519 643 LINE",
"439 534 LINE",
"411 544 OFFCURVE",
"380 550 OFFCURVE",
"344 550 CURVE SMOOTH",
"160 550 OFFCURVE",
"33 405 OFFCURVE",
"33 185 CURVE SMOOTH",
"33 127 OFFCURVE",
"49 80 OFFCURVE",
"80 47 CURVE",
"-10 -75 LINE",
"56 -117 LINE"
);
},
{
closed = 1;
nodes = (
"246 105 OFFCURVE",
"234 107 OFFCURVE",
"224 111 CURVE",
"401 350 LINE",
"401 341 OFFCURVE",
"402 332 OFFCURVE",
"402 323 CURVE SMOOTH",
"402 197 OFFCURVE",
"341 105 OFFCURVE",
"259 105 CURVE SMOOTH"
);
},
{
closed = 1;
nodes = (
"184 196 OFFCURVE",
"184 202 OFFCURVE",
"184 209 CURVE SMOOTH",
"184 328 OFFCURVE",
"239 435 OFFCURVE",
"325 435 CURVE SMOOTH",
"338 435 OFFCURVE",
"350 432 OFFCURVE",
"361 428 CURVE",
"185 190 LINE"
);
}
);
width = 586;
}
);
leftKerningGroup = o;
rightKerningGroup = o;
unicode = 00F8;
},
{
glyphname = otilde;
lastChange = "2016-09-30 17:07:23 +0000";
layers = (
{
components = (
{
name = o;
},
{
name = tildecomb;
transform = "{1, 0, 0, 1, 153, 0}";
}
);
layerId = "89F00A14-383C-41A8-AF30-A12CE933D7AF";
width = 550;
},
{
background = {
paths = (
{
closed = 1;
nodes = (
"417 -10 OFFCURVE",
"546 134 OFFCURVE",
"546 354 CURVE SMOOTH",
"546 475 OFFCURVE",
"473 550 OFFCURVE",
"340 550 CURVE SMOOTH",
"155 550 OFFCURVE",
"28 405 OFFCURVE",
"28 185 CURVE SMOOTH",
"28 60 OFFCURVE",
"102 -10 OFFCURVE",
"232 -10 CURVE SMOOTH"
);
},
{
closed = 1;
nodes = (
"398 210 OFFCURVE",
"340 105 OFFCURVE",
"253 105 CURVE SMOOTH",
"203 105 OFFCURVE",
"176 135 OFFCURVE",
"176 195 CURVE SMOOTH",
"176 322 OFFCURVE",
"232 435 OFFCURVE",
"319 435 CURVE SMOOTH",
"369 435 OFFCURVE",
"398 407 OFFCURVE",
"398 345 CURVE SMOOTH"
);
},
{
closed = 1;
nodes = (
"180 638 LINE",
"180 638 OFFCURVE",
"217 679 OFFCURVE",
"258 679 CURVE SMOOTH",
"316 679 OFFCURVE",
"355 635 OFFCURVE",
"423 635 CURVE SMOOTH",
"502 635 OFFCURVE",
"561 744 OFFCURVE",
"561 744 CURVE",
"516 783 LINE",
"516 783 OFFCURVE",
"481 741 OFFCURVE",
"443 741 CURVE SMOOTH",
"385 741 OFFCURVE",
"351 786 OFFCURVE",
"283 786 CURVE SMOOTH",
"203 786 OFFCURVE",
"142 679 OFFCURVE",
"142 679 CURVE"
);
}
);
};
components = (
{
name = o;
},
{
name = tildecomb;
transform = "{1, 0, 0, 1, 154, 0}";
}
);
layerId = "6959900B-8A08-4E04-B0F8-C63132552E7A";
width = 579;
}
);
leftKerningGroup = o;
rightKerningGroup = o;
unicode = 00F5;
},
{
glyphname = oe;
lastChange = "2016-08-18 14:48:36 +0000";
layers = (
{
layerId = "89F00A14-383C-41A8-AF30-A12CE933D7AF";
paths = (
{
closed = 1;
nodes = (
"297 -10 OFFCURVE",
"370 25 OFFCURVE",
"422 86 CURVE",
"445 26 OFFCURVE",
"497 -10 OFFCURVE",
"577 -10 CURVE SMOOTH",
"695 -10 OFFCURVE",
"797 64 OFFCURVE",
"797 64 CURVE",
"767 115 LINE",
"767 115 OFFCURVE",
"680 70 OFFCURVE",
"607 70 CURVE SMOOTH",
"532 70 OFFCURVE",
"497 104 OFFCURVE",
"497 178 CURVE SMOOTH",
"497 192 OFFCURVE",
"498 207 OFFCURVE",
"500 223 CURVE",
"707 223 OFFCURVE",
"847 290 OFFCURVE",
"847 410 CURVE SMOOTH",
"847 489 OFFCURVE",
"783 540 OFFCURVE",
"682 540 CURVE SMOOTH",
"607 540 OFFCURVE",
"542 503 OFFCURVE",
"495 442 CURVE",
"470 498 OFFCURVE",
"417 540 OFFCURVE",
"328 540 CURVE SMOOTH",
"158 540 OFFCURVE",
"33 395 OFFCURVE",
"33 180 CURVE SMOOTH",
"33 65 OFFCURVE",
"103 -10 OFFCURVE",
"213 -10 CURVE SMOOTH"
);
},
{
closed = 1;
nodes = (
"173 70 OFFCURVE",
"133 105 OFFCURVE",
"133 185 CURVE SMOOTH",
"133 330 OFFCURVE",
"198 460 OFFCURVE",
"313 460 CURVE SMOOTH",
"373 460 OFFCURVE",
"418 430 OFFCURVE",
"418 345 CURVE SMOOTH",
"418 185 OFFCURVE",
"347 70 OFFCURVE",
"233 70 CURVE SMOOTH"
);
},
{
closed = 1;
nodes = (
"535 392 OFFCURVE",
"604 465 OFFCURVE",
"677 465 CURVE SMOOTH",
"728 465 OFFCURVE",
"752 444 OFFCURVE",
"752 400 CURVE SMOOTH",
"752 329 OFFCURVE",
"651 293 OFFCURVE",
"509 293 CURVE"
);
}
);
width = 854;
},
{
layerId = "6959900B-8A08-4E04-B0F8-C63132552E7A";
paths = (
{
closed = 1;
nodes = (
"309 -8 OFFCURVE",
"376 20 OFFCURVE",
"426 69 CURVE",
"456 19 OFFCURVE",
"510 -10 OFFCURVE",
"581 -10 CURVE SMOOTH",
"688 -10 OFFCURVE",
"785 47 OFFCURVE",
"814 67 CURVE",
"772 141 LINE",
"751 134 OFFCURVE",
"681 105 OFFCURVE",
"622 105 CURVE SMOOTH",
"565 105 OFFCURVE",
"530 136 OFFCURVE",
"529 209 CURVE SMOOTH",
"529 210 OFFCURVE",
"529 215 OFFCURVE",
"529 216 CURVE",
"749 218 OFFCURVE",
"871 292 OFFCURVE",
"871 407 CURVE SMOOTH",
"871 494 OFFCURVE",
"801 550 OFFCURVE",
"688 550 CURVE SMOOTH",
"618 550 OFFCURVE",
"554 520 OFFCURVE",
"504 468 CURVE",
"473 517 OFFCURVE",
"419 550 OFFCURVE",
"337 550 CURVE SMOOTH",
"154 550 OFFCURVE",
"28 405 OFFCURVE",
"28 185 CURVE SMOOTH",
"28 55 OFFCURVE",
"105 -8 OFFCURVE",
"234 -8 CURVE SMOOTH"
);
},
{
closed = 1;
nodes = (
"203 105 OFFCURVE",
"176 135 OFFCURVE",
"176 195 CURVE SMOOTH",
"176 322 OFFCURVE",
"231 434 OFFCURVE",
"318 435 CURVE SMOOTH",
"368 435 OFFCURVE",
"396 407 OFFCURVE",
"396 345 CURVE SMOOTH",
"396 210 OFFCURVE",
"339 105 OFFCURVE",
"252 105 CURVE SMOOTH"
);
},
{
closed = 1;
nodes = (
"561 380 OFFCURVE",
"610 437 OFFCURVE",
"669 437 CURVE SMOOTH",
"708 437 OFFCURVE",
"725 418 OFFCURVE",
"725 389 CURVE SMOOTH",
"725 340 OFFCURVE",
"665 307 OFFCURVE",
"540 304 CURVE"
);
}
);
width = 876;
}
);
leftKerningGroup = o;
rightKerningGroup = e;
unicode = 0153;
},
{
glyphname = p;
lastChange = "2016-08-18 14:48:36 +0000";
layers = (
{
layerId = "89F00A14-383C-41A8-AF30-A12CE933D7AF";
paths = (
{
closed = 1;
nodes = (
"237 530 LINE",
"56 525 LINE",
"47 470 LINE",
"129 450 LINE",
"33 -150 LINE",
"-52 -175 LINE",
"-61 -230 LINE",
"194 -230 LINE",
"204 -175 LINE",
"128 -150 LINE",
"154 14 LINE",
"176 2 OFFCURVE",
"210 -10 OFFCURVE",
"252 -10 CURVE SMOOTH",
"410 -10 OFFCURVE",
"554 132 OFFCURVE",
"554 360 CURVE SMOOTH",
"554 455 OFFCURVE",
"510 540 OFFCURVE",
"422 540 CURVE SMOOTH",
"276 540 OFFCURVE",
"201 357 OFFCURVE",
"197 346 CURVE"
);
},
{
closed = 1;
nodes = (
"185 185 LINE",
"185 185 OFFCURVE",
"262 455 OFFCURVE",
"387 455 CURVE SMOOTH",
"435 455 OFFCURVE",
"454 401 OFFCURVE",
"454 345 CURVE SMOOTH",
"454 153 OFFCURVE",
"340 65 OFFCURVE",
"257 65 CURVE SMOOTH",
"207 65 OFFCURVE",
"165 80 OFFCURVE",
"165 80 CURVE"
);
}
);
width = 590;
},
{
layerId = "6959900B-8A08-4E04-B0F8-C63132552E7A";
paths = (
{
closed = 1;
nodes = (
"275 540 LINE",
"57 532 LINE",
"44 452 LINE",
"117 432 LINE",
"30 -125 LINE",
"-49 -150 LINE",
"-62 -230 LINE",
"235 -230 LINE",
"248 -150 LINE",
"171 -125 LINE",
"193 9 LINE",
"214 -1 OFFCURVE",
"244 -9 OFFCURVE",
"281 -9 CURVE SMOOTH",
"437 -9 OFFCURVE",
"589 129 OFFCURVE",
"589 365 CURVE SMOOTH",
"589 465 OFFCURVE",
"539 550 OFFCURVE",
"445 550 CURVE SMOOTH",
"313 550 OFFCURVE",
"241 400 OFFCURVE",
"235 388 CURVE"
);
},
{
closed = 1;
nodes = (
"225 193 LINE",
"225 193 OFFCURVE",
"283 430 OFFCURVE",
"384 430 CURVE SMOOTH",
"423 430 OFFCURVE",
"439 388 OFFCURVE",
"439 342 CURVE SMOOTH",
"439 206 OFFCURVE",
"363 100 OFFCURVE",
"281 100 CURVE SMOOTH",
"244 100 OFFCURVE",
"210 111 OFFCURVE",
"210 111 CURVE"
);
}
);
width = 616;
}
);
leftKerningGroup = p;
rightKerningGroup = o;
unicode = 0070;
},
{
glyphname = thorn;
lastChange = "2016-08-18 14:48:36 +0000";
layers = (
{
layerId = "89F00A14-383C-41A8-AF30-A12CE933D7AF";
paths = (
{
closed = 1;
nodes = (
"217 -230 LINE",
"226 -175 LINE",
"126 -155 LINE",
"150 4 LINE",
"165 0 OFFCURVE",
"203 -10 OFFCURVE",
"237 -10 CURVE SMOOTH",
"397 -10 OFFCURVE",
"547 132 OFFCURVE",
"547 360 CURVE SMOOTH",
"547 455 OFFCURVE",
"502 540 OFFCURVE",
"412 540 CURVE SMOOTH",
"274 540 OFFCURVE",
"197 357 OFFCURVE",
"193 346 CURVE",
"233 530 LINE",
"272 770 LINE",
"89 765 LINE",
"80 710 LINE",
"163 690 LINE",
"28 -155 LINE",
"-54 -175 LINE",
"-63 -230 LINE"
);
},
{
closed = 1;
nodes = (
"202 65 OFFCURVE",
"163 80 OFFCURVE",
"163 80 CURVE",
"184 185 LINE",
"184 185 OFFCURVE",
"255 455 OFFCURVE",
"377 455 CURVE SMOOTH",
"427 455 OFFCURVE",
"447 401 OFFCURVE",
"447 345 CURVE SMOOTH",
"447 153 OFFCURVE",
"332 65 OFFCURVE",
"247 65 CURVE SMOOTH"
);
}
);
width = 578;
},
{
layerId = "6959900B-8A08-4E04-B0F8-C63132552E7A";
paths = (
{
closed = 1;
nodes = (
"249 -230 LINE",
"262 -150 LINE",
"173 -127 LINE",
"194 4 LINE",
"209 -1 OFFCURVE",
"244 -9 OFFCURVE",
"271 -9 CURVE SMOOTH",
"430 -9 OFFCURVE",
"586 123 OFFCURVE",
"586 365 CURVE SMOOTH",
"586 465 OFFCURVE",
"538 550 OFFCURVE",
"443 550 CURVE SMOOTH",
"315 550 OFFCURVE",
"242 400 OFFCURVE",
"236 388 CURVE",
"279 540 LINE",
"317 775 LINE",
"94 767 LINE",
"81 687 LINE",
"157 667 LINE",
"31 -127 LINE",
"-47 -150 LINE",
"-60 -230 LINE"
);
},
{
closed = 1;
nodes = (
"244 100 OFFCURVE",
"212 111 OFFCURVE",
"212 111 CURVE",
"227 193 LINE",
"227 193 OFFCURVE",
"283 430 OFFCURVE",
"382 430 CURVE SMOOTH",
"421 430 OFFCURVE",
"438 387 OFFCURVE",
"438 342 CURVE SMOOTH",
"438 206 OFFCURVE",
"362 100 OFFCURVE",
"279 100 CURVE SMOOTH"
);
}
);
width = 613;
}
);
leftKerningGroup = l;
rightKerningGroup = o;
unicode = 00FE;
},
{
glyphname = q;
lastChange = "2016-08-18 14:48:36 +0000";
layers = (
{
layerId = "89F00A14-383C-41A8-AF30-A12CE933D7AF";
paths = (
{
closed = 1;
nodes = (
"489 -230 LINE",
"498 -175 LINE",
"422 -150 LINE",
"531 530 LINE",
"479 530 LINE",
"448 510 LINE",
"448 510 OFFCURVE",
"404 540 OFFCURVE",
"334 540 CURVE SMOOTH",
"185 540 OFFCURVE",
"36 411 OFFCURVE",
"36 165 CURVE SMOOTH",
"36 64 OFFCURVE",
"93 -10 OFFCURVE",
"168 -10 CURVE SMOOTH",
"301 -10 OFFCURVE",
"394 185 OFFCURVE",
"394 185 CURVE",
"350 0 LINE",
"327 -150 LINE",
"239 -175 LINE",
"230 -230 LINE"
);
},
{
closed = 1;
nodes = (
"162 75 OFFCURVE",
"136 110 OFFCURVE",
"136 180 CURVE SMOOTH",
"136 379 OFFCURVE",
"239 465 OFFCURVE",
"334 465 CURVE SMOOTH",
"384 465 OFFCURVE",
"426 450 OFFCURVE",
"426 450 CURVE",
"406 345 LINE",
"406 345 OFFCURVE",
"318 75 OFFCURVE",
"198 75 CURVE SMOOTH"
);
}
);
width = 558;
},
{
layerId = "6959900B-8A08-4E04-B0F8-C63132552E7A";
paths = (
{
closed = 1;
nodes = (
"520 -230 LINE",
"533 -150 LINE",
"463 -122 LINE",
"569 540 LINE",
"481 540 LINE",
"452 513 LINE",
"452 513 OFFCURVE",
"404 550 OFFCURVE",
"335 550 CURVE SMOOTH",
"183 550 OFFCURVE",
"31 419 OFFCURVE",
"31 171 CURVE SMOOTH",
"31 69 OFFCURVE",
"85 -10 OFFCURVE",
"172 -10 CURVE SMOOTH",
"297 -10 OFFCURVE",
"376 133 OFFCURVE",
"381 142 CURVE",
"343 0 LINE",
"322 -122 LINE",
"233 -150 LINE",
"220 -230 LINE"
);
},
{
closed = 1;
nodes = (
"198 107 OFFCURVE",
"179 137 OFFCURVE",
"179 190 CURVE SMOOTH",
"179 334 OFFCURVE",
"245 442 OFFCURVE",
"337 442 CURVE SMOOTH",
"380 442 OFFCURVE",
"411 430 OFFCURVE",
"411 430 CURVE",
"396 347 LINE",
"396 347 OFFCURVE",
"328 107 OFFCURVE",
"228 107 CURVE SMOOTH"
);
}
);
width = 590;
}
);
leftKerningGroup = o;
rightKerningGroup = q;
unicode = 0071;
},
{
glyphname = r;
lastChange = "2016-08-18 14:48:36 +0000";
layers = (
{
layerId = "89F00A14-383C-41A8-AF30-A12CE933D7AF";
paths = (
{
closed = 1;
nodes = (
"159 0 LINE",
"191 190 LINE",
"191 190 OFFCURVE",
"266 450 OFFCURVE",
"371 450 CURVE",
"371 380 LINE",
"436 380 LINE",
"466 530 LINE",
"466 530 OFFCURVE",
"441 540 OFFCURVE",
"416 540 CURVE SMOOTH",
"276 540 OFFCURVE",
"211 369 OFFCURVE",
"206 356 CURVE",
"245 530 LINE",
"61 525 LINE",
"52 470 LINE",
"137 450 LINE",
"64 0 LINE"
);
}
);
width = 426;
},
{
layerId = "6959900B-8A08-4E04-B0F8-C63132552E7A";
paths = (
{
closed = 1;
nodes = (
"193 0 LINE",
"222 181 LINE SMOOTH",
"239 286 OFFCURVE",
"310 407 OFFCURVE",
"358 420 CURVE",
"358 342 LINE",
"458 342 LINE",
"497 540 LINE",
"497 540 OFFCURVE",
"469 550 OFFCURVE",
"441 550 CURVE SMOOTH",
"321 550 OFFCURVE",
"252 400 OFFCURVE",
"248 390 CURVE",
"279 540 LINE",
"57 532 LINE",
"45 460 LINE",
"122 440 LINE",
"53 0 LINE"
);
}
);
width = 447;
}
);
leftKerningGroup = n;
rightKerningGroup = r;
unicode = 0072;
},
